<?xml version="1.0" standalone="no"?>
<!DOCTYPE svg PUBLIC "-//W3C//DTD SVG 1.1//EN" "http://www.w3.org/Graphics/SVG/1.1/DTD/svg11.dtd" >
<svg xmlns="http://www.w3.org/2000/svg" xmlns:xlink="http://www.w3.org/1999/xlink" version="1.1">
<metadata></metadata>
<defs>
<font id="jack_pirate_personal_use_onRg" horiz-adv-x="792" >
<font-face units-per-em="2048" ascent="1536" descent="-512" />
<missing-glyph horiz-adv-x="589" />
<glyph unicode="&#xfb01;" horiz-adv-x="976" d="M0 748l121 83l-12 404q66 47 131 81t126.5 67.5t117 75.5t102.5 108q37 -33 69.5 -67t66.5 -63.5t70.5 -52t84.5 -30.5l-207 -232l-185 246l-131 -51v-352l174 110q76 -37 126.5 -65.5t85 -43t61 -11.5t55.5 32l29 -45q-41 -43 -64.5 -72.5t-23.5 -76.5v-471l-49 -50 q27 -16 50 -30.5t44.5 -22.5t41 -6t36.5 18l26 -26l-254 -252l-194 135q31 31 47 59.5t16 88.5v469q0 25 -12 50t-40 47.5t-73 37t-108 18.5q-18 -59 -39 -166.5t-29 -265.5t-1 -369t44 -475l-135 -219l-45 1401q-18 -16 -33.5 -36.5t-26.5 -43.5z" />
<glyph unicode="&#xfb02;" horiz-adv-x="1017" d="M-12 922l127 116l-6 197q66 47 126 89t112 86t97 91t80 105q39 -39 83 -57.5t91 -21.5t95.5 5t91.5 22l35 -43q-29 -25 -45.5 -56.5t-25.5 -82.5t-12 -124.5t-3 -184.5v-741q0 -31 11 -50.5t27.5 -29t36 -6t35.5 19.5l31 -31q-33 -47 -70 -90q-31 -37 -71.5 -74.5 t-81.5 -58.5q-29 29 -64 61.5t-70 38.5q-27 -45 -49 -82q-12 -20 -26 -36l-37 36q31 33 50 58.5t29.5 55.5t13.5 69t3 94v621q0 86 9.5 152.5t36 130t74.5 131t126 155.5q-90 -35 -155.5 -80t-131.5 -90h-207v-178q37 2 75 9t69 15q37 8 69 19l-12 -121q-53 -16 -95 -39 t-75 -47q-59 -76 -95 -217.5t-50.5 -327.5t-5 -406.5t41.5 -455.5l-108 -205l-51 1598q-20 -23 -38 -48.5t-28 -54.5z" />
<glyph unicode="&#xfb03;" horiz-adv-x="1492" d="M-29 754l148 137l-10 344q66 47 126 89t112 86t97 91t80 105q39 -39 95.5 -60.5t118 -29t122 -2t103.5 19.5v-61q-422 -119 -601 -531q66 -4 147 -5t140 7l-8 291q66 47 131.5 81t127 67.5t116.5 75.5t102 108q37 -33 73 -67t74 -63.5t77.5 -52t87.5 -30.5l-224 -234 l-159 244l-160 -47v-352l174 110q76 -37 126 -65.5t85 -43t61.5 -11.5t55.5 32l28 -45q-41 -43 -64.5 -72.5t-23.5 -76.5v-471l-49 -50q27 -16 50.5 -30.5t45 -22.5t41 -6t35.5 18l27 -26l-254 -252l-195 135q31 31 47.5 59.5t16.5 88.5v469q0 25 -3.5 62.5t-23.5 69 t-65.5 51t-129.5 7.5q-18 -45 -40.5 -148.5t-35 -266.5t-6 -386t45.5 -512l-136 -219l-47 1481q-35 6 -76.5 8t-86 2t-86.5 -3t-78 -7q-160 -473 -50 -1276l-108 -205l-45 1450q-29 -25 -51.5 -56.5t-36.5 -66.5zM354 1102l207 215h-207v-215z" />
<glyph unicode="&#xfb04;" horiz-adv-x="1605" d="M-12 715l149 80l-14 440q66 47 126 89t112.5 86t97.5 91t80 105q39 -39 95 -60.5t117.5 -29t122 -2t103.5 19.5v-61q-440 -127 -610 -558l333 179l-4 141l117 82q92 66 169 133.5t130 155.5q39 -39 83 -57.5t91 -21.5t95.5 5t91.5 22l34 -43q-29 -25 -45 -56.5 t-25.5 -82.5t-12.5 -124.5t-3 -184.5v-741q0 -31 11.5 -50.5t28 -29t36 -6t35.5 19.5l31 -31q-33 -47 -70 -90q-31 -37 -72 -74.5t-82 -58.5q-29 29 -63.5 61.5t-69.5 38.5q-27 -45 -49 -82q-12 -20 -27 -36l-36 36q31 33 50 58.5t29.5 55.5t13.5 69t3 94v621q0 86 9 152.5 t36 130t75 131t126 155.5q-90 -35 -156 -80t-131 -90h-207v-178q37 2 75 9t68 15q37 8 70 19l-12 -121q-53 -16 -95 -39t-75 -47q-59 -76 -95 -217.5t-50.5 -327.5t-5.5 -406.5t42 -455.5l-108 -205l-51 1643q-74 -25 -172.5 -71t-196.5 -104q-154 -467 -45 -1263l-109 -205 l-43 1337q-31 -27 -56.5 -51t-43.5 -49zM369 1102l206 215h-206v-215z" />
<glyph horiz-adv-x="0" />
<glyph unicode="&#xd;" horiz-adv-x="1024" />
<glyph horiz-adv-x="1024" />
<glyph horiz-adv-x="1024" />
<glyph horiz-adv-x="1007" d="M-5.5 397.5q-25.5 137.5 42 280.5t233.5 256l215 182q125 -33 216.5 -94t147.5 -143t74.5 -176.5t-3 -189.5t-86 -185t-175.5 -164l-215 -180q-197 51 -310.5 163.5t-139 250zM109 502q59 -174 180 -241.5t276 -41.5l234 264q-6 8 -15 17q-8 6 -17 13t-22 11 q-41 -74 -113.5 -110.5t-156.5 -35.5t-169 38t-148 110q-10 -2 -19 -6q-8 -4 -17 -8t-13 -10zM291 590h102v194l-102 -4v-190zM528 590h105v194l-105 -4v-190z" />
<glyph unicode="&#x9;" horiz-adv-x="675" d="M20 424v283h66q0 -47 33 -66.5t78 -19.5h282q45 0 78 19t33 67h65v-283h-65q0 47 -33 66.5t-78 19.5h-282q-45 0 -78 -19.5t-33 -66.5h-66z" />
<glyph unicode="&#xa;" horiz-adv-x="675" d="M20 424v283h66q0 -47 33 -66.5t78 -19.5h282q45 0 78 19t33 67h65v-283h-65q0 47 -33 66.5t-78 19.5h-282q-45 0 -78 -19.5t-33 -66.5h-66z" />
<glyph unicode=" "  horiz-adv-x="589" />
<glyph unicode="&#x09;" horiz-adv-x="589" />
<glyph unicode="&#xa0;" horiz-adv-x="589" />
<glyph unicode="!" horiz-adv-x="516" d="M41 123q35 16 66.5 43t56.5 53q28 31 55 64q41 -14 73 -39t54 -49q25 -29 45 -62q-25 -39 -49 -74q-23 -29 -46.5 -56.5t-45.5 -37.5q-49 16 -87 44t-67 52q-33 29 -55 62zM106 1352q12 16 31 42.5t39.5 54.5t41 53.5t36.5 39.5q35 -31 70 -57q29 -23 58.5 -46.5 t47.5 -33.5q-86 -145 -128 -397t-54 -576l-53 2q-2 55 -8.5 133t-15.5 165t-19.5 178t-20.5 174t-16 153t-9 115z" />
<glyph unicode="&#x22;" horiz-adv-x="577" d="M-16 1255l192 211q68 -147 137.5 -144t149.5 144q43 -29 76 -65q29 -31 49 -71t12 -87t-31.5 -89t-46 -88t-37 -98.5t-4.5 -119.5h-84q14 186 -20.5 270t-79.5 79t-81 -95t-21 -254h-84q16 145 -20 255.5t-107 151.5z" />
<glyph unicode="#" horiz-adv-x="1064" d="M20 420v18l144 56l110 -25v188l-112 -26l-142 55v19l144 55l110 -25v47q0 47 -18 79t-66 32v68h281v-68q-47 0 -65.5 -32t-18.5 -79v-57h297v57q0 47 -18.5 79t-65.5 32v68h281v-68q-47 0 -65.5 -32t-18.5 -79v-45l98 23l141 -55v-19l-143 -55l-96 20v-180l98 23l141 -56 v-18l-143 -55l-96 20v-39q0 -45 18.5 -76.5t65.5 -31.5v-68h-281v68q47 0 65.5 31.5t18.5 76.5v53h-297v-53q0 -45 18.5 -76.5t65.5 -31.5v-68h-281v68q47 0 65.5 31.5t18.5 76.5v45l-112 -26zM387 457h297v211h-297v-211z" />
<glyph unicode="$" horiz-adv-x="1161" d="M-78 14q41 66 94 136q45 59 107.5 135.5t138.5 154.5q-74 57 -116 139.5t-31.5 173.5t84 182t231.5 165l117 96l-41 176l57 139h19l55 -141l-35 -156q111 -61 216.5 -68t219.5 79v-86q-59 -6 -101 -35t-75 -62.5t-61.5 -64.5t-61.5 -41q-31 -10 -65.5 -3t-70.5 26.5 t-71.5 48t-68.5 59.5q-47 -31 -78 -85t-36 -115.5t21.5 -124t98.5 -107.5q41 29 88 63.5t88 63.5q47 35 90 69q123 -25 190.5 -83t94.5 -141t19.5 -183t-33.5 -207q-53 -23 -111.5 -60.5t-115 -79.5t-104.5 -83t-79 -68l41 -184l-55 -141h-19l-57 139l39 162 q-141 121 -253 177t-196 56q-20 -18 -33.5 -51t-23.5 -66q-10 -37 -19 -77zM205 301q80 25 168 -4t159 -76q84 -53 168 -131q45 80 62.5 151.5t12.5 133t-26.5 107.5t-52.5 73q-45 39 -107.5 28.5t-129 -50t-133 -102t-121.5 -130.5z" />
<glyph unicode="%" horiz-adv-x="1476" d="M68.5 805q13.5 94 121 202.5t316.5 223.5q154 -55 228.5 -133t60 -172.5t-121 -202.5t-317.5 -221q-154 53 -227.5 131t-60 172zM121 -59q236 270 408.5 484t292.5 373.5t191.5 265t106.5 155.5q63 27 107.5 48t101.5 56l21 -23q-25 -51 -34 -112.5t1 -102.5 q-47 -39 -96.5 -76.5t-111.5 -92t-144 -132t-194 -197.5t-259 -289t-342 -402zM223.5 848q16.5 -55 89 -103.5t213.5 -80.5q141 104 101.5 213.5t-289.5 195.5q-66 -53 -98.5 -111.5t-16 -113.5zM663.5 273.5q14.5 95.5 122 203t316.5 221.5q154 -53 228.5 -131t60 -173 t-122 -202.5t-316.5 -222.5q-154 53 -228.5 131t-60 173.5zM821.5 315.5q16.5 -55.5 88 -103.5t212.5 -81q70 53 95.5 108.5t4 108.5t-93 102.5t-196.5 90.5q-66 -53 -96.5 -111.5t-14 -114z" />
<glyph unicode="&#x26;" horiz-adv-x="1523" d="M-1 154q7 125 89 244.5t246 201.5q-35 72 -51.5 139.5t-12.5 130.5q4 61 32 124t69 122.5t91 111.5t99 92t94 64.5t76 28.5q47 4 90 -13.5t79 -48t62.5 -71.5t38.5 -84q-49 -70 -80.5 -150.5t-71.5 -156.5t-101.5 -139.5t-167.5 -98.5q57 -80 131.5 -164t154.5 -157 l162 282q-59 20 -110.5 12t-79.5 -81l-41 22q8 31 39.5 73t70.5 84t79 78t67 52q205 -150 301 -148.5t112 130.5q8 -4 19.5 -11.5t21.5 -13.5q10 -8 23 -16q-27 -47 -58.5 -91.5t-67.5 -79t-74 -58t-77 -29.5q-29 -4 -68.5 12t-84.5 37q-57 -41 -103.5 -112t-101.5 -169 q59 -53 118.5 -95t115 -70.5t105.5 -41t91 -2.5q96 25 134 98.5t22 165.5l104 -28q-16 -102 -57 -160.5t-97.5 -88.5t-119 -42t-123 -26.5t-109.5 -38t-78 -76.5q-113 72 -233 174q-68 -96 -136.5 -141.5t-135 -72t-129 -51t-117.5 -77.5q-129 70 -193.5 184.5t-57.5 239.5z M199 222.5q4 -70.5 29.5 -131t74.5 -102.5t123 -52q55 -8 102 4t86 36.5t70 57.5t53 63q-117 104 -219 226t-168 245q-53 -31 -88 -87t-51 -122.5t-12 -137zM444 903q12 -76 105 -209q68 23 124 67t94 100.5t56.5 119.5t10.5 127q-4 31 -21.5 59.5t-42.5 51t-56.5 36 t-62.5 13.5q-41 0 -84 -23.5t-74.5 -70t-46 -115t-2.5 -156.5z" />
<glyph unicode="'" horiz-adv-x="182" d="M-102 1255l192 211q37 -27 62 -59q23 -29 38 -65.5t7 -84.5q-8 -47 -26.5 -91t-36 -93t-27 -103.5t1.5 -121.5h-84q16 145 -20 255.5t-107 151.5z" />
<glyph unicode="(" horiz-adv-x="503" d="M28.5 575.5q16.5 184.5 67.5 354.5t132 312t184 226l71 -73q-90 -47 -155.5 -129t-109.5 -185.5t-64.5 -222.5t-20.5 -238.5t22.5 -233.5t66.5 -208t109.5 -161.5t151.5 -94.5q-10 -29 -33.5 -69.5t-50.5 -79.5q-31 -45 -65 -92q-127 86 -200 227t-97.5 312t-8 355.5z " />
<glyph unicode=")" horiz-adv-x="503" d="M20 -246q88 47 155 129t111 185.5t64.5 222.5t20.5 238.5t-22.5 233.5t-66.5 208t-110 161.5t-152 94.5q10 29 34 69.5t50 79.5q31 45 66 92q127 -86 199.5 -227t97.5 -312t8.5 -355.5t-68 -354.5t-132 -312.5t-183.5 -225.5z" />
<glyph unicode="*" horiz-adv-x="774" d="M20 831l84 140l175 67l-177 107l-82 139l19 12l192 -61l115 -70l-35 150l66 162h20l64 -162l-43 -193l31 -18l94 133l192 59l19 -14l-84 -139l-174 -70l174 -104l82 -140l-19 -12l-190 62l-117 69l35 -149l-64 -162h-22l-64 164l43 192l-24 15l-99 -131l-192 -60z" />
<glyph unicode="+" horiz-adv-x="677" d="M20 424v283h68q0 -49 35 -67.5t76 -18.5h75v161q0 47 -18 79t-66 32v68h281v-68q-47 0 -65.5 -32t-18.5 -79v-161h94q45 0 77 19t32 67h67v-283h-67q0 47 -32 66.5t-77 19.5h-94v-164q0 -45 18.5 -76.5t65.5 -31.5v-68h-281v68q47 0 65.5 31.5t18.5 76.5v164h-75 q-41 0 -76 -18.5t-35 -67.5h-68z" />
<glyph unicode="," horiz-adv-x="329" d="M20 178l154 189q37 -35 68 -72q25 -31 46 -68t21 -65q-39 -29 -68.5 -68t-49 -84t-29.5 -93t-10 -93l-68 39q25 51 25 98t-12.5 87t-34 73t-42.5 57z" />
<glyph unicode="-" horiz-adv-x="815" d="M20 428q45 45 85 87t78 76t76 57.5t81 33.5t88 -12.5t98.5 -46t119 -33.5t149.5 26v-90q-76 0 -127.5 -7t-91 -24.5t-74.5 -47t-78 -72.5q-78 49 -132 73.5t-94 24.5t-67 -26.5t-49 -79.5z" />
<glyph unicode="." horiz-adv-x="391" d="M20 182q35 18 66 50t57 61q29 35 58 74q41 -16 71.5 -44t53.5 -57q25 -35 45 -71q-25 -47 -47 -86q-20 -35 -45 -68t-48 -43q-49 20 -88 52t-67 61q-33 35 -56 71z" />
<glyph unicode="/" horiz-adv-x="692" d="M-205 -293q166 299 300 576.5t232.5 502t159 380t80.5 208.5q55 35 94 62.5t87 70.5l26 -18q-12 -53 -18 -107.5t14 -89.5q-57 -68 -131 -184.5t-181.5 -307t-254 -466t-348.5 -662.5z" />
<glyph unicode="0" horiz-adv-x="4378" d="M111 -90h82l2 215l41 -215h61l43 217l4 -217h76l-4 526h-90l-62 -330l-59 330h-86zM487 -90h82v258l93 -258h65v526h-82v-252l-90 252h-68v-526zM784 8v-98h88v98h-88zM909 94q0 -35 3 -65.5t18 -61.5q16 -37 52 -53t75 -8q41 8 64.5 38.5t27.5 65.5q12 98 -62 174 l-43 47q-14 14 -27 26.5t-20 35.5q-6 16 -1 44t32 25q14 -2 20.5 -14t9.5 -27.5t4 -32t1 -28.5l82 4q0 49 -10.5 98.5t-57.5 69.5q-29 12 -57.5 10t-52 -14t-39 -35.5t-17.5 -54.5q-4 -31 1.5 -63.5t23.5 -57.5q6 -16 19.5 -26.5t25.5 -24.5q25 -29 53.5 -60.5t28.5 -72.5 q0 -16 -3 -29.5t-18 -15.5q-12 -4 -20 2t-12 16q-12 23 -14.5 46.5t-4.5 47.5zM910 -658.5q1 29.5 1 52.5q0 33 17.5 57.5t58.5 20.5q37 -4 45 -30t8 -54h-32q0 10 1 21t-5 22q-4 16 -22.5 18t-27.5 -14q-12 -12 -9 -41t3 -47q0 -14 -3 -41t11 -43q6 -14 24.5 -11t23.5 19 q6 10 5 22.5t-1 22.5h32q0 -31 -10 -61.5t-53 -30.5q-31 0 -45 18.5t-18.5 44t-3.5 55zM1067 -645q0 23 1 45t8 38.5t22.5 26t44.5 7.5q25 -2 38 -14.5t18 -31t5 -40v-39.5v-40t-6 -40.5t-20 -30.5t-41 -12q-31 0 -45.5 13t-19.5 32.5t-5 43v42.5zM1073 1466v482h101 q37 0 68.5 -8.5t49.5 -45.5q10 -20 15.5 -45.5t3.5 -50t-12.5 -47t-28.5 -37.5q-27 -23 -64 -22.5t-67 0.5v-226h-66zM1077 1102v297h64v-320q0 -27 4 -61.5t35 -50.5q27 -8 44 0t26.5 24.5t13.5 38t4 41.5q2 41 1 77t-1 77v174h67v-219q0 -31 1 -70t-4 -76t-22.5 -67.5 t-54.5 -42.5q-43 -16 -94 -2t-69 65q-10 25 -12.5 52.5t-2.5 62.5zM1102 -692.5q0 -18.5 3 -32.5t13 -16q20 -12 30.5 -5t14.5 21t4 32.5v30.5q0 8 1 24.5t0 32t-4 29t-11 17.5q-27 16 -38 0t-11 -35q-2 -10 -1 -19.5t1 -17.5q0 -10 -1 -26.5t-1 -35zM1139 1741 q16 0 32.5 -1t36.5 3q25 6 32 25.5t7 41.5q2 27 -4 51.5t-35 32.5q-20 4 -36.5 3t-32.5 -1v-155zM1161 -225h94v-25h-57v-82h45v-24h-45v-113h-37v244zM1189 101.5q-1 -35.5 3 -72.5q4 -31 15.5 -63t39.5 -46q27 -18 66 -17t61 23l2 -16h70v274h-137v-78h53v-33.5t-4 -45 t-15.5 -34.5t-33.5 -5q-14 4 -20.5 18t-8.5 31.5t-1 35t1 27.5v125q0 25 -1 56.5t5 58.5q6 10 17.5 17.5t23.5 4.5q27 -8 29 -32q4 -18 3 -38t-1 -42h88q0 45 -6 96t-52 80q-25 16 -57.5 17t-60.5 -9q-35 -10 -52.5 -41t-23.5 -65q-4 -37 -3 -76t1 -78q0 -37 -1 -72.5z M1235 -774l4 244h37l43 -195l41 195h33l4 -244h-27l-2 180l-41 -180h-22l-39 180l-2 -180h-29zM1276 -338q0 20 1 42t8 38t21.5 26.5t43.5 8.5q25 -2 37 -14.5t18 -31t6 -40v-39.5t-1 -41t-7 -41.5t-19.5 -30.5t-40.5 -12q-29 0 -43 13.5t-19 33.5t-5 44v44zM1307 -392.5 q0 -17.5 4 -32.5t16 -19q20 -10 29.5 -2t13.5 23t4 33.5v31.5q0 8 1 24.5t1 32.5t-4 29.5t-12 19.5q-23 12 -37 -4t-14 -37v-39q0 -8 -1 -25.5t-1 -35zM1358 1466v482h184v-52h-119v-155h97v-49h-97v-179h121v-47h-186zM1389 1055l63 16q2 -23 5 -45t18 -39q16 -18 38.5 -20 t38.5 14q20 16 18.5 45t-16.5 47q-10 14 -23 28.5t-30 24.5q-23 23 -49.5 44.5t-42.5 48.5q-14 23 -18.5 50t3 54t24 47.5t44.5 28.5q27 6 59.5 4t57.5 -19q23 -16 31 -45.5t10 -58.5l-51 -18q-4 29 -13.5 56.5t-39.5 33.5q-23 4 -40.5 -7.5t-21.5 -35.5q-6 -18 0 -35 t18.5 -31t28 -25.5t27.5 -23.5q33 -29 60.5 -57.5t35.5 -73.5q14 -55 -17.5 -100t-90.5 -45q-61 0 -92 38.5t-35 98.5zM1434 -774l4 244h35l43 -195l43 195h34l2 -244h-22l-4 180l-43 -180h-23l-37 180l-4 -180h-28zM1444 -225q23 0 46 2t44 -8q14 -8 22.5 -25.5t9.5 -36 t-6.5 -34t-25.5 -21.5l37 -121h-35l-35 113h-24v-113h-33v244zM1464 -156h76l150 660h-84zM1468 557v248h62t53 -25q8 -23 6 -51.5t-18 -42.5q-16 -12 -33.5 -13t-36.5 -1v-115h-33zM1477 -250v-82q23 0 39 7.5t16 35.5q0 29 -16.5 34t-38.5 5zM1501 696h18.5t20.5 4 q12 6 14 18.5t2 26.5q-2 29 -17 33t-38 4v-86zM1595 1466v482q47 0 97.5 1t91.5 -22q25 -16 39 -48t14 -66.5t-14.5 -64.5t-42.5 -40l63 -242h-63l-64 228h-51v-228h-70zM1614 557v248h31v-223h63v-25h-94zM1620 92q0 -45 6 -96t51 -80q25 -16 47.5 -17t51.5 9q35 10 52 41 t23 65q4 37 3 76t-1 78v260h-90v-311q0 -25 1 -56.5t-5 -58.5q-16 -23 -30.5 -20.5t-18.5 30.5q-4 18 -3 38t1 42h-88zM1634 -530h97v-21h-62v-80h51v-26h-51v-93h62v-24h-97v244zM1651 -225h125v-25h-45v-219h-35v219h-45v25zM1665 1741h32.5t35.5 4q23 10 29.5 31.5 t2.5 48.5q0 23 -5 39t-27 26q-16 8 -35 7t-33 -1v-155zM1681 922v477h187v-51h-119v-156h96v-49h-96v-178h119v-43h-187zM1733 557v248h94v-23h-64v-84h54v-24h-54v-92h64v-25h-94zM1755 -530q25 0 49.5 2t44.5 -9q14 -8 21.5 -24.5t7.5 -34.5t-8 -33.5t-23 -21.5l35 -123 h-33l-28 117h-27v-117h-39v244zM1792 -225h31v-107h63v107h37v-244h-37v113h-63v-113h-31v244zM1794 -551v-80q23 0 37 5t14 34q0 25 -14 33t-37 8zM1843 557l53 248h33l53 -248h-36l-11 66h-51l-10 -66h-31zM1866 -90h88l20 125h58l16 -125h88l-92 526h-82zM1886 645h45 l-18 113zM1886 1599l62 17q4 -23 8 -46.5t18 -37.5q16 -16 39 -18.5t39 12.5q18 16 17 44.5t-15 51.5q-12 20 -53 51q-23 20 -48.5 42t-41.5 46q-16 25 -20.5 54.5t1.5 55t23.5 46t46.5 29.5q27 6 59.5 3t55.5 -20q25 -16 33 -45t10 -57l-52 -17q-4 25 -13 53.5t-40 37.5 q-23 2 -41 -9.5t-22 -31.5t2 -38t18.5 -32t27.5 -26.5t30 -22.5q31 -29 59.5 -58.5t38.5 -70.5q10 -59 -21 -104.5t-92 -45.5q-59 0 -93 40t-36 97zM1911 -658.5q2 29.5 2 52.5q0 33 15.5 57.5t56.5 20.5q39 -4 47 -30t8 -54h-37q0 10 2 21t-4 22q-4 16 -21.5 18t-27.5 -14 q-12 -12 -10 -41t2 -47q0 -14 -2.5 -41t12.5 -43q8 -14 25.5 -11t21.5 19q6 10 4 22.5t-2 22.5h37q0 -31 -10.5 -61.5t-55.5 -30.5q-33 0 -46 18.5t-16 44t-1 55zM1960 -225h94v-25h-59v-82h51v-24h-51v-93h59v-20h-94v244zM1987 113l16 104l14 -104h-30zM1997 627l33 10 q0 -12 4 -28.5t16 -24.5q16 -4 27.5 5t11.5 23q0 25 -21.5 44.5t-37.5 35.5q-23 18 -31 49t18 56q14 8 32.5 9t33.5 -3q18 -8 25.5 -25.5t9.5 -34.5l-29 -6q-2 10 -5 22.5t-13 22.5q-12 4 -23.5 0t-15.5 -20q-6 -16 8 -32.5t24 -29.5q16 -12 33 -27.5t21 -37.5 q10 -29 -6.5 -54.5t-49.5 -25.5q-29 0 -46 20.5t-19 51.5zM2048 1217.5q-2 54.5 8 101.5q12 43 43 62.5t72 19.5q43 2 78 -12.5t49 -55.5q18 -47 14 -103t-4 -104q0 -33 1 -58.5t-5 -53.5q-19 -96 -125 -96q-51 0 -84 25.5t-43 74.5q-4 25 -3 48.5t1 49.5q0 47 -2 101.5z M2073 -530h34v-244h-34v244zM2114 1231q2 -41 2 -76v-86q0 -25 2.5 -53.5t27.5 -42.5q14 -8 33 -8t29 8q18 10 25.5 27.5t11.5 35.5q2 10 1 24.5t-1 24.5v170q0 20 -2 42t-19 38q-27 27 -59 17q-33 -8 -47 -45q-6 -35 -4 -76zM2132 -774l51 244h35l51 -244h-31l-10 63h-53 l-10 -63h-33zM2145 91q-1 -40 3 -77q2 -41 20.5 -67.5t43 -38.5t54.5 -10t56 18q45 29 51.5 80t6.5 96h-88q0 -23 1 -42t-3 -38q-4 -18 -23.5 -26.5t-25.5 16.5q-6 27 -5.5 58.5t0.5 56.5v108q0 25 -1 56.5t6 58.5q8 23 26.5 21.5t22.5 -31.5q4 -18 3 -38t-1 -42h88 q2 41 -6.5 80t-26.5 66.5t-48 40t-75 -2.5q-35 -10 -52.5 -41t-23.5 -65q-4 -37 -3 -76t1 -78q0 -43 -1 -83zM2146 557v248h99v-23h-64v-84h51v-24h-51v-92h66v-25h-101zM2157 -225h92v-25h-66v-82h49v-24h-49v-113h-26v244zM2171 1764.5q-2 56.5 10 103.5q12 41 44 60.5 t71 21.5q41 2 76.5 -14.5t50.5 -57.5q16 -45 15 -101.5t-1 -105.5q0 -29 -1 -56.5t-7 -53.5q-23 -99 -125 -99q-109 0 -127 107q-4 23 -4 45v45q0 49 -2 105.5zM2179 -688h43l-20 113zM2241 1778.5q4 -41.5 4 -76.5v-88q0 -25 1.5 -53.5t30.5 -42.5q27 -10 60 0 q20 10 25 27.5t8 33.5v223q0 20 -2.5 42t-18.5 36q-10 16 -25.5 18.5t-31.5 -2.5q-35 -2 -45 -41q-10 -35 -6 -76.5zM2267 -383.5q2 14.5 2 27.5v131h31v-109q0 -10 -1 -29.5t1 -38t9 -33t24 -14.5q16 0 24 14.5t11.5 33t2.5 38t-1 29.5v109h28v-111q0 -16 1 -35.5t-1 -39 t-9.5 -36t-25.5 -22.5q-35 -10 -60.5 5t-33.5 50q-4 16 -2 30.5zM2296 -530h31v-220h65v-24h-96v244zM2327 805h36l35 -180l39 180h27l-51 -248h-31zM2376 922v477h45l135 -320v320h59v-477h-45l-139 325v-325h-55zM2415 -90h88v221h16l53 -221h88l-71 262l71 264h-88 l-53 -221h-16v221h-88v-526zM2437 -225h33v-224h61v-20h-94v244zM2472 -530h31l41 -179l32 179h35l-57 -244h-27zM2494 557v248h33v-248h-33zM2503 1466v482h45l133 -320v320h57v-482h-43l-139 326v-326h-53zM2554 -225h35v-224h61v-20h-96v244zM2560 627l33 10 q0 -12 5 -28.5t17 -24.5q16 -4 25.5 5t9.5 23q2 25 -19.5 44.5t-37.5 35.5q-23 18 -32 49t17 56q35 16 68 6q16 -8 23.5 -25.5t9.5 -34.5l-29 -6q-2 10 -5 22.5t-13 22.5q-10 4 -21.5 0t-13.5 -20q-12 -16 4 -32.5t29 -29.5q14 -12 29.5 -27.5t19.5 -37.5q10 -29 -5.5 -54.5 t-50.5 -25.5q-33 0 -47 20.5t-16 51.5zM2636 -530h98v-21h-63v-80h51v-26h-51v-93h63v-24h-98v244zM2650 119h131v94h-131v-94zM2689 922v477h66v-434h120v-43h-186zM2710 557v248h36v-248h-36zM2734 -469l47 244h37l51 -244h-33l-12 61h-49l-14 -61h-27zM2759 -530 q23 0 47 2t47 -9q12 -8 20.5 -24.5t8.5 -34.5t-7.5 -33.5t-21.5 -21.5l31 -123h-31l-31 117h-29v-117h-34v244zM2767 782v23h119v-23h-41v-225h-31v225h-47zM2779 -383h43l-22 111zM2787 1466l101 482h65l101 -482h-62l-24 119h-97l-22 -119h-62zM2793 -551v-80q23 0 39.5 5 t16.5 34q0 25 -16.5 33t-39.5 8zM2828 -90h88v184h31q70 0 105.5 53.5t35.5 118t-36.5 117.5t-112.5 53h-111v-526zM2879 1634h82l-41 219zM2894 -225h20l72 -162v162h27v-244h-21l-70 164v-164h-28v244zM2894 1399h61l72 -230l70 230h65q-16 -49 -32.5 -98.5t-32.5 -100.5 l-33 -98q-6 -16 -5 -32.5t1 -29.5v-118h-66v98q0 18 2 36.5t-2 35.5q-4 27 -13 48t-20 44zM2908 -705l33 9q0 -12 4 -27.5t16 -19.5q18 -10 28.5 -1t10.5 23q0 25 -21.5 44.5t-37.5 31.5q-23 23 -31 54.5t21 51.5q14 10 33.5 12.5t31.5 -5.5q16 -4 23.5 -21.5t9.5 -34.5 l-29 -10q-2 12 -4 24.5t-12 22.5q-33 8 -41 -18q-8 -18 7.5 -32.5t29.5 -27.5q14 -16 29.5 -31.5t19.5 -37.5q10 -29 -6 -53.5t-47 -24.5q-33 0 -48.5 21.5t-19.5 49.5zM2916 172v188h11q37 0 54 -29.5t18 -64.5t-15 -64.5t-49 -29.5h-19zM3054 -225q23 0 53.5 1t52.5 -18 q23 -18 20.5 -50t-2.5 -56q0 -25 1.5 -58.5t-27.5 -50.5q-18 -16 -46.5 -14t-51.5 2v244zM3062 -530h30v-244h-30v244zM3086 -250v-199q23 0 38.5 4.5t19.5 30.5v129q-2 27 -18.5 31t-39.5 4zM3105 1466v482h65v-435h123v-47h-188zM3119 -90h88v526h-88v-526zM3129 -645 q0 23 1 45t8.5 38.5t22.5 26t44 7.5q27 -2 38 -14.5t15 -31t3 -40t-1 -39.5v-40t-5 -40.5t-18 -30.5t-40 -12q-29 0 -43 13t-19.5 32.5t-5.5 43v42.5zM3164 -692.5q0 -18.5 3.5 -32.5t13.5 -16q20 -12 30.5 -5t15.5 21t5 32.5v30.5q0 8 1 24.5t-1 32t-6 29t-13 17.5 q-25 16 -35 0t-10 -35v-37q0 -10 -2 -26.5t-2 -35zM3199 922v67h61v-67h-61zM3199 1399h61l-20 -375h-23zM3256 -90h88v227h43l47 -227h89l-60 246q37 23 49.5 64.5t12.5 80.5q0 72 -32 103.5t-63 31.5h-174v-526zM3301 -530h21l72 -162v162h26v-244h-22l-72 168v-168h-25 v244zM3344 215v145h50q20 0 30 -20.5t11.5 -47t-5 -49t-18.5 -28.5h-68zM3545 -90h88l21 125h57l16 -125h88l-92 526h-82zM3666 113l16 104l15 -104h-31zM3789 356h84v-446h88v446h86v80h-258v-80zM4082 -90h194v80h-106v166h84v80h-84v120h106v80h-194v-526z" />
<glyph unicode="1" horiz-adv-x="4378" d="M111 -90h82l2 215l41 -215h61l43 217l4 -217h76l-4 526h-90l-62 -330l-59 330h-86zM487 -90h82v258l93 -258h65v526h-82v-252l-90 252h-68v-526zM784 8v-98h88v98h-88zM909 94q0 -35 3 -65.5t18 -61.5q16 -37 52 -53t75 -8q41 8 64.5 38.5t27.5 65.5q12 98 -62 174 l-43 47q-14 14 -27 26.5t-20 35.5q-6 16 -1 44t32 25q14 -2 20.5 -14t9.5 -27.5t4 -32t1 -28.5l82 4q0 49 -10.5 98.5t-57.5 69.5q-29 12 -57.5 10t-52 -14t-39 -35.5t-17.5 -54.5q-4 -31 1.5 -63.5t23.5 -57.5q6 -16 19.5 -26.5t25.5 -24.5q25 -29 53.5 -60.5t28.5 -72.5 q0 -16 -3 -29.5t-18 -15.5q-12 -4 -20 2t-12 16q-12 23 -14.5 46.5t-4.5 47.5zM910 -658.5q1 29.5 1 52.5q0 33 17.5 57.5t58.5 20.5q37 -4 45 -30t8 -54h-32q0 10 1 21t-5 22q-4 16 -22.5 18t-27.5 -14q-12 -12 -9 -41t3 -47q0 -14 -3 -41t11 -43q6 -14 24.5 -11t23.5 19 q6 10 5 22.5t-1 22.5h32q0 -31 -10 -61.5t-53 -30.5q-31 0 -45 18.5t-18.5 44t-3.5 55zM1067 -645q0 23 1 45t8 38.5t22.5 26t44.5 7.5q25 -2 38 -14.5t18 -31t5 -40v-39.5v-40t-6 -40.5t-20 -30.5t-41 -12q-31 0 -45.5 13t-19.5 32.5t-5 43v42.5zM1073 1466v482h101 q37 0 68.5 -8.5t49.5 -45.5q10 -20 15.5 -45.5t3.5 -50t-12.5 -47t-28.5 -37.5q-27 -23 -64 -22.5t-67 0.5v-226h-66zM1077 1102v297h64v-320q0 -27 4 -61.5t35 -50.5q27 -8 44 0t26.5 24.5t13.5 38t4 41.5q2 41 1 77t-1 77v174h67v-219q0 -31 1 -70t-4 -76t-22.5 -67.5 t-54.5 -42.5q-43 -16 -94 -2t-69 65q-10 25 -12.5 52.5t-2.5 62.5zM1102 -692.5q0 -18.5 3 -32.5t13 -16q20 -12 30.5 -5t14.5 21t4 32.5v30.5q0 8 1 24.5t0 32t-4 29t-11 17.5q-27 16 -38 0t-11 -35q-2 -10 -1 -19.5t1 -17.5q0 -10 -1 -26.5t-1 -35zM1139 1741 q16 0 32.5 -1t36.5 3q25 6 32 25.5t7 41.5q2 27 -4 51.5t-35 32.5q-20 4 -36.5 3t-32.5 -1v-155zM1161 -225h94v-25h-57v-82h45v-24h-45v-113h-37v244zM1189 101.5q-1 -35.5 3 -72.5q4 -31 15.5 -63t39.5 -46q27 -18 66 -17t61 23l2 -16h70v274h-137v-78h53v-33.5t-4 -45 t-15.5 -34.5t-33.5 -5q-14 4 -20.5 18t-8.5 31.5t-1 35t1 27.5v125q0 25 -1 56.5t5 58.5q6 10 17.5 17.5t23.5 4.5q27 -8 29 -32q4 -18 3 -38t-1 -42h88q0 45 -6 96t-52 80q-25 16 -57.5 17t-60.5 -9q-35 -10 -52.5 -41t-23.5 -65q-4 -37 -3 -76t1 -78q0 -37 -1 -72.5z M1235 -774l4 244h37l43 -195l41 195h33l4 -244h-27l-2 180l-41 -180h-22l-39 180l-2 -180h-29zM1276 -338q0 20 1 42t8 38t21.5 26.5t43.5 8.5q25 -2 37 -14.5t18 -31t6 -40v-39.5t-1 -41t-7 -41.5t-19.5 -30.5t-40.5 -12q-29 0 -43 13.5t-19 33.5t-5 44v44zM1307 -392.5 q0 -17.5 4 -32.5t16 -19q20 -10 29.5 -2t13.5 23t4 33.5v31.5q0 8 1 24.5t1 32.5t-4 29.5t-12 19.5q-23 12 -37 -4t-14 -37v-39q0 -8 -1 -25.5t-1 -35zM1358 1466v482h184v-52h-119v-155h97v-49h-97v-179h121v-47h-186zM1389 1055l63 16q2 -23 5 -45t18 -39q16 -18 38.5 -20 t38.5 14q20 16 18.5 45t-16.5 47q-10 14 -23 28.5t-30 24.5q-23 23 -49.5 44.5t-42.5 48.5q-14 23 -18.5 50t3 54t24 47.5t44.5 28.5q27 6 59.5 4t57.5 -19q23 -16 31 -45.5t10 -58.5l-51 -18q-4 29 -13.5 56.5t-39.5 33.5q-23 4 -40.5 -7.5t-21.5 -35.5q-6 -18 0 -35 t18.5 -31t28 -25.5t27.5 -23.5q33 -29 60.5 -57.5t35.5 -73.5q14 -55 -17.5 -100t-90.5 -45q-61 0 -92 38.5t-35 98.5zM1434 -774l4 244h35l43 -195l43 195h34l2 -244h-22l-4 180l-43 -180h-23l-37 180l-4 -180h-28zM1444 -225q23 0 46 2t44 -8q14 -8 22.5 -25.5t9.5 -36 t-6.5 -34t-25.5 -21.5l37 -121h-35l-35 113h-24v-113h-33v244zM1464 -156h76l150 660h-84zM1468 557v248h62t53 -25q8 -23 6 -51.5t-18 -42.5q-16 -12 -33.5 -13t-36.5 -1v-115h-33zM1477 -250v-82q23 0 39 7.5t16 35.5q0 29 -16.5 34t-38.5 5zM1501 696h18.5t20.5 4 q12 6 14 18.5t2 26.5q-2 29 -17 33t-38 4v-86zM1595 1466v482q47 0 97.5 1t91.5 -22q25 -16 39 -48t14 -66.5t-14.5 -64.5t-42.5 -40l63 -242h-63l-64 228h-51v-228h-70zM1614 557v248h31v-223h63v-25h-94zM1620 92q0 -45 6 -96t51 -80q25 -16 47.5 -17t51.5 9q35 10 52 41 t23 65q4 37 3 76t-1 78v260h-90v-311q0 -25 1 -56.5t-5 -58.5q-16 -23 -30.5 -20.5t-18.5 30.5q-4 18 -3 38t1 42h-88zM1634 -530h97v-21h-62v-80h51v-26h-51v-93h62v-24h-97v244zM1651 -225h125v-25h-45v-219h-35v219h-45v25zM1665 1741h32.5t35.5 4q23 10 29.5 31.5 t2.5 48.5q0 23 -5 39t-27 26q-16 8 -35 7t-33 -1v-155zM1681 922v477h187v-51h-119v-156h96v-49h-96v-178h119v-43h-187zM1733 557v248h94v-23h-64v-84h54v-24h-54v-92h64v-25h-94zM1755 -530q25 0 49.5 2t44.5 -9q14 -8 21.5 -24.5t7.5 -34.5t-8 -33.5t-23 -21.5l35 -123 h-33l-28 117h-27v-117h-39v244zM1792 -225h31v-107h63v107h37v-244h-37v113h-63v-113h-31v244zM1794 -551v-80q23 0 37 5t14 34q0 25 -14 33t-37 8zM1843 557l53 248h33l53 -248h-36l-11 66h-51l-10 -66h-31zM1866 -90h88l20 125h58l16 -125h88l-92 526h-82zM1886 645h45 l-18 113zM1886 1599l62 17q4 -23 8 -46.5t18 -37.5q16 -16 39 -18.5t39 12.5q18 16 17 44.5t-15 51.5q-12 20 -53 51q-23 20 -48.5 42t-41.5 46q-16 25 -20.5 54.5t1.5 55t23.5 46t46.5 29.5q27 6 59.5 3t55.5 -20q25 -16 33 -45t10 -57l-52 -17q-4 25 -13 53.5t-40 37.5 q-23 2 -41 -9.5t-22 -31.5t2 -38t18.5 -32t27.5 -26.5t30 -22.5q31 -29 59.5 -58.5t38.5 -70.5q10 -59 -21 -104.5t-92 -45.5q-59 0 -93 40t-36 97zM1911 -658.5q2 29.5 2 52.5q0 33 15.5 57.5t56.5 20.5q39 -4 47 -30t8 -54h-37q0 10 2 21t-4 22q-4 16 -21.5 18t-27.5 -14 q-12 -12 -10 -41t2 -47q0 -14 -2.5 -41t12.5 -43q8 -14 25.5 -11t21.5 19q6 10 4 22.5t-2 22.5h37q0 -31 -10.5 -61.5t-55.5 -30.5q-33 0 -46 18.5t-16 44t-1 55zM1960 -225h94v-25h-59v-82h51v-24h-51v-93h59v-20h-94v244zM1987 113l16 104l14 -104h-30zM1997 627l33 10 q0 -12 4 -28.5t16 -24.5q16 -4 27.5 5t11.5 23q0 25 -21.5 44.5t-37.5 35.5q-23 18 -31 49t18 56q14 8 32.5 9t33.5 -3q18 -8 25.5 -25.5t9.5 -34.5l-29 -6q-2 10 -5 22.5t-13 22.5q-12 4 -23.5 0t-15.5 -20q-6 -16 8 -32.5t24 -29.5q16 -12 33 -27.5t21 -37.5 q10 -29 -6.5 -54.5t-49.5 -25.5q-29 0 -46 20.5t-19 51.5zM2048 1217.5q-2 54.5 8 101.5q12 43 43 62.5t72 19.5q43 2 78 -12.5t49 -55.5q18 -47 14 -103t-4 -104q0 -33 1 -58.5t-5 -53.5q-19 -96 -125 -96q-51 0 -84 25.5t-43 74.5q-4 25 -3 48.5t1 49.5q0 47 -2 101.5z M2073 -530h34v-244h-34v244zM2114 1231q2 -41 2 -76v-86q0 -25 2.5 -53.5t27.5 -42.5q14 -8 33 -8t29 8q18 10 25.5 27.5t11.5 35.5q2 10 1 24.5t-1 24.5v170q0 20 -2 42t-19 38q-27 27 -59 17q-33 -8 -47 -45q-6 -35 -4 -76zM2132 -774l51 244h35l51 -244h-31l-10 63h-53 l-10 -63h-33zM2145 91q-1 -40 3 -77q2 -41 20.5 -67.5t43 -38.5t54.5 -10t56 18q45 29 51.5 80t6.5 96h-88q0 -23 1 -42t-3 -38q-4 -18 -23.5 -26.5t-25.5 16.5q-6 27 -5.5 58.5t0.5 56.5v108q0 25 -1 56.5t6 58.5q8 23 26.5 21.5t22.5 -31.5q4 -18 3 -38t-1 -42h88 q2 41 -6.5 80t-26.5 66.5t-48 40t-75 -2.5q-35 -10 -52.5 -41t-23.5 -65q-4 -37 -3 -76t1 -78q0 -43 -1 -83zM2146 557v248h99v-23h-64v-84h51v-24h-51v-92h66v-25h-101zM2157 -225h92v-25h-66v-82h49v-24h-49v-113h-26v244zM2171 1764.5q-2 56.5 10 103.5q12 41 44 60.5 t71 21.5q41 2 76.5 -14.5t50.5 -57.5q16 -45 15 -101.5t-1 -105.5q0 -29 -1 -56.5t-7 -53.5q-23 -99 -125 -99q-109 0 -127 107q-4 23 -4 45v45q0 49 -2 105.5zM2179 -688h43l-20 113zM2241 1778.5q4 -41.5 4 -76.5v-88q0 -25 1.5 -53.5t30.5 -42.5q27 -10 60 0 q20 10 25 27.5t8 33.5v223q0 20 -2.5 42t-18.5 36q-10 16 -25.5 18.5t-31.5 -2.5q-35 -2 -45 -41q-10 -35 -6 -76.5zM2267 -383.5q2 14.5 2 27.5v131h31v-109q0 -10 -1 -29.5t1 -38t9 -33t24 -14.5q16 0 24 14.5t11.5 33t2.5 38t-1 29.5v109h28v-111q0 -16 1 -35.5t-1 -39 t-9.5 -36t-25.5 -22.5q-35 -10 -60.5 5t-33.5 50q-4 16 -2 30.5zM2296 -530h31v-220h65v-24h-96v244zM2327 805h36l35 -180l39 180h27l-51 -248h-31zM2376 922v477h45l135 -320v320h59v-477h-45l-139 325v-325h-55zM2415 -90h88v221h16l53 -221h88l-71 262l71 264h-88 l-53 -221h-16v221h-88v-526zM2437 -225h33v-224h61v-20h-94v244zM2472 -530h31l41 -179l32 179h35l-57 -244h-27zM2494 557v248h33v-248h-33zM2503 1466v482h45l133 -320v320h57v-482h-43l-139 326v-326h-53zM2554 -225h35v-224h61v-20h-96v244zM2560 627l33 10 q0 -12 5 -28.5t17 -24.5q16 -4 25.5 5t9.5 23q2 25 -19.5 44.5t-37.5 35.5q-23 18 -32 49t17 56q35 16 68 6q16 -8 23.5 -25.5t9.5 -34.5l-29 -6q-2 10 -5 22.5t-13 22.5q-10 4 -21.5 0t-13.5 -20q-12 -16 4 -32.5t29 -29.5q14 -12 29.5 -27.5t19.5 -37.5q10 -29 -5.5 -54.5 t-50.5 -25.5q-33 0 -47 20.5t-16 51.5zM2636 -530h98v-21h-63v-80h51v-26h-51v-93h63v-24h-98v244zM2650 119h131v94h-131v-94zM2689 922v477h66v-434h120v-43h-186zM2710 557v248h36v-248h-36zM2734 -469l47 244h37l51 -244h-33l-12 61h-49l-14 -61h-27zM2759 -530 q23 0 47 2t47 -9q12 -8 20.5 -24.5t8.5 -34.5t-7.5 -33.5t-21.5 -21.5l31 -123h-31l-31 117h-29v-117h-34v244zM2767 782v23h119v-23h-41v-225h-31v225h-47zM2779 -383h43l-22 111zM2787 1466l101 482h65l101 -482h-62l-24 119h-97l-22 -119h-62zM2793 -551v-80q23 0 39.5 5 t16.5 34q0 25 -16.5 33t-39.5 8zM2828 -90h88v184h31q70 0 105.5 53.5t35.5 118t-36.5 117.5t-112.5 53h-111v-526zM2879 1634h82l-41 219zM2894 -225h20l72 -162v162h27v-244h-21l-70 164v-164h-28v244zM2894 1399h61l72 -230l70 230h65q-16 -49 -32.5 -98.5t-32.5 -100.5 l-33 -98q-6 -16 -5 -32.5t1 -29.5v-118h-66v98q0 18 2 36.5t-2 35.5q-4 27 -13 48t-20 44zM2908 -705l33 9q0 -12 4 -27.5t16 -19.5q18 -10 28.5 -1t10.5 23q0 25 -21.5 44.5t-37.5 31.5q-23 23 -31 54.5t21 51.5q14 10 33.5 12.5t31.5 -5.5q16 -4 23.5 -21.5t9.5 -34.5 l-29 -10q-2 12 -4 24.5t-12 22.5q-33 8 -41 -18q-8 -18 7.5 -32.5t29.5 -27.5q14 -16 29.5 -31.5t19.5 -37.5q10 -29 -6 -53.5t-47 -24.5q-33 0 -48.5 21.5t-19.5 49.5zM2916 172v188h11q37 0 54 -29.5t18 -64.5t-15 -64.5t-49 -29.5h-19zM3054 -225q23 0 53.5 1t52.5 -18 q23 -18 20.5 -50t-2.5 -56q0 -25 1.5 -58.5t-27.5 -50.5q-18 -16 -46.5 -14t-51.5 2v244zM3062 -530h30v-244h-30v244zM3086 -250v-199q23 0 38.5 4.5t19.5 30.5v129q-2 27 -18.5 31t-39.5 4zM3105 1466v482h65v-435h123v-47h-188zM3119 -90h88v526h-88v-526zM3129 -645 q0 23 1 45t8.5 38.5t22.5 26t44 7.5q27 -2 38 -14.5t15 -31t3 -40t-1 -39.5v-40t-5 -40.5t-18 -30.5t-40 -12q-29 0 -43 13t-19.5 32.5t-5.5 43v42.5zM3164 -692.5q0 -18.5 3.5 -32.5t13.5 -16q20 -12 30.5 -5t15.5 21t5 32.5v30.5q0 8 1 24.5t-1 32t-6 29t-13 17.5 q-25 16 -35 0t-10 -35v-37q0 -10 -2 -26.5t-2 -35zM3199 922v67h61v-67h-61zM3199 1399h61l-20 -375h-23zM3256 -90h88v227h43l47 -227h89l-60 246q37 23 49.5 64.5t12.5 80.5q0 72 -32 103.5t-63 31.5h-174v-526zM3301 -530h21l72 -162v162h26v-244h-22l-72 168v-168h-25 v244zM3344 215v145h50q20 0 30 -20.5t11.5 -47t-5 -49t-18.5 -28.5h-68zM3545 -90h88l21 125h57l16 -125h88l-92 526h-82zM3666 113l16 104l15 -104h-31zM3789 356h84v-446h88v446h86v80h-258v-80zM4082 -90h194v80h-106v166h84v80h-84v120h106v80h-194v-526z" />
<glyph unicode="2" horiz-adv-x="4378" d="M111 -90h82l2 215l41 -215h61l43 217l4 -217h76l-4 526h-90l-62 -330l-59 330h-86zM487 -90h82v258l93 -258h65v526h-82v-252l-90 252h-68v-526zM784 8v-98h88v98h-88zM909 94q0 -35 3 -65.5t18 -61.5q16 -37 52 -53t75 -8q41 8 64.5 38.5t27.5 65.5q12 98 -62 174 l-43 47q-14 14 -27 26.5t-20 35.5q-6 16 -1 44t32 25q14 -2 20.5 -14t9.5 -27.5t4 -32t1 -28.5l82 4q0 49 -10.5 98.5t-57.5 69.5q-29 12 -57.5 10t-52 -14t-39 -35.5t-17.5 -54.5q-4 -31 1.5 -63.5t23.5 -57.5q6 -16 19.5 -26.5t25.5 -24.5q25 -29 53.5 -60.5t28.5 -72.5 q0 -16 -3 -29.5t-18 -15.5q-12 -4 -20 2t-12 16q-12 23 -14.5 46.5t-4.5 47.5zM910 -658.5q1 29.5 1 52.5q0 33 17.5 57.5t58.5 20.5q37 -4 45 -30t8 -54h-32q0 10 1 21t-5 22q-4 16 -22.5 18t-27.5 -14q-12 -12 -9 -41t3 -47q0 -14 -3 -41t11 -43q6 -14 24.5 -11t23.5 19 q6 10 5 22.5t-1 22.5h32q0 -31 -10 -61.5t-53 -30.5q-31 0 -45 18.5t-18.5 44t-3.5 55zM1067 -645q0 23 1 45t8 38.5t22.5 26t44.5 7.5q25 -2 38 -14.5t18 -31t5 -40v-39.5v-40t-6 -40.5t-20 -30.5t-41 -12q-31 0 -45.5 13t-19.5 32.5t-5 43v42.5zM1073 1466v482h101 q37 0 68.5 -8.5t49.5 -45.5q10 -20 15.5 -45.5t3.5 -50t-12.5 -47t-28.5 -37.5q-27 -23 -64 -22.5t-67 0.5v-226h-66zM1077 1102v297h64v-320q0 -27 4 -61.5t35 -50.5q27 -8 44 0t26.5 24.5t13.5 38t4 41.5q2 41 1 77t-1 77v174h67v-219q0 -31 1 -70t-4 -76t-22.5 -67.5 t-54.5 -42.5q-43 -16 -94 -2t-69 65q-10 25 -12.5 52.5t-2.5 62.5zM1102 -692.5q0 -18.5 3 -32.5t13 -16q20 -12 30.5 -5t14.5 21t4 32.5v30.5q0 8 1 24.5t0 32t-4 29t-11 17.5q-27 16 -38 0t-11 -35q-2 -10 -1 -19.5t1 -17.5q0 -10 -1 -26.5t-1 -35zM1139 1741 q16 0 32.5 -1t36.5 3q25 6 32 25.5t7 41.5q2 27 -4 51.5t-35 32.5q-20 4 -36.5 3t-32.5 -1v-155zM1161 -225h94v-25h-57v-82h45v-24h-45v-113h-37v244zM1189 101.5q-1 -35.5 3 -72.5q4 -31 15.5 -63t39.5 -46q27 -18 66 -17t61 23l2 -16h70v274h-137v-78h53v-33.5t-4 -45 t-15.5 -34.5t-33.5 -5q-14 4 -20.5 18t-8.5 31.5t-1 35t1 27.5v125q0 25 -1 56.5t5 58.5q6 10 17.5 17.5t23.5 4.5q27 -8 29 -32q4 -18 3 -38t-1 -42h88q0 45 -6 96t-52 80q-25 16 -57.5 17t-60.5 -9q-35 -10 -52.5 -41t-23.5 -65q-4 -37 -3 -76t1 -78q0 -37 -1 -72.5z M1235 -774l4 244h37l43 -195l41 195h33l4 -244h-27l-2 180l-41 -180h-22l-39 180l-2 -180h-29zM1276 -338q0 20 1 42t8 38t21.5 26.5t43.5 8.5q25 -2 37 -14.5t18 -31t6 -40v-39.5t-1 -41t-7 -41.5t-19.5 -30.5t-40.5 -12q-29 0 -43 13.5t-19 33.5t-5 44v44zM1307 -392.5 q0 -17.5 4 -32.5t16 -19q20 -10 29.5 -2t13.5 23t4 33.5v31.5q0 8 1 24.5t1 32.5t-4 29.5t-12 19.5q-23 12 -37 -4t-14 -37v-39q0 -8 -1 -25.5t-1 -35zM1358 1466v482h184v-52h-119v-155h97v-49h-97v-179h121v-47h-186zM1389 1055l63 16q2 -23 5 -45t18 -39q16 -18 38.5 -20 t38.5 14q20 16 18.5 45t-16.5 47q-10 14 -23 28.5t-30 24.5q-23 23 -49.5 44.5t-42.5 48.5q-14 23 -18.5 50t3 54t24 47.5t44.5 28.5q27 6 59.5 4t57.5 -19q23 -16 31 -45.5t10 -58.5l-51 -18q-4 29 -13.5 56.5t-39.5 33.5q-23 4 -40.5 -7.5t-21.5 -35.5q-6 -18 0 -35 t18.5 -31t28 -25.5t27.5 -23.5q33 -29 60.5 -57.5t35.5 -73.5q14 -55 -17.5 -100t-90.5 -45q-61 0 -92 38.5t-35 98.5zM1434 -774l4 244h35l43 -195l43 195h34l2 -244h-22l-4 180l-43 -180h-23l-37 180l-4 -180h-28zM1444 -225q23 0 46 2t44 -8q14 -8 22.5 -25.5t9.5 -36 t-6.5 -34t-25.5 -21.5l37 -121h-35l-35 113h-24v-113h-33v244zM1464 -156h76l150 660h-84zM1468 557v248h62t53 -25q8 -23 6 -51.5t-18 -42.5q-16 -12 -33.5 -13t-36.5 -1v-115h-33zM1477 -250v-82q23 0 39 7.5t16 35.5q0 29 -16.5 34t-38.5 5zM1501 696h18.5t20.5 4 q12 6 14 18.5t2 26.5q-2 29 -17 33t-38 4v-86zM1595 1466v482q47 0 97.5 1t91.5 -22q25 -16 39 -48t14 -66.5t-14.5 -64.5t-42.5 -40l63 -242h-63l-64 228h-51v-228h-70zM1614 557v248h31v-223h63v-25h-94zM1620 92q0 -45 6 -96t51 -80q25 -16 47.5 -17t51.5 9q35 10 52 41 t23 65q4 37 3 76t-1 78v260h-90v-311q0 -25 1 -56.5t-5 -58.5q-16 -23 -30.5 -20.5t-18.5 30.5q-4 18 -3 38t1 42h-88zM1634 -530h97v-21h-62v-80h51v-26h-51v-93h62v-24h-97v244zM1651 -225h125v-25h-45v-219h-35v219h-45v25zM1665 1741h32.5t35.5 4q23 10 29.5 31.5 t2.5 48.5q0 23 -5 39t-27 26q-16 8 -35 7t-33 -1v-155zM1681 922v477h187v-51h-119v-156h96v-49h-96v-178h119v-43h-187zM1733 557v248h94v-23h-64v-84h54v-24h-54v-92h64v-25h-94zM1755 -530q25 0 49.5 2t44.5 -9q14 -8 21.5 -24.5t7.5 -34.5t-8 -33.5t-23 -21.5l35 -123 h-33l-28 117h-27v-117h-39v244zM1792 -225h31v-107h63v107h37v-244h-37v113h-63v-113h-31v244zM1794 -551v-80q23 0 37 5t14 34q0 25 -14 33t-37 8zM1843 557l53 248h33l53 -248h-36l-11 66h-51l-10 -66h-31zM1866 -90h88l20 125h58l16 -125h88l-92 526h-82zM1886 645h45 l-18 113zM1886 1599l62 17q4 -23 8 -46.5t18 -37.5q16 -16 39 -18.5t39 12.5q18 16 17 44.5t-15 51.5q-12 20 -53 51q-23 20 -48.5 42t-41.5 46q-16 25 -20.5 54.5t1.5 55t23.5 46t46.5 29.5q27 6 59.5 3t55.5 -20q25 -16 33 -45t10 -57l-52 -17q-4 25 -13 53.5t-40 37.5 q-23 2 -41 -9.5t-22 -31.5t2 -38t18.5 -32t27.5 -26.5t30 -22.5q31 -29 59.5 -58.5t38.5 -70.5q10 -59 -21 -104.5t-92 -45.5q-59 0 -93 40t-36 97zM1911 -658.5q2 29.5 2 52.5q0 33 15.5 57.5t56.5 20.5q39 -4 47 -30t8 -54h-37q0 10 2 21t-4 22q-4 16 -21.5 18t-27.5 -14 q-12 -12 -10 -41t2 -47q0 -14 -2.5 -41t12.5 -43q8 -14 25.5 -11t21.5 19q6 10 4 22.5t-2 22.5h37q0 -31 -10.5 -61.5t-55.5 -30.5q-33 0 -46 18.5t-16 44t-1 55zM1960 -225h94v-25h-59v-82h51v-24h-51v-93h59v-20h-94v244zM1987 113l16 104l14 -104h-30zM1997 627l33 10 q0 -12 4 -28.5t16 -24.5q16 -4 27.5 5t11.5 23q0 25 -21.5 44.5t-37.5 35.5q-23 18 -31 49t18 56q14 8 32.5 9t33.5 -3q18 -8 25.5 -25.5t9.5 -34.5l-29 -6q-2 10 -5 22.5t-13 22.5q-12 4 -23.5 0t-15.5 -20q-6 -16 8 -32.5t24 -29.5q16 -12 33 -27.5t21 -37.5 q10 -29 -6.5 -54.5t-49.5 -25.5q-29 0 -46 20.5t-19 51.5zM2048 1217.5q-2 54.5 8 101.5q12 43 43 62.5t72 19.5q43 2 78 -12.5t49 -55.5q18 -47 14 -103t-4 -104q0 -33 1 -58.5t-5 -53.5q-19 -96 -125 -96q-51 0 -84 25.5t-43 74.5q-4 25 -3 48.5t1 49.5q0 47 -2 101.5z M2073 -530h34v-244h-34v244zM2114 1231q2 -41 2 -76v-86q0 -25 2.5 -53.5t27.5 -42.5q14 -8 33 -8t29 8q18 10 25.5 27.5t11.5 35.5q2 10 1 24.5t-1 24.5v170q0 20 -2 42t-19 38q-27 27 -59 17q-33 -8 -47 -45q-6 -35 -4 -76zM2132 -774l51 244h35l51 -244h-31l-10 63h-53 l-10 -63h-33zM2145 91q-1 -40 3 -77q2 -41 20.5 -67.5t43 -38.5t54.5 -10t56 18q45 29 51.5 80t6.5 96h-88q0 -23 1 -42t-3 -38q-4 -18 -23.5 -26.5t-25.5 16.5q-6 27 -5.5 58.5t0.5 56.5v108q0 25 -1 56.5t6 58.5q8 23 26.5 21.5t22.5 -31.5q4 -18 3 -38t-1 -42h88 q2 41 -6.5 80t-26.5 66.5t-48 40t-75 -2.5q-35 -10 -52.5 -41t-23.5 -65q-4 -37 -3 -76t1 -78q0 -43 -1 -83zM2146 557v248h99v-23h-64v-84h51v-24h-51v-92h66v-25h-101zM2157 -225h92v-25h-66v-82h49v-24h-49v-113h-26v244zM2171 1764.5q-2 56.5 10 103.5q12 41 44 60.5 t71 21.5q41 2 76.5 -14.5t50.5 -57.5q16 -45 15 -101.5t-1 -105.5q0 -29 -1 -56.5t-7 -53.5q-23 -99 -125 -99q-109 0 -127 107q-4 23 -4 45v45q0 49 -2 105.5zM2179 -688h43l-20 113zM2241 1778.5q4 -41.5 4 -76.5v-88q0 -25 1.5 -53.5t30.5 -42.5q27 -10 60 0 q20 10 25 27.5t8 33.5v223q0 20 -2.5 42t-18.5 36q-10 16 -25.5 18.5t-31.5 -2.5q-35 -2 -45 -41q-10 -35 -6 -76.5zM2267 -383.5q2 14.5 2 27.5v131h31v-109q0 -10 -1 -29.5t1 -38t9 -33t24 -14.5q16 0 24 14.5t11.5 33t2.5 38t-1 29.5v109h28v-111q0 -16 1 -35.5t-1 -39 t-9.5 -36t-25.5 -22.5q-35 -10 -60.5 5t-33.5 50q-4 16 -2 30.5zM2296 -530h31v-220h65v-24h-96v244zM2327 805h36l35 -180l39 180h27l-51 -248h-31zM2376 922v477h45l135 -320v320h59v-477h-45l-139 325v-325h-55zM2415 -90h88v221h16l53 -221h88l-71 262l71 264h-88 l-53 -221h-16v221h-88v-526zM2437 -225h33v-224h61v-20h-94v244zM2472 -530h31l41 -179l32 179h35l-57 -244h-27zM2494 557v248h33v-248h-33zM2503 1466v482h45l133 -320v320h57v-482h-43l-139 326v-326h-53zM2554 -225h35v-224h61v-20h-96v244zM2560 627l33 10 q0 -12 5 -28.5t17 -24.5q16 -4 25.5 5t9.5 23q2 25 -19.5 44.5t-37.5 35.5q-23 18 -32 49t17 56q35 16 68 6q16 -8 23.5 -25.5t9.5 -34.5l-29 -6q-2 10 -5 22.5t-13 22.5q-10 4 -21.5 0t-13.5 -20q-12 -16 4 -32.5t29 -29.5q14 -12 29.5 -27.5t19.5 -37.5q10 -29 -5.5 -54.5 t-50.5 -25.5q-33 0 -47 20.5t-16 51.5zM2636 -530h98v-21h-63v-80h51v-26h-51v-93h63v-24h-98v244zM2650 119h131v94h-131v-94zM2689 922v477h66v-434h120v-43h-186zM2710 557v248h36v-248h-36zM2734 -469l47 244h37l51 -244h-33l-12 61h-49l-14 -61h-27zM2759 -530 q23 0 47 2t47 -9q12 -8 20.5 -24.5t8.5 -34.5t-7.5 -33.5t-21.5 -21.5l31 -123h-31l-31 117h-29v-117h-34v244zM2767 782v23h119v-23h-41v-225h-31v225h-47zM2779 -383h43l-22 111zM2787 1466l101 482h65l101 -482h-62l-24 119h-97l-22 -119h-62zM2793 -551v-80q23 0 39.5 5 t16.5 34q0 25 -16.5 33t-39.5 8zM2828 -90h88v184h31q70 0 105.5 53.5t35.5 118t-36.5 117.5t-112.5 53h-111v-526zM2879 1634h82l-41 219zM2894 -225h20l72 -162v162h27v-244h-21l-70 164v-164h-28v244zM2894 1399h61l72 -230l70 230h65q-16 -49 -32.5 -98.5t-32.5 -100.5 l-33 -98q-6 -16 -5 -32.5t1 -29.5v-118h-66v98q0 18 2 36.5t-2 35.5q-4 27 -13 48t-20 44zM2908 -705l33 9q0 -12 4 -27.5t16 -19.5q18 -10 28.5 -1t10.5 23q0 25 -21.5 44.5t-37.5 31.5q-23 23 -31 54.5t21 51.5q14 10 33.5 12.5t31.5 -5.5q16 -4 23.5 -21.5t9.5 -34.5 l-29 -10q-2 12 -4 24.5t-12 22.5q-33 8 -41 -18q-8 -18 7.5 -32.5t29.5 -27.5q14 -16 29.5 -31.5t19.5 -37.5q10 -29 -6 -53.5t-47 -24.5q-33 0 -48.5 21.5t-19.5 49.5zM2916 172v188h11q37 0 54 -29.5t18 -64.5t-15 -64.5t-49 -29.5h-19zM3054 -225q23 0 53.5 1t52.5 -18 q23 -18 20.5 -50t-2.5 -56q0 -25 1.5 -58.5t-27.5 -50.5q-18 -16 -46.5 -14t-51.5 2v244zM3062 -530h30v-244h-30v244zM3086 -250v-199q23 0 38.5 4.5t19.5 30.5v129q-2 27 -18.5 31t-39.5 4zM3105 1466v482h65v-435h123v-47h-188zM3119 -90h88v526h-88v-526zM3129 -645 q0 23 1 45t8.5 38.5t22.5 26t44 7.5q27 -2 38 -14.5t15 -31t3 -40t-1 -39.5v-40t-5 -40.5t-18 -30.5t-40 -12q-29 0 -43 13t-19.5 32.5t-5.5 43v42.5zM3164 -692.5q0 -18.5 3.5 -32.5t13.5 -16q20 -12 30.5 -5t15.5 21t5 32.5v30.5q0 8 1 24.5t-1 32t-6 29t-13 17.5 q-25 16 -35 0t-10 -35v-37q0 -10 -2 -26.5t-2 -35zM3199 922v67h61v-67h-61zM3199 1399h61l-20 -375h-23zM3256 -90h88v227h43l47 -227h89l-60 246q37 23 49.5 64.5t12.5 80.5q0 72 -32 103.5t-63 31.5h-174v-526zM3301 -530h21l72 -162v162h26v-244h-22l-72 168v-168h-25 v244zM3344 215v145h50q20 0 30 -20.5t11.5 -47t-5 -49t-18.5 -28.5h-68zM3545 -90h88l21 125h57l16 -125h88l-92 526h-82zM3666 113l16 104l15 -104h-31zM3789 356h84v-446h88v446h86v80h-258v-80zM4082 -90h194v80h-106v166h84v80h-84v120h106v80h-194v-526z" />
<glyph unicode="3" horiz-adv-x="4378" d="M111 -90h82l2 215l41 -215h61l43 217l4 -217h76l-4 526h-90l-62 -330l-59 330h-86zM487 -90h82v258l93 -258h65v526h-82v-252l-90 252h-68v-526zM784 8v-98h88v98h-88zM909 94q0 -35 3 -65.5t18 -61.5q16 -37 52 -53t75 -8q41 8 64.5 38.5t27.5 65.5q12 98 -62 174 l-43 47q-14 14 -27 26.5t-20 35.5q-6 16 -1 44t32 25q14 -2 20.5 -14t9.5 -27.5t4 -32t1 -28.5l82 4q0 49 -10.5 98.5t-57.5 69.5q-29 12 -57.5 10t-52 -14t-39 -35.5t-17.5 -54.5q-4 -31 1.5 -63.5t23.5 -57.5q6 -16 19.5 -26.5t25.5 -24.5q25 -29 53.5 -60.5t28.5 -72.5 q0 -16 -3 -29.5t-18 -15.5q-12 -4 -20 2t-12 16q-12 23 -14.5 46.5t-4.5 47.5zM910 -658.5q1 29.5 1 52.5q0 33 17.5 57.5t58.5 20.5q37 -4 45 -30t8 -54h-32q0 10 1 21t-5 22q-4 16 -22.5 18t-27.5 -14q-12 -12 -9 -41t3 -47q0 -14 -3 -41t11 -43q6 -14 24.5 -11t23.5 19 q6 10 5 22.5t-1 22.5h32q0 -31 -10 -61.5t-53 -30.5q-31 0 -45 18.5t-18.5 44t-3.5 55zM1067 -645q0 23 1 45t8 38.5t22.5 26t44.5 7.5q25 -2 38 -14.5t18 -31t5 -40v-39.5v-40t-6 -40.5t-20 -30.5t-41 -12q-31 0 -45.5 13t-19.5 32.5t-5 43v42.5zM1073 1466v482h101 q37 0 68.5 -8.5t49.5 -45.5q10 -20 15.5 -45.5t3.5 -50t-12.5 -47t-28.5 -37.5q-27 -23 -64 -22.5t-67 0.5v-226h-66zM1077 1102v297h64v-320q0 -27 4 -61.5t35 -50.5q27 -8 44 0t26.5 24.5t13.5 38t4 41.5q2 41 1 77t-1 77v174h67v-219q0 -31 1 -70t-4 -76t-22.5 -67.5 t-54.5 -42.5q-43 -16 -94 -2t-69 65q-10 25 -12.5 52.5t-2.5 62.5zM1102 -692.5q0 -18.5 3 -32.5t13 -16q20 -12 30.5 -5t14.5 21t4 32.5v30.5q0 8 1 24.5t0 32t-4 29t-11 17.5q-27 16 -38 0t-11 -35q-2 -10 -1 -19.5t1 -17.5q0 -10 -1 -26.5t-1 -35zM1139 1741 q16 0 32.5 -1t36.5 3q25 6 32 25.5t7 41.5q2 27 -4 51.5t-35 32.5q-20 4 -36.5 3t-32.5 -1v-155zM1161 -225h94v-25h-57v-82h45v-24h-45v-113h-37v244zM1189 101.5q-1 -35.5 3 -72.5q4 -31 15.5 -63t39.5 -46q27 -18 66 -17t61 23l2 -16h70v274h-137v-78h53v-33.5t-4 -45 t-15.5 -34.5t-33.5 -5q-14 4 -20.5 18t-8.5 31.5t-1 35t1 27.5v125q0 25 -1 56.5t5 58.5q6 10 17.5 17.5t23.5 4.5q27 -8 29 -32q4 -18 3 -38t-1 -42h88q0 45 -6 96t-52 80q-25 16 -57.5 17t-60.5 -9q-35 -10 -52.5 -41t-23.5 -65q-4 -37 -3 -76t1 -78q0 -37 -1 -72.5z M1235 -774l4 244h37l43 -195l41 195h33l4 -244h-27l-2 180l-41 -180h-22l-39 180l-2 -180h-29zM1276 -338q0 20 1 42t8 38t21.5 26.5t43.5 8.5q25 -2 37 -14.5t18 -31t6 -40v-39.5t-1 -41t-7 -41.5t-19.5 -30.5t-40.5 -12q-29 0 -43 13.5t-19 33.5t-5 44v44zM1307 -392.5 q0 -17.5 4 -32.5t16 -19q20 -10 29.5 -2t13.5 23t4 33.5v31.5q0 8 1 24.5t1 32.5t-4 29.5t-12 19.5q-23 12 -37 -4t-14 -37v-39q0 -8 -1 -25.5t-1 -35zM1358 1466v482h184v-52h-119v-155h97v-49h-97v-179h121v-47h-186zM1389 1055l63 16q2 -23 5 -45t18 -39q16 -18 38.5 -20 t38.5 14q20 16 18.5 45t-16.5 47q-10 14 -23 28.5t-30 24.5q-23 23 -49.5 44.5t-42.5 48.5q-14 23 -18.5 50t3 54t24 47.5t44.5 28.5q27 6 59.5 4t57.5 -19q23 -16 31 -45.5t10 -58.5l-51 -18q-4 29 -13.5 56.5t-39.5 33.5q-23 4 -40.5 -7.5t-21.5 -35.5q-6 -18 0 -35 t18.5 -31t28 -25.5t27.5 -23.5q33 -29 60.5 -57.5t35.5 -73.5q14 -55 -17.5 -100t-90.5 -45q-61 0 -92 38.5t-35 98.5zM1434 -774l4 244h35l43 -195l43 195h34l2 -244h-22l-4 180l-43 -180h-23l-37 180l-4 -180h-28zM1444 -225q23 0 46 2t44 -8q14 -8 22.5 -25.5t9.5 -36 t-6.5 -34t-25.5 -21.5l37 -121h-35l-35 113h-24v-113h-33v244zM1464 -156h76l150 660h-84zM1468 557v248h62t53 -25q8 -23 6 -51.5t-18 -42.5q-16 -12 -33.5 -13t-36.5 -1v-115h-33zM1477 -250v-82q23 0 39 7.5t16 35.5q0 29 -16.5 34t-38.5 5zM1501 696h18.5t20.5 4 q12 6 14 18.5t2 26.5q-2 29 -17 33t-38 4v-86zM1595 1466v482q47 0 97.5 1t91.5 -22q25 -16 39 -48t14 -66.5t-14.5 -64.5t-42.5 -40l63 -242h-63l-64 228h-51v-228h-70zM1614 557v248h31v-223h63v-25h-94zM1620 92q0 -45 6 -96t51 -80q25 -16 47.5 -17t51.5 9q35 10 52 41 t23 65q4 37 3 76t-1 78v260h-90v-311q0 -25 1 -56.5t-5 -58.5q-16 -23 -30.5 -20.5t-18.5 30.5q-4 18 -3 38t1 42h-88zM1634 -530h97v-21h-62v-80h51v-26h-51v-93h62v-24h-97v244zM1651 -225h125v-25h-45v-219h-35v219h-45v25zM1665 1741h32.5t35.5 4q23 10 29.5 31.5 t2.5 48.5q0 23 -5 39t-27 26q-16 8 -35 7t-33 -1v-155zM1681 922v477h187v-51h-119v-156h96v-49h-96v-178h119v-43h-187zM1733 557v248h94v-23h-64v-84h54v-24h-54v-92h64v-25h-94zM1755 -530q25 0 49.5 2t44.5 -9q14 -8 21.5 -24.5t7.5 -34.5t-8 -33.5t-23 -21.5l35 -123 h-33l-28 117h-27v-117h-39v244zM1792 -225h31v-107h63v107h37v-244h-37v113h-63v-113h-31v244zM1794 -551v-80q23 0 37 5t14 34q0 25 -14 33t-37 8zM1843 557l53 248h33l53 -248h-36l-11 66h-51l-10 -66h-31zM1866 -90h88l20 125h58l16 -125h88l-92 526h-82zM1886 645h45 l-18 113zM1886 1599l62 17q4 -23 8 -46.5t18 -37.5q16 -16 39 -18.5t39 12.5q18 16 17 44.5t-15 51.5q-12 20 -53 51q-23 20 -48.5 42t-41.5 46q-16 25 -20.5 54.5t1.5 55t23.5 46t46.5 29.5q27 6 59.5 3t55.5 -20q25 -16 33 -45t10 -57l-52 -17q-4 25 -13 53.5t-40 37.5 q-23 2 -41 -9.5t-22 -31.5t2 -38t18.5 -32t27.5 -26.5t30 -22.5q31 -29 59.5 -58.5t38.5 -70.5q10 -59 -21 -104.5t-92 -45.5q-59 0 -93 40t-36 97zM1911 -658.5q2 29.5 2 52.5q0 33 15.5 57.5t56.5 20.5q39 -4 47 -30t8 -54h-37q0 10 2 21t-4 22q-4 16 -21.5 18t-27.5 -14 q-12 -12 -10 -41t2 -47q0 -14 -2.5 -41t12.5 -43q8 -14 25.5 -11t21.5 19q6 10 4 22.5t-2 22.5h37q0 -31 -10.5 -61.5t-55.5 -30.5q-33 0 -46 18.5t-16 44t-1 55zM1960 -225h94v-25h-59v-82h51v-24h-51v-93h59v-20h-94v244zM1987 113l16 104l14 -104h-30zM1997 627l33 10 q0 -12 4 -28.5t16 -24.5q16 -4 27.5 5t11.5 23q0 25 -21.5 44.5t-37.5 35.5q-23 18 -31 49t18 56q14 8 32.5 9t33.5 -3q18 -8 25.5 -25.5t9.5 -34.5l-29 -6q-2 10 -5 22.5t-13 22.5q-12 4 -23.5 0t-15.5 -20q-6 -16 8 -32.5t24 -29.5q16 -12 33 -27.5t21 -37.5 q10 -29 -6.5 -54.5t-49.5 -25.5q-29 0 -46 20.5t-19 51.5zM2048 1217.5q-2 54.5 8 101.5q12 43 43 62.5t72 19.5q43 2 78 -12.5t49 -55.5q18 -47 14 -103t-4 -104q0 -33 1 -58.5t-5 -53.5q-19 -96 -125 -96q-51 0 -84 25.5t-43 74.5q-4 25 -3 48.5t1 49.5q0 47 -2 101.5z M2073 -530h34v-244h-34v244zM2114 1231q2 -41 2 -76v-86q0 -25 2.5 -53.5t27.5 -42.5q14 -8 33 -8t29 8q18 10 25.5 27.5t11.5 35.5q2 10 1 24.5t-1 24.5v170q0 20 -2 42t-19 38q-27 27 -59 17q-33 -8 -47 -45q-6 -35 -4 -76zM2132 -774l51 244h35l51 -244h-31l-10 63h-53 l-10 -63h-33zM2145 91q-1 -40 3 -77q2 -41 20.5 -67.5t43 -38.5t54.5 -10t56 18q45 29 51.5 80t6.5 96h-88q0 -23 1 -42t-3 -38q-4 -18 -23.5 -26.5t-25.5 16.5q-6 27 -5.5 58.5t0.5 56.5v108q0 25 -1 56.5t6 58.5q8 23 26.5 21.5t22.5 -31.5q4 -18 3 -38t-1 -42h88 q2 41 -6.5 80t-26.5 66.5t-48 40t-75 -2.5q-35 -10 -52.5 -41t-23.5 -65q-4 -37 -3 -76t1 -78q0 -43 -1 -83zM2146 557v248h99v-23h-64v-84h51v-24h-51v-92h66v-25h-101zM2157 -225h92v-25h-66v-82h49v-24h-49v-113h-26v244zM2171 1764.5q-2 56.5 10 103.5q12 41 44 60.5 t71 21.5q41 2 76.5 -14.5t50.5 -57.5q16 -45 15 -101.5t-1 -105.5q0 -29 -1 -56.5t-7 -53.5q-23 -99 -125 -99q-109 0 -127 107q-4 23 -4 45v45q0 49 -2 105.5zM2179 -688h43l-20 113zM2241 1778.5q4 -41.5 4 -76.5v-88q0 -25 1.5 -53.5t30.5 -42.5q27 -10 60 0 q20 10 25 27.5t8 33.5v223q0 20 -2.5 42t-18.5 36q-10 16 -25.5 18.5t-31.5 -2.5q-35 -2 -45 -41q-10 -35 -6 -76.5zM2267 -383.5q2 14.5 2 27.5v131h31v-109q0 -10 -1 -29.5t1 -38t9 -33t24 -14.5q16 0 24 14.5t11.5 33t2.5 38t-1 29.5v109h28v-111q0 -16 1 -35.5t-1 -39 t-9.5 -36t-25.5 -22.5q-35 -10 -60.5 5t-33.5 50q-4 16 -2 30.5zM2296 -530h31v-220h65v-24h-96v244zM2327 805h36l35 -180l39 180h27l-51 -248h-31zM2376 922v477h45l135 -320v320h59v-477h-45l-139 325v-325h-55zM2415 -90h88v221h16l53 -221h88l-71 262l71 264h-88 l-53 -221h-16v221h-88v-526zM2437 -225h33v-224h61v-20h-94v244zM2472 -530h31l41 -179l32 179h35l-57 -244h-27zM2494 557v248h33v-248h-33zM2503 1466v482h45l133 -320v320h57v-482h-43l-139 326v-326h-53zM2554 -225h35v-224h61v-20h-96v244zM2560 627l33 10 q0 -12 5 -28.5t17 -24.5q16 -4 25.5 5t9.5 23q2 25 -19.5 44.5t-37.5 35.5q-23 18 -32 49t17 56q35 16 68 6q16 -8 23.5 -25.5t9.5 -34.5l-29 -6q-2 10 -5 22.5t-13 22.5q-10 4 -21.5 0t-13.5 -20q-12 -16 4 -32.5t29 -29.5q14 -12 29.5 -27.5t19.5 -37.5q10 -29 -5.5 -54.5 t-50.5 -25.5q-33 0 -47 20.5t-16 51.5zM2636 -530h98v-21h-63v-80h51v-26h-51v-93h63v-24h-98v244zM2650 119h131v94h-131v-94zM2689 922v477h66v-434h120v-43h-186zM2710 557v248h36v-248h-36zM2734 -469l47 244h37l51 -244h-33l-12 61h-49l-14 -61h-27zM2759 -530 q23 0 47 2t47 -9q12 -8 20.5 -24.5t8.5 -34.5t-7.5 -33.5t-21.5 -21.5l31 -123h-31l-31 117h-29v-117h-34v244zM2767 782v23h119v-23h-41v-225h-31v225h-47zM2779 -383h43l-22 111zM2787 1466l101 482h65l101 -482h-62l-24 119h-97l-22 -119h-62zM2793 -551v-80q23 0 39.5 5 t16.5 34q0 25 -16.5 33t-39.5 8zM2828 -90h88v184h31q70 0 105.5 53.5t35.5 118t-36.5 117.5t-112.5 53h-111v-526zM2879 1634h82l-41 219zM2894 -225h20l72 -162v162h27v-244h-21l-70 164v-164h-28v244zM2894 1399h61l72 -230l70 230h65q-16 -49 -32.5 -98.5t-32.5 -100.5 l-33 -98q-6 -16 -5 -32.5t1 -29.5v-118h-66v98q0 18 2 36.5t-2 35.5q-4 27 -13 48t-20 44zM2908 -705l33 9q0 -12 4 -27.5t16 -19.5q18 -10 28.5 -1t10.5 23q0 25 -21.5 44.5t-37.5 31.5q-23 23 -31 54.5t21 51.5q14 10 33.5 12.5t31.5 -5.5q16 -4 23.5 -21.5t9.5 -34.5 l-29 -10q-2 12 -4 24.5t-12 22.5q-33 8 -41 -18q-8 -18 7.5 -32.5t29.5 -27.5q14 -16 29.5 -31.5t19.5 -37.5q10 -29 -6 -53.5t-47 -24.5q-33 0 -48.5 21.5t-19.5 49.5zM2916 172v188h11q37 0 54 -29.5t18 -64.5t-15 -64.5t-49 -29.5h-19zM3054 -225q23 0 53.5 1t52.5 -18 q23 -18 20.5 -50t-2.5 -56q0 -25 1.5 -58.5t-27.5 -50.5q-18 -16 -46.5 -14t-51.5 2v244zM3062 -530h30v-244h-30v244zM3086 -250v-199q23 0 38.5 4.5t19.5 30.5v129q-2 27 -18.5 31t-39.5 4zM3105 1466v482h65v-435h123v-47h-188zM3119 -90h88v526h-88v-526zM3129 -645 q0 23 1 45t8.5 38.5t22.5 26t44 7.5q27 -2 38 -14.5t15 -31t3 -40t-1 -39.5v-40t-5 -40.5t-18 -30.5t-40 -12q-29 0 -43 13t-19.5 32.5t-5.5 43v42.5zM3164 -692.5q0 -18.5 3.5 -32.5t13.5 -16q20 -12 30.5 -5t15.5 21t5 32.5v30.5q0 8 1 24.5t-1 32t-6 29t-13 17.5 q-25 16 -35 0t-10 -35v-37q0 -10 -2 -26.5t-2 -35zM3199 922v67h61v-67h-61zM3199 1399h61l-20 -375h-23zM3256 -90h88v227h43l47 -227h89l-60 246q37 23 49.5 64.5t12.5 80.5q0 72 -32 103.5t-63 31.5h-174v-526zM3301 -530h21l72 -162v162h26v-244h-22l-72 168v-168h-25 v244zM3344 215v145h50q20 0 30 -20.5t11.5 -47t-5 -49t-18.5 -28.5h-68zM3545 -90h88l21 125h57l16 -125h88l-92 526h-82zM3666 113l16 104l15 -104h-31zM3789 356h84v-446h88v446h86v80h-258v-80zM4082 -90h194v80h-106v166h84v80h-84v120h106v80h-194v-526z" />
<glyph unicode="4" horiz-adv-x="4378" d="M111 -90h82l2 215l41 -215h61l43 217l4 -217h76l-4 526h-90l-62 -330l-59 330h-86zM487 -90h82v258l93 -258h65v526h-82v-252l-90 252h-68v-526zM784 8v-98h88v98h-88zM909 94q0 -35 3 -65.5t18 -61.5q16 -37 52 -53t75 -8q41 8 64.5 38.5t27.5 65.5q12 98 -62 174 l-43 47q-14 14 -27 26.5t-20 35.5q-6 16 -1 44t32 25q14 -2 20.5 -14t9.5 -27.5t4 -32t1 -28.5l82 4q0 49 -10.5 98.5t-57.5 69.5q-29 12 -57.5 10t-52 -14t-39 -35.5t-17.5 -54.5q-4 -31 1.5 -63.5t23.5 -57.5q6 -16 19.5 -26.5t25.5 -24.5q25 -29 53.5 -60.5t28.5 -72.5 q0 -16 -3 -29.5t-18 -15.5q-12 -4 -20 2t-12 16q-12 23 -14.5 46.5t-4.5 47.5zM910 -658.5q1 29.5 1 52.5q0 33 17.5 57.5t58.5 20.5q37 -4 45 -30t8 -54h-32q0 10 1 21t-5 22q-4 16 -22.5 18t-27.5 -14q-12 -12 -9 -41t3 -47q0 -14 -3 -41t11 -43q6 -14 24.5 -11t23.5 19 q6 10 5 22.5t-1 22.5h32q0 -31 -10 -61.5t-53 -30.5q-31 0 -45 18.5t-18.5 44t-3.5 55zM1067 -645q0 23 1 45t8 38.5t22.5 26t44.5 7.5q25 -2 38 -14.5t18 -31t5 -40v-39.5v-40t-6 -40.5t-20 -30.5t-41 -12q-31 0 -45.5 13t-19.5 32.5t-5 43v42.5zM1073 1466v482h101 q37 0 68.5 -8.5t49.5 -45.5q10 -20 15.5 -45.5t3.5 -50t-12.5 -47t-28.5 -37.5q-27 -23 -64 -22.5t-67 0.5v-226h-66zM1077 1102v297h64v-320q0 -27 4 -61.5t35 -50.5q27 -8 44 0t26.5 24.5t13.5 38t4 41.5q2 41 1 77t-1 77v174h67v-219q0 -31 1 -70t-4 -76t-22.5 -67.5 t-54.5 -42.5q-43 -16 -94 -2t-69 65q-10 25 -12.5 52.5t-2.5 62.5zM1102 -692.5q0 -18.5 3 -32.5t13 -16q20 -12 30.5 -5t14.5 21t4 32.5v30.5q0 8 1 24.5t0 32t-4 29t-11 17.5q-27 16 -38 0t-11 -35q-2 -10 -1 -19.5t1 -17.5q0 -10 -1 -26.5t-1 -35zM1139 1741 q16 0 32.5 -1t36.5 3q25 6 32 25.5t7 41.5q2 27 -4 51.5t-35 32.5q-20 4 -36.5 3t-32.5 -1v-155zM1161 -225h94v-25h-57v-82h45v-24h-45v-113h-37v244zM1189 101.5q-1 -35.5 3 -72.5q4 -31 15.5 -63t39.5 -46q27 -18 66 -17t61 23l2 -16h70v274h-137v-78h53v-33.5t-4 -45 t-15.5 -34.5t-33.5 -5q-14 4 -20.5 18t-8.5 31.5t-1 35t1 27.5v125q0 25 -1 56.5t5 58.5q6 10 17.5 17.5t23.5 4.5q27 -8 29 -32q4 -18 3 -38t-1 -42h88q0 45 -6 96t-52 80q-25 16 -57.5 17t-60.5 -9q-35 -10 -52.5 -41t-23.5 -65q-4 -37 -3 -76t1 -78q0 -37 -1 -72.5z M1235 -774l4 244h37l43 -195l41 195h33l4 -244h-27l-2 180l-41 -180h-22l-39 180l-2 -180h-29zM1276 -338q0 20 1 42t8 38t21.5 26.5t43.5 8.5q25 -2 37 -14.5t18 -31t6 -40v-39.5t-1 -41t-7 -41.5t-19.5 -30.5t-40.5 -12q-29 0 -43 13.5t-19 33.5t-5 44v44zM1307 -392.5 q0 -17.5 4 -32.5t16 -19q20 -10 29.5 -2t13.5 23t4 33.5v31.5q0 8 1 24.5t1 32.5t-4 29.5t-12 19.5q-23 12 -37 -4t-14 -37v-39q0 -8 -1 -25.5t-1 -35zM1358 1466v482h184v-52h-119v-155h97v-49h-97v-179h121v-47h-186zM1389 1055l63 16q2 -23 5 -45t18 -39q16 -18 38.5 -20 t38.5 14q20 16 18.5 45t-16.5 47q-10 14 -23 28.5t-30 24.5q-23 23 -49.5 44.5t-42.5 48.5q-14 23 -18.5 50t3 54t24 47.5t44.5 28.5q27 6 59.5 4t57.5 -19q23 -16 31 -45.5t10 -58.5l-51 -18q-4 29 -13.5 56.5t-39.5 33.5q-23 4 -40.5 -7.5t-21.5 -35.5q-6 -18 0 -35 t18.5 -31t28 -25.5t27.5 -23.5q33 -29 60.5 -57.5t35.5 -73.5q14 -55 -17.5 -100t-90.5 -45q-61 0 -92 38.5t-35 98.5zM1434 -774l4 244h35l43 -195l43 195h34l2 -244h-22l-4 180l-43 -180h-23l-37 180l-4 -180h-28zM1444 -225q23 0 46 2t44 -8q14 -8 22.5 -25.5t9.5 -36 t-6.5 -34t-25.5 -21.5l37 -121h-35l-35 113h-24v-113h-33v244zM1464 -156h76l150 660h-84zM1468 557v248h62t53 -25q8 -23 6 -51.5t-18 -42.5q-16 -12 -33.5 -13t-36.5 -1v-115h-33zM1477 -250v-82q23 0 39 7.5t16 35.5q0 29 -16.5 34t-38.5 5zM1501 696h18.5t20.5 4 q12 6 14 18.5t2 26.5q-2 29 -17 33t-38 4v-86zM1595 1466v482q47 0 97.5 1t91.5 -22q25 -16 39 -48t14 -66.5t-14.5 -64.5t-42.5 -40l63 -242h-63l-64 228h-51v-228h-70zM1614 557v248h31v-223h63v-25h-94zM1620 92q0 -45 6 -96t51 -80q25 -16 47.5 -17t51.5 9q35 10 52 41 t23 65q4 37 3 76t-1 78v260h-90v-311q0 -25 1 -56.5t-5 -58.5q-16 -23 -30.5 -20.5t-18.5 30.5q-4 18 -3 38t1 42h-88zM1634 -530h97v-21h-62v-80h51v-26h-51v-93h62v-24h-97v244zM1651 -225h125v-25h-45v-219h-35v219h-45v25zM1665 1741h32.5t35.5 4q23 10 29.5 31.5 t2.5 48.5q0 23 -5 39t-27 26q-16 8 -35 7t-33 -1v-155zM1681 922v477h187v-51h-119v-156h96v-49h-96v-178h119v-43h-187zM1733 557v248h94v-23h-64v-84h54v-24h-54v-92h64v-25h-94zM1755 -530q25 0 49.5 2t44.5 -9q14 -8 21.5 -24.5t7.5 -34.5t-8 -33.5t-23 -21.5l35 -123 h-33l-28 117h-27v-117h-39v244zM1792 -225h31v-107h63v107h37v-244h-37v113h-63v-113h-31v244zM1794 -551v-80q23 0 37 5t14 34q0 25 -14 33t-37 8zM1843 557l53 248h33l53 -248h-36l-11 66h-51l-10 -66h-31zM1866 -90h88l20 125h58l16 -125h88l-92 526h-82zM1886 645h45 l-18 113zM1886 1599l62 17q4 -23 8 -46.5t18 -37.5q16 -16 39 -18.5t39 12.5q18 16 17 44.5t-15 51.5q-12 20 -53 51q-23 20 -48.5 42t-41.5 46q-16 25 -20.5 54.5t1.5 55t23.5 46t46.5 29.5q27 6 59.5 3t55.5 -20q25 -16 33 -45t10 -57l-52 -17q-4 25 -13 53.5t-40 37.5 q-23 2 -41 -9.5t-22 -31.5t2 -38t18.5 -32t27.5 -26.5t30 -22.5q31 -29 59.5 -58.5t38.5 -70.5q10 -59 -21 -104.5t-92 -45.5q-59 0 -93 40t-36 97zM1911 -658.5q2 29.5 2 52.5q0 33 15.5 57.5t56.5 20.5q39 -4 47 -30t8 -54h-37q0 10 2 21t-4 22q-4 16 -21.5 18t-27.5 -14 q-12 -12 -10 -41t2 -47q0 -14 -2.5 -41t12.5 -43q8 -14 25.5 -11t21.5 19q6 10 4 22.5t-2 22.5h37q0 -31 -10.5 -61.5t-55.5 -30.5q-33 0 -46 18.5t-16 44t-1 55zM1960 -225h94v-25h-59v-82h51v-24h-51v-93h59v-20h-94v244zM1987 113l16 104l14 -104h-30zM1997 627l33 10 q0 -12 4 -28.5t16 -24.5q16 -4 27.5 5t11.5 23q0 25 -21.5 44.5t-37.5 35.5q-23 18 -31 49t18 56q14 8 32.5 9t33.5 -3q18 -8 25.5 -25.5t9.5 -34.5l-29 -6q-2 10 -5 22.5t-13 22.5q-12 4 -23.5 0t-15.5 -20q-6 -16 8 -32.5t24 -29.5q16 -12 33 -27.5t21 -37.5 q10 -29 -6.5 -54.5t-49.5 -25.5q-29 0 -46 20.5t-19 51.5zM2048 1217.5q-2 54.5 8 101.5q12 43 43 62.5t72 19.5q43 2 78 -12.5t49 -55.5q18 -47 14 -103t-4 -104q0 -33 1 -58.5t-5 -53.5q-19 -96 -125 -96q-51 0 -84 25.5t-43 74.5q-4 25 -3 48.5t1 49.5q0 47 -2 101.5z M2073 -530h34v-244h-34v244zM2114 1231q2 -41 2 -76v-86q0 -25 2.5 -53.5t27.5 -42.5q14 -8 33 -8t29 8q18 10 25.5 27.5t11.5 35.5q2 10 1 24.5t-1 24.5v170q0 20 -2 42t-19 38q-27 27 -59 17q-33 -8 -47 -45q-6 -35 -4 -76zM2132 -774l51 244h35l51 -244h-31l-10 63h-53 l-10 -63h-33zM2145 91q-1 -40 3 -77q2 -41 20.5 -67.5t43 -38.5t54.5 -10t56 18q45 29 51.5 80t6.5 96h-88q0 -23 1 -42t-3 -38q-4 -18 -23.5 -26.5t-25.5 16.5q-6 27 -5.5 58.5t0.5 56.5v108q0 25 -1 56.5t6 58.5q8 23 26.5 21.5t22.5 -31.5q4 -18 3 -38t-1 -42h88 q2 41 -6.5 80t-26.5 66.5t-48 40t-75 -2.5q-35 -10 -52.5 -41t-23.5 -65q-4 -37 -3 -76t1 -78q0 -43 -1 -83zM2146 557v248h99v-23h-64v-84h51v-24h-51v-92h66v-25h-101zM2157 -225h92v-25h-66v-82h49v-24h-49v-113h-26v244zM2171 1764.5q-2 56.5 10 103.5q12 41 44 60.5 t71 21.5q41 2 76.5 -14.5t50.5 -57.5q16 -45 15 -101.5t-1 -105.5q0 -29 -1 -56.5t-7 -53.5q-23 -99 -125 -99q-109 0 -127 107q-4 23 -4 45v45q0 49 -2 105.5zM2179 -688h43l-20 113zM2241 1778.5q4 -41.5 4 -76.5v-88q0 -25 1.5 -53.5t30.5 -42.5q27 -10 60 0 q20 10 25 27.5t8 33.5v223q0 20 -2.5 42t-18.5 36q-10 16 -25.5 18.5t-31.5 -2.5q-35 -2 -45 -41q-10 -35 -6 -76.5zM2267 -383.5q2 14.5 2 27.5v131h31v-109q0 -10 -1 -29.5t1 -38t9 -33t24 -14.5q16 0 24 14.5t11.5 33t2.5 38t-1 29.5v109h28v-111q0 -16 1 -35.5t-1 -39 t-9.5 -36t-25.5 -22.5q-35 -10 -60.5 5t-33.5 50q-4 16 -2 30.5zM2296 -530h31v-220h65v-24h-96v244zM2327 805h36l35 -180l39 180h27l-51 -248h-31zM2376 922v477h45l135 -320v320h59v-477h-45l-139 325v-325h-55zM2415 -90h88v221h16l53 -221h88l-71 262l71 264h-88 l-53 -221h-16v221h-88v-526zM2437 -225h33v-224h61v-20h-94v244zM2472 -530h31l41 -179l32 179h35l-57 -244h-27zM2494 557v248h33v-248h-33zM2503 1466v482h45l133 -320v320h57v-482h-43l-139 326v-326h-53zM2554 -225h35v-224h61v-20h-96v244zM2560 627l33 10 q0 -12 5 -28.5t17 -24.5q16 -4 25.5 5t9.5 23q2 25 -19.5 44.5t-37.5 35.5q-23 18 -32 49t17 56q35 16 68 6q16 -8 23.5 -25.5t9.5 -34.5l-29 -6q-2 10 -5 22.5t-13 22.5q-10 4 -21.5 0t-13.5 -20q-12 -16 4 -32.5t29 -29.5q14 -12 29.5 -27.5t19.5 -37.5q10 -29 -5.5 -54.5 t-50.5 -25.5q-33 0 -47 20.5t-16 51.5zM2636 -530h98v-21h-63v-80h51v-26h-51v-93h63v-24h-98v244zM2650 119h131v94h-131v-94zM2689 922v477h66v-434h120v-43h-186zM2710 557v248h36v-248h-36zM2734 -469l47 244h37l51 -244h-33l-12 61h-49l-14 -61h-27zM2759 -530 q23 0 47 2t47 -9q12 -8 20.5 -24.5t8.5 -34.5t-7.5 -33.5t-21.5 -21.5l31 -123h-31l-31 117h-29v-117h-34v244zM2767 782v23h119v-23h-41v-225h-31v225h-47zM2779 -383h43l-22 111zM2787 1466l101 482h65l101 -482h-62l-24 119h-97l-22 -119h-62zM2793 -551v-80q23 0 39.5 5 t16.5 34q0 25 -16.5 33t-39.5 8zM2828 -90h88v184h31q70 0 105.5 53.5t35.5 118t-36.5 117.5t-112.5 53h-111v-526zM2879 1634h82l-41 219zM2894 -225h20l72 -162v162h27v-244h-21l-70 164v-164h-28v244zM2894 1399h61l72 -230l70 230h65q-16 -49 -32.5 -98.5t-32.5 -100.5 l-33 -98q-6 -16 -5 -32.5t1 -29.5v-118h-66v98q0 18 2 36.5t-2 35.5q-4 27 -13 48t-20 44zM2908 -705l33 9q0 -12 4 -27.5t16 -19.5q18 -10 28.5 -1t10.5 23q0 25 -21.5 44.5t-37.5 31.5q-23 23 -31 54.5t21 51.5q14 10 33.5 12.5t31.5 -5.5q16 -4 23.5 -21.5t9.5 -34.5 l-29 -10q-2 12 -4 24.5t-12 22.5q-33 8 -41 -18q-8 -18 7.5 -32.5t29.5 -27.5q14 -16 29.5 -31.5t19.5 -37.5q10 -29 -6 -53.5t-47 -24.5q-33 0 -48.5 21.5t-19.5 49.5zM2916 172v188h11q37 0 54 -29.5t18 -64.5t-15 -64.5t-49 -29.5h-19zM3054 -225q23 0 53.5 1t52.5 -18 q23 -18 20.5 -50t-2.5 -56q0 -25 1.5 -58.5t-27.5 -50.5q-18 -16 -46.5 -14t-51.5 2v244zM3062 -530h30v-244h-30v244zM3086 -250v-199q23 0 38.5 4.5t19.5 30.5v129q-2 27 -18.5 31t-39.5 4zM3105 1466v482h65v-435h123v-47h-188zM3119 -90h88v526h-88v-526zM3129 -645 q0 23 1 45t8.5 38.5t22.5 26t44 7.5q27 -2 38 -14.5t15 -31t3 -40t-1 -39.5v-40t-5 -40.5t-18 -30.5t-40 -12q-29 0 -43 13t-19.5 32.5t-5.5 43v42.5zM3164 -692.5q0 -18.5 3.5 -32.5t13.5 -16q20 -12 30.5 -5t15.5 21t5 32.5v30.5q0 8 1 24.5t-1 32t-6 29t-13 17.5 q-25 16 -35 0t-10 -35v-37q0 -10 -2 -26.5t-2 -35zM3199 922v67h61v-67h-61zM3199 1399h61l-20 -375h-23zM3256 -90h88v227h43l47 -227h89l-60 246q37 23 49.5 64.5t12.5 80.5q0 72 -32 103.5t-63 31.5h-174v-526zM3301 -530h21l72 -162v162h26v-244h-22l-72 168v-168h-25 v244zM3344 215v145h50q20 0 30 -20.5t11.5 -47t-5 -49t-18.5 -28.5h-68zM3545 -90h88l21 125h57l16 -125h88l-92 526h-82zM3666 113l16 104l15 -104h-31zM3789 356h84v-446h88v446h86v80h-258v-80zM4082 -90h194v80h-106v166h84v80h-84v120h106v80h-194v-526z" />
<glyph unicode="5" horiz-adv-x="4378" d="M111 -90h82l2 215l41 -215h61l43 217l4 -217h76l-4 526h-90l-62 -330l-59 330h-86zM487 -90h82v258l93 -258h65v526h-82v-252l-90 252h-68v-526zM784 8v-98h88v98h-88zM909 94q0 -35 3 -65.5t18 -61.5q16 -37 52 -53t75 -8q41 8 64.5 38.5t27.5 65.5q12 98 -62 174 l-43 47q-14 14 -27 26.5t-20 35.5q-6 16 -1 44t32 25q14 -2 20.5 -14t9.5 -27.5t4 -32t1 -28.5l82 4q0 49 -10.5 98.5t-57.5 69.5q-29 12 -57.5 10t-52 -14t-39 -35.5t-17.5 -54.5q-4 -31 1.5 -63.5t23.5 -57.5q6 -16 19.5 -26.5t25.5 -24.5q25 -29 53.5 -60.5t28.5 -72.5 q0 -16 -3 -29.5t-18 -15.5q-12 -4 -20 2t-12 16q-12 23 -14.5 46.5t-4.5 47.5zM910 -658.5q1 29.5 1 52.5q0 33 17.5 57.5t58.5 20.5q37 -4 45 -30t8 -54h-32q0 10 1 21t-5 22q-4 16 -22.5 18t-27.5 -14q-12 -12 -9 -41t3 -47q0 -14 -3 -41t11 -43q6 -14 24.5 -11t23.5 19 q6 10 5 22.5t-1 22.5h32q0 -31 -10 -61.5t-53 -30.5q-31 0 -45 18.5t-18.5 44t-3.5 55zM1067 -645q0 23 1 45t8 38.5t22.5 26t44.5 7.5q25 -2 38 -14.5t18 -31t5 -40v-39.5v-40t-6 -40.5t-20 -30.5t-41 -12q-31 0 -45.5 13t-19.5 32.5t-5 43v42.5zM1073 1466v482h101 q37 0 68.5 -8.5t49.5 -45.5q10 -20 15.5 -45.5t3.5 -50t-12.5 -47t-28.5 -37.5q-27 -23 -64 -22.5t-67 0.5v-226h-66zM1077 1102v297h64v-320q0 -27 4 -61.5t35 -50.5q27 -8 44 0t26.5 24.5t13.5 38t4 41.5q2 41 1 77t-1 77v174h67v-219q0 -31 1 -70t-4 -76t-22.5 -67.5 t-54.5 -42.5q-43 -16 -94 -2t-69 65q-10 25 -12.5 52.5t-2.5 62.5zM1102 -692.5q0 -18.5 3 -32.5t13 -16q20 -12 30.5 -5t14.5 21t4 32.5v30.5q0 8 1 24.5t0 32t-4 29t-11 17.5q-27 16 -38 0t-11 -35q-2 -10 -1 -19.5t1 -17.5q0 -10 -1 -26.5t-1 -35zM1139 1741 q16 0 32.5 -1t36.5 3q25 6 32 25.5t7 41.5q2 27 -4 51.5t-35 32.5q-20 4 -36.5 3t-32.5 -1v-155zM1161 -225h94v-25h-57v-82h45v-24h-45v-113h-37v244zM1189 101.5q-1 -35.5 3 -72.5q4 -31 15.5 -63t39.5 -46q27 -18 66 -17t61 23l2 -16h70v274h-137v-78h53v-33.5t-4 -45 t-15.5 -34.5t-33.5 -5q-14 4 -20.5 18t-8.5 31.5t-1 35t1 27.5v125q0 25 -1 56.5t5 58.5q6 10 17.5 17.5t23.5 4.5q27 -8 29 -32q4 -18 3 -38t-1 -42h88q0 45 -6 96t-52 80q-25 16 -57.5 17t-60.5 -9q-35 -10 -52.5 -41t-23.5 -65q-4 -37 -3 -76t1 -78q0 -37 -1 -72.5z M1235 -774l4 244h37l43 -195l41 195h33l4 -244h-27l-2 180l-41 -180h-22l-39 180l-2 -180h-29zM1276 -338q0 20 1 42t8 38t21.5 26.5t43.5 8.5q25 -2 37 -14.5t18 -31t6 -40v-39.5t-1 -41t-7 -41.5t-19.5 -30.5t-40.5 -12q-29 0 -43 13.5t-19 33.5t-5 44v44zM1307 -392.5 q0 -17.5 4 -32.5t16 -19q20 -10 29.5 -2t13.5 23t4 33.5v31.5q0 8 1 24.5t1 32.5t-4 29.5t-12 19.5q-23 12 -37 -4t-14 -37v-39q0 -8 -1 -25.5t-1 -35zM1358 1466v482h184v-52h-119v-155h97v-49h-97v-179h121v-47h-186zM1389 1055l63 16q2 -23 5 -45t18 -39q16 -18 38.5 -20 t38.5 14q20 16 18.5 45t-16.5 47q-10 14 -23 28.5t-30 24.5q-23 23 -49.5 44.5t-42.5 48.5q-14 23 -18.5 50t3 54t24 47.5t44.5 28.5q27 6 59.5 4t57.5 -19q23 -16 31 -45.5t10 -58.5l-51 -18q-4 29 -13.5 56.5t-39.5 33.5q-23 4 -40.5 -7.5t-21.5 -35.5q-6 -18 0 -35 t18.5 -31t28 -25.5t27.5 -23.5q33 -29 60.5 -57.5t35.5 -73.5q14 -55 -17.5 -100t-90.5 -45q-61 0 -92 38.5t-35 98.5zM1434 -774l4 244h35l43 -195l43 195h34l2 -244h-22l-4 180l-43 -180h-23l-37 180l-4 -180h-28zM1444 -225q23 0 46 2t44 -8q14 -8 22.5 -25.5t9.5 -36 t-6.5 -34t-25.5 -21.5l37 -121h-35l-35 113h-24v-113h-33v244zM1464 -156h76l150 660h-84zM1468 557v248h62t53 -25q8 -23 6 -51.5t-18 -42.5q-16 -12 -33.5 -13t-36.5 -1v-115h-33zM1477 -250v-82q23 0 39 7.5t16 35.5q0 29 -16.5 34t-38.5 5zM1501 696h18.5t20.5 4 q12 6 14 18.5t2 26.5q-2 29 -17 33t-38 4v-86zM1595 1466v482q47 0 97.5 1t91.5 -22q25 -16 39 -48t14 -66.5t-14.5 -64.5t-42.5 -40l63 -242h-63l-64 228h-51v-228h-70zM1614 557v248h31v-223h63v-25h-94zM1620 92q0 -45 6 -96t51 -80q25 -16 47.5 -17t51.5 9q35 10 52 41 t23 65q4 37 3 76t-1 78v260h-90v-311q0 -25 1 -56.5t-5 -58.5q-16 -23 -30.5 -20.5t-18.5 30.5q-4 18 -3 38t1 42h-88zM1634 -530h97v-21h-62v-80h51v-26h-51v-93h62v-24h-97v244zM1651 -225h125v-25h-45v-219h-35v219h-45v25zM1665 1741h32.5t35.5 4q23 10 29.5 31.5 t2.5 48.5q0 23 -5 39t-27 26q-16 8 -35 7t-33 -1v-155zM1681 922v477h187v-51h-119v-156h96v-49h-96v-178h119v-43h-187zM1733 557v248h94v-23h-64v-84h54v-24h-54v-92h64v-25h-94zM1755 -530q25 0 49.5 2t44.5 -9q14 -8 21.5 -24.5t7.5 -34.5t-8 -33.5t-23 -21.5l35 -123 h-33l-28 117h-27v-117h-39v244zM1792 -225h31v-107h63v107h37v-244h-37v113h-63v-113h-31v244zM1794 -551v-80q23 0 37 5t14 34q0 25 -14 33t-37 8zM1843 557l53 248h33l53 -248h-36l-11 66h-51l-10 -66h-31zM1866 -90h88l20 125h58l16 -125h88l-92 526h-82zM1886 645h45 l-18 113zM1886 1599l62 17q4 -23 8 -46.5t18 -37.5q16 -16 39 -18.5t39 12.5q18 16 17 44.5t-15 51.5q-12 20 -53 51q-23 20 -48.5 42t-41.5 46q-16 25 -20.5 54.5t1.5 55t23.5 46t46.5 29.5q27 6 59.5 3t55.5 -20q25 -16 33 -45t10 -57l-52 -17q-4 25 -13 53.5t-40 37.5 q-23 2 -41 -9.5t-22 -31.5t2 -38t18.5 -32t27.5 -26.5t30 -22.5q31 -29 59.5 -58.5t38.5 -70.5q10 -59 -21 -104.5t-92 -45.5q-59 0 -93 40t-36 97zM1911 -658.5q2 29.5 2 52.5q0 33 15.5 57.5t56.5 20.5q39 -4 47 -30t8 -54h-37q0 10 2 21t-4 22q-4 16 -21.5 18t-27.5 -14 q-12 -12 -10 -41t2 -47q0 -14 -2.5 -41t12.5 -43q8 -14 25.5 -11t21.5 19q6 10 4 22.5t-2 22.5h37q0 -31 -10.5 -61.5t-55.5 -30.5q-33 0 -46 18.5t-16 44t-1 55zM1960 -225h94v-25h-59v-82h51v-24h-51v-93h59v-20h-94v244zM1987 113l16 104l14 -104h-30zM1997 627l33 10 q0 -12 4 -28.5t16 -24.5q16 -4 27.5 5t11.5 23q0 25 -21.5 44.5t-37.5 35.5q-23 18 -31 49t18 56q14 8 32.5 9t33.5 -3q18 -8 25.5 -25.5t9.5 -34.5l-29 -6q-2 10 -5 22.5t-13 22.5q-12 4 -23.5 0t-15.5 -20q-6 -16 8 -32.5t24 -29.5q16 -12 33 -27.5t21 -37.5 q10 -29 -6.5 -54.5t-49.5 -25.5q-29 0 -46 20.5t-19 51.5zM2048 1217.5q-2 54.5 8 101.5q12 43 43 62.5t72 19.5q43 2 78 -12.5t49 -55.5q18 -47 14 -103t-4 -104q0 -33 1 -58.5t-5 -53.5q-19 -96 -125 -96q-51 0 -84 25.5t-43 74.5q-4 25 -3 48.5t1 49.5q0 47 -2 101.5z M2073 -530h34v-244h-34v244zM2114 1231q2 -41 2 -76v-86q0 -25 2.5 -53.5t27.5 -42.5q14 -8 33 -8t29 8q18 10 25.5 27.5t11.5 35.5q2 10 1 24.5t-1 24.5v170q0 20 -2 42t-19 38q-27 27 -59 17q-33 -8 -47 -45q-6 -35 -4 -76zM2132 -774l51 244h35l51 -244h-31l-10 63h-53 l-10 -63h-33zM2145 91q-1 -40 3 -77q2 -41 20.5 -67.5t43 -38.5t54.5 -10t56 18q45 29 51.5 80t6.5 96h-88q0 -23 1 -42t-3 -38q-4 -18 -23.5 -26.5t-25.5 16.5q-6 27 -5.5 58.5t0.5 56.5v108q0 25 -1 56.5t6 58.5q8 23 26.5 21.5t22.5 -31.5q4 -18 3 -38t-1 -42h88 q2 41 -6.5 80t-26.5 66.5t-48 40t-75 -2.5q-35 -10 -52.5 -41t-23.5 -65q-4 -37 -3 -76t1 -78q0 -43 -1 -83zM2146 557v248h99v-23h-64v-84h51v-24h-51v-92h66v-25h-101zM2157 -225h92v-25h-66v-82h49v-24h-49v-113h-26v244zM2171 1764.5q-2 56.5 10 103.5q12 41 44 60.5 t71 21.5q41 2 76.5 -14.5t50.5 -57.5q16 -45 15 -101.5t-1 -105.5q0 -29 -1 -56.5t-7 -53.5q-23 -99 -125 -99q-109 0 -127 107q-4 23 -4 45v45q0 49 -2 105.5zM2179 -688h43l-20 113zM2241 1778.5q4 -41.5 4 -76.5v-88q0 -25 1.5 -53.5t30.5 -42.5q27 -10 60 0 q20 10 25 27.5t8 33.5v223q0 20 -2.5 42t-18.5 36q-10 16 -25.5 18.5t-31.5 -2.5q-35 -2 -45 -41q-10 -35 -6 -76.5zM2267 -383.5q2 14.5 2 27.5v131h31v-109q0 -10 -1 -29.5t1 -38t9 -33t24 -14.5q16 0 24 14.5t11.5 33t2.5 38t-1 29.5v109h28v-111q0 -16 1 -35.5t-1 -39 t-9.5 -36t-25.5 -22.5q-35 -10 -60.5 5t-33.5 50q-4 16 -2 30.5zM2296 -530h31v-220h65v-24h-96v244zM2327 805h36l35 -180l39 180h27l-51 -248h-31zM2376 922v477h45l135 -320v320h59v-477h-45l-139 325v-325h-55zM2415 -90h88v221h16l53 -221h88l-71 262l71 264h-88 l-53 -221h-16v221h-88v-526zM2437 -225h33v-224h61v-20h-94v244zM2472 -530h31l41 -179l32 179h35l-57 -244h-27zM2494 557v248h33v-248h-33zM2503 1466v482h45l133 -320v320h57v-482h-43l-139 326v-326h-53zM2554 -225h35v-224h61v-20h-96v244zM2560 627l33 10 q0 -12 5 -28.5t17 -24.5q16 -4 25.5 5t9.5 23q2 25 -19.5 44.5t-37.5 35.5q-23 18 -32 49t17 56q35 16 68 6q16 -8 23.5 -25.5t9.5 -34.5l-29 -6q-2 10 -5 22.5t-13 22.5q-10 4 -21.5 0t-13.5 -20q-12 -16 4 -32.5t29 -29.5q14 -12 29.5 -27.5t19.5 -37.5q10 -29 -5.5 -54.5 t-50.5 -25.5q-33 0 -47 20.5t-16 51.5zM2636 -530h98v-21h-63v-80h51v-26h-51v-93h63v-24h-98v244zM2650 119h131v94h-131v-94zM2689 922v477h66v-434h120v-43h-186zM2710 557v248h36v-248h-36zM2734 -469l47 244h37l51 -244h-33l-12 61h-49l-14 -61h-27zM2759 -530 q23 0 47 2t47 -9q12 -8 20.5 -24.5t8.5 -34.5t-7.5 -33.5t-21.5 -21.5l31 -123h-31l-31 117h-29v-117h-34v244zM2767 782v23h119v-23h-41v-225h-31v225h-47zM2779 -383h43l-22 111zM2787 1466l101 482h65l101 -482h-62l-24 119h-97l-22 -119h-62zM2793 -551v-80q23 0 39.5 5 t16.5 34q0 25 -16.5 33t-39.5 8zM2828 -90h88v184h31q70 0 105.5 53.5t35.5 118t-36.5 117.5t-112.5 53h-111v-526zM2879 1634h82l-41 219zM2894 -225h20l72 -162v162h27v-244h-21l-70 164v-164h-28v244zM2894 1399h61l72 -230l70 230h65q-16 -49 -32.5 -98.5t-32.5 -100.5 l-33 -98q-6 -16 -5 -32.5t1 -29.5v-118h-66v98q0 18 2 36.5t-2 35.5q-4 27 -13 48t-20 44zM2908 -705l33 9q0 -12 4 -27.5t16 -19.5q18 -10 28.5 -1t10.5 23q0 25 -21.5 44.5t-37.5 31.5q-23 23 -31 54.5t21 51.5q14 10 33.5 12.5t31.5 -5.5q16 -4 23.5 -21.5t9.5 -34.5 l-29 -10q-2 12 -4 24.5t-12 22.5q-33 8 -41 -18q-8 -18 7.5 -32.5t29.5 -27.5q14 -16 29.5 -31.5t19.5 -37.5q10 -29 -6 -53.5t-47 -24.5q-33 0 -48.5 21.5t-19.5 49.5zM2916 172v188h11q37 0 54 -29.5t18 -64.5t-15 -64.5t-49 -29.5h-19zM3054 -225q23 0 53.5 1t52.5 -18 q23 -18 20.5 -50t-2.5 -56q0 -25 1.5 -58.5t-27.5 -50.5q-18 -16 -46.5 -14t-51.5 2v244zM3062 -530h30v-244h-30v244zM3086 -250v-199q23 0 38.5 4.5t19.5 30.5v129q-2 27 -18.5 31t-39.5 4zM3105 1466v482h65v-435h123v-47h-188zM3119 -90h88v526h-88v-526zM3129 -645 q0 23 1 45t8.5 38.5t22.5 26t44 7.5q27 -2 38 -14.5t15 -31t3 -40t-1 -39.5v-40t-5 -40.5t-18 -30.5t-40 -12q-29 0 -43 13t-19.5 32.5t-5.5 43v42.5zM3164 -692.5q0 -18.5 3.5 -32.5t13.5 -16q20 -12 30.5 -5t15.5 21t5 32.5v30.5q0 8 1 24.5t-1 32t-6 29t-13 17.5 q-25 16 -35 0t-10 -35v-37q0 -10 -2 -26.5t-2 -35zM3199 922v67h61v-67h-61zM3199 1399h61l-20 -375h-23zM3256 -90h88v227h43l47 -227h89l-60 246q37 23 49.5 64.5t12.5 80.5q0 72 -32 103.5t-63 31.5h-174v-526zM3301 -530h21l72 -162v162h26v-244h-22l-72 168v-168h-25 v244zM3344 215v145h50q20 0 30 -20.5t11.5 -47t-5 -49t-18.5 -28.5h-68zM3545 -90h88l21 125h57l16 -125h88l-92 526h-82zM3666 113l16 104l15 -104h-31zM3789 356h84v-446h88v446h86v80h-258v-80zM4082 -90h194v80h-106v166h84v80h-84v120h106v80h-194v-526z" />
<glyph unicode="6" horiz-adv-x="4378" d="M111 -90h82l2 215l41 -215h61l43 217l4 -217h76l-4 526h-90l-62 -330l-59 330h-86zM487 -90h82v258l93 -258h65v526h-82v-252l-90 252h-68v-526zM784 8v-98h88v98h-88zM909 94q0 -35 3 -65.5t18 -61.5q16 -37 52 -53t75 -8q41 8 64.5 38.5t27.5 65.5q12 98 -62 174 l-43 47q-14 14 -27 26.5t-20 35.5q-6 16 -1 44t32 25q14 -2 20.5 -14t9.5 -27.5t4 -32t1 -28.5l82 4q0 49 -10.5 98.5t-57.5 69.5q-29 12 -57.5 10t-52 -14t-39 -35.5t-17.5 -54.5q-4 -31 1.5 -63.5t23.5 -57.5q6 -16 19.5 -26.5t25.5 -24.5q25 -29 53.5 -60.5t28.5 -72.5 q0 -16 -3 -29.5t-18 -15.5q-12 -4 -20 2t-12 16q-12 23 -14.5 46.5t-4.5 47.5zM910 -658.5q1 29.5 1 52.5q0 33 17.5 57.5t58.5 20.5q37 -4 45 -30t8 -54h-32q0 10 1 21t-5 22q-4 16 -22.5 18t-27.5 -14q-12 -12 -9 -41t3 -47q0 -14 -3 -41t11 -43q6 -14 24.5 -11t23.5 19 q6 10 5 22.5t-1 22.5h32q0 -31 -10 -61.5t-53 -30.5q-31 0 -45 18.5t-18.5 44t-3.5 55zM1067 -645q0 23 1 45t8 38.5t22.5 26t44.5 7.5q25 -2 38 -14.5t18 -31t5 -40v-39.5v-40t-6 -40.5t-20 -30.5t-41 -12q-31 0 -45.5 13t-19.5 32.5t-5 43v42.5zM1073 1466v482h101 q37 0 68.5 -8.5t49.5 -45.5q10 -20 15.5 -45.5t3.5 -50t-12.5 -47t-28.5 -37.5q-27 -23 -64 -22.5t-67 0.5v-226h-66zM1077 1102v297h64v-320q0 -27 4 -61.5t35 -50.5q27 -8 44 0t26.5 24.5t13.5 38t4 41.5q2 41 1 77t-1 77v174h67v-219q0 -31 1 -70t-4 -76t-22.5 -67.5 t-54.5 -42.5q-43 -16 -94 -2t-69 65q-10 25 -12.5 52.5t-2.5 62.5zM1102 -692.5q0 -18.5 3 -32.5t13 -16q20 -12 30.5 -5t14.5 21t4 32.5v30.5q0 8 1 24.5t0 32t-4 29t-11 17.5q-27 16 -38 0t-11 -35q-2 -10 -1 -19.5t1 -17.5q0 -10 -1 -26.5t-1 -35zM1139 1741 q16 0 32.5 -1t36.5 3q25 6 32 25.5t7 41.5q2 27 -4 51.5t-35 32.5q-20 4 -36.5 3t-32.5 -1v-155zM1161 -225h94v-25h-57v-82h45v-24h-45v-113h-37v244zM1189 101.5q-1 -35.5 3 -72.5q4 -31 15.5 -63t39.5 -46q27 -18 66 -17t61 23l2 -16h70v274h-137v-78h53v-33.5t-4 -45 t-15.5 -34.5t-33.5 -5q-14 4 -20.5 18t-8.5 31.5t-1 35t1 27.5v125q0 25 -1 56.5t5 58.5q6 10 17.5 17.5t23.5 4.5q27 -8 29 -32q4 -18 3 -38t-1 -42h88q0 45 -6 96t-52 80q-25 16 -57.5 17t-60.5 -9q-35 -10 -52.5 -41t-23.5 -65q-4 -37 -3 -76t1 -78q0 -37 -1 -72.5z M1235 -774l4 244h37l43 -195l41 195h33l4 -244h-27l-2 180l-41 -180h-22l-39 180l-2 -180h-29zM1276 -338q0 20 1 42t8 38t21.5 26.5t43.5 8.5q25 -2 37 -14.5t18 -31t6 -40v-39.5t-1 -41t-7 -41.5t-19.5 -30.5t-40.5 -12q-29 0 -43 13.5t-19 33.5t-5 44v44zM1307 -392.5 q0 -17.5 4 -32.5t16 -19q20 -10 29.5 -2t13.5 23t4 33.5v31.5q0 8 1 24.5t1 32.5t-4 29.5t-12 19.5q-23 12 -37 -4t-14 -37v-39q0 -8 -1 -25.5t-1 -35zM1358 1466v482h184v-52h-119v-155h97v-49h-97v-179h121v-47h-186zM1389 1055l63 16q2 -23 5 -45t18 -39q16 -18 38.5 -20 t38.5 14q20 16 18.5 45t-16.5 47q-10 14 -23 28.5t-30 24.5q-23 23 -49.5 44.5t-42.5 48.5q-14 23 -18.5 50t3 54t24 47.5t44.5 28.5q27 6 59.5 4t57.5 -19q23 -16 31 -45.5t10 -58.5l-51 -18q-4 29 -13.5 56.5t-39.5 33.5q-23 4 -40.5 -7.5t-21.5 -35.5q-6 -18 0 -35 t18.5 -31t28 -25.5t27.5 -23.5q33 -29 60.5 -57.5t35.5 -73.5q14 -55 -17.5 -100t-90.5 -45q-61 0 -92 38.5t-35 98.5zM1434 -774l4 244h35l43 -195l43 195h34l2 -244h-22l-4 180l-43 -180h-23l-37 180l-4 -180h-28zM1444 -225q23 0 46 2t44 -8q14 -8 22.5 -25.5t9.5 -36 t-6.5 -34t-25.5 -21.5l37 -121h-35l-35 113h-24v-113h-33v244zM1464 -156h76l150 660h-84zM1468 557v248h62t53 -25q8 -23 6 -51.5t-18 -42.5q-16 -12 -33.5 -13t-36.5 -1v-115h-33zM1477 -250v-82q23 0 39 7.5t16 35.5q0 29 -16.5 34t-38.5 5zM1501 696h18.5t20.5 4 q12 6 14 18.5t2 26.5q-2 29 -17 33t-38 4v-86zM1595 1466v482q47 0 97.5 1t91.5 -22q25 -16 39 -48t14 -66.5t-14.5 -64.5t-42.5 -40l63 -242h-63l-64 228h-51v-228h-70zM1614 557v248h31v-223h63v-25h-94zM1620 92q0 -45 6 -96t51 -80q25 -16 47.5 -17t51.5 9q35 10 52 41 t23 65q4 37 3 76t-1 78v260h-90v-311q0 -25 1 -56.5t-5 -58.5q-16 -23 -30.5 -20.5t-18.5 30.5q-4 18 -3 38t1 42h-88zM1634 -530h97v-21h-62v-80h51v-26h-51v-93h62v-24h-97v244zM1651 -225h125v-25h-45v-219h-35v219h-45v25zM1665 1741h32.5t35.5 4q23 10 29.5 31.5 t2.5 48.5q0 23 -5 39t-27 26q-16 8 -35 7t-33 -1v-155zM1681 922v477h187v-51h-119v-156h96v-49h-96v-178h119v-43h-187zM1733 557v248h94v-23h-64v-84h54v-24h-54v-92h64v-25h-94zM1755 -530q25 0 49.5 2t44.5 -9q14 -8 21.5 -24.5t7.5 -34.5t-8 -33.5t-23 -21.5l35 -123 h-33l-28 117h-27v-117h-39v244zM1792 -225h31v-107h63v107h37v-244h-37v113h-63v-113h-31v244zM1794 -551v-80q23 0 37 5t14 34q0 25 -14 33t-37 8zM1843 557l53 248h33l53 -248h-36l-11 66h-51l-10 -66h-31zM1866 -90h88l20 125h58l16 -125h88l-92 526h-82zM1886 645h45 l-18 113zM1886 1599l62 17q4 -23 8 -46.5t18 -37.5q16 -16 39 -18.5t39 12.5q18 16 17 44.5t-15 51.5q-12 20 -53 51q-23 20 -48.5 42t-41.5 46q-16 25 -20.5 54.5t1.5 55t23.5 46t46.5 29.5q27 6 59.5 3t55.5 -20q25 -16 33 -45t10 -57l-52 -17q-4 25 -13 53.5t-40 37.5 q-23 2 -41 -9.5t-22 -31.5t2 -38t18.5 -32t27.5 -26.5t30 -22.5q31 -29 59.5 -58.5t38.5 -70.5q10 -59 -21 -104.5t-92 -45.5q-59 0 -93 40t-36 97zM1911 -658.5q2 29.5 2 52.5q0 33 15.5 57.5t56.5 20.5q39 -4 47 -30t8 -54h-37q0 10 2 21t-4 22q-4 16 -21.5 18t-27.5 -14 q-12 -12 -10 -41t2 -47q0 -14 -2.5 -41t12.5 -43q8 -14 25.5 -11t21.5 19q6 10 4 22.5t-2 22.5h37q0 -31 -10.5 -61.5t-55.5 -30.5q-33 0 -46 18.5t-16 44t-1 55zM1960 -225h94v-25h-59v-82h51v-24h-51v-93h59v-20h-94v244zM1987 113l16 104l14 -104h-30zM1997 627l33 10 q0 -12 4 -28.5t16 -24.5q16 -4 27.5 5t11.5 23q0 25 -21.5 44.5t-37.5 35.5q-23 18 -31 49t18 56q14 8 32.5 9t33.5 -3q18 -8 25.5 -25.5t9.5 -34.5l-29 -6q-2 10 -5 22.5t-13 22.5q-12 4 -23.5 0t-15.5 -20q-6 -16 8 -32.5t24 -29.5q16 -12 33 -27.5t21 -37.5 q10 -29 -6.5 -54.5t-49.5 -25.5q-29 0 -46 20.5t-19 51.5zM2048 1217.5q-2 54.5 8 101.5q12 43 43 62.5t72 19.5q43 2 78 -12.5t49 -55.5q18 -47 14 -103t-4 -104q0 -33 1 -58.5t-5 -53.5q-19 -96 -125 -96q-51 0 -84 25.5t-43 74.5q-4 25 -3 48.5t1 49.5q0 47 -2 101.5z M2073 -530h34v-244h-34v244zM2114 1231q2 -41 2 -76v-86q0 -25 2.5 -53.5t27.5 -42.5q14 -8 33 -8t29 8q18 10 25.5 27.5t11.5 35.5q2 10 1 24.5t-1 24.5v170q0 20 -2 42t-19 38q-27 27 -59 17q-33 -8 -47 -45q-6 -35 -4 -76zM2132 -774l51 244h35l51 -244h-31l-10 63h-53 l-10 -63h-33zM2145 91q-1 -40 3 -77q2 -41 20.5 -67.5t43 -38.5t54.5 -10t56 18q45 29 51.5 80t6.5 96h-88q0 -23 1 -42t-3 -38q-4 -18 -23.5 -26.5t-25.5 16.5q-6 27 -5.5 58.5t0.5 56.5v108q0 25 -1 56.5t6 58.5q8 23 26.5 21.5t22.5 -31.5q4 -18 3 -38t-1 -42h88 q2 41 -6.5 80t-26.5 66.5t-48 40t-75 -2.5q-35 -10 -52.5 -41t-23.5 -65q-4 -37 -3 -76t1 -78q0 -43 -1 -83zM2146 557v248h99v-23h-64v-84h51v-24h-51v-92h66v-25h-101zM2157 -225h92v-25h-66v-82h49v-24h-49v-113h-26v244zM2171 1764.5q-2 56.5 10 103.5q12 41 44 60.5 t71 21.5q41 2 76.5 -14.5t50.5 -57.5q16 -45 15 -101.5t-1 -105.5q0 -29 -1 -56.5t-7 -53.5q-23 -99 -125 -99q-109 0 -127 107q-4 23 -4 45v45q0 49 -2 105.5zM2179 -688h43l-20 113zM2241 1778.5q4 -41.5 4 -76.5v-88q0 -25 1.5 -53.5t30.5 -42.5q27 -10 60 0 q20 10 25 27.5t8 33.5v223q0 20 -2.5 42t-18.5 36q-10 16 -25.5 18.5t-31.5 -2.5q-35 -2 -45 -41q-10 -35 -6 -76.5zM2267 -383.5q2 14.5 2 27.5v131h31v-109q0 -10 -1 -29.5t1 -38t9 -33t24 -14.5q16 0 24 14.5t11.5 33t2.5 38t-1 29.5v109h28v-111q0 -16 1 -35.5t-1 -39 t-9.5 -36t-25.5 -22.5q-35 -10 -60.5 5t-33.5 50q-4 16 -2 30.5zM2296 -530h31v-220h65v-24h-96v244zM2327 805h36l35 -180l39 180h27l-51 -248h-31zM2376 922v477h45l135 -320v320h59v-477h-45l-139 325v-325h-55zM2415 -90h88v221h16l53 -221h88l-71 262l71 264h-88 l-53 -221h-16v221h-88v-526zM2437 -225h33v-224h61v-20h-94v244zM2472 -530h31l41 -179l32 179h35l-57 -244h-27zM2494 557v248h33v-248h-33zM2503 1466v482h45l133 -320v320h57v-482h-43l-139 326v-326h-53zM2554 -225h35v-224h61v-20h-96v244zM2560 627l33 10 q0 -12 5 -28.5t17 -24.5q16 -4 25.5 5t9.5 23q2 25 -19.5 44.5t-37.5 35.5q-23 18 -32 49t17 56q35 16 68 6q16 -8 23.5 -25.5t9.5 -34.5l-29 -6q-2 10 -5 22.5t-13 22.5q-10 4 -21.5 0t-13.5 -20q-12 -16 4 -32.5t29 -29.5q14 -12 29.5 -27.5t19.5 -37.5q10 -29 -5.5 -54.5 t-50.5 -25.5q-33 0 -47 20.5t-16 51.5zM2636 -530h98v-21h-63v-80h51v-26h-51v-93h63v-24h-98v244zM2650 119h131v94h-131v-94zM2689 922v477h66v-434h120v-43h-186zM2710 557v248h36v-248h-36zM2734 -469l47 244h37l51 -244h-33l-12 61h-49l-14 -61h-27zM2759 -530 q23 0 47 2t47 -9q12 -8 20.5 -24.5t8.5 -34.5t-7.5 -33.5t-21.5 -21.5l31 -123h-31l-31 117h-29v-117h-34v244zM2767 782v23h119v-23h-41v-225h-31v225h-47zM2779 -383h43l-22 111zM2787 1466l101 482h65l101 -482h-62l-24 119h-97l-22 -119h-62zM2793 -551v-80q23 0 39.5 5 t16.5 34q0 25 -16.5 33t-39.5 8zM2828 -90h88v184h31q70 0 105.5 53.5t35.5 118t-36.5 117.5t-112.5 53h-111v-526zM2879 1634h82l-41 219zM2894 -225h20l72 -162v162h27v-244h-21l-70 164v-164h-28v244zM2894 1399h61l72 -230l70 230h65q-16 -49 -32.5 -98.5t-32.5 -100.5 l-33 -98q-6 -16 -5 -32.5t1 -29.5v-118h-66v98q0 18 2 36.5t-2 35.5q-4 27 -13 48t-20 44zM2908 -705l33 9q0 -12 4 -27.5t16 -19.5q18 -10 28.5 -1t10.5 23q0 25 -21.5 44.5t-37.5 31.5q-23 23 -31 54.5t21 51.5q14 10 33.5 12.5t31.5 -5.5q16 -4 23.5 -21.5t9.5 -34.5 l-29 -10q-2 12 -4 24.5t-12 22.5q-33 8 -41 -18q-8 -18 7.5 -32.5t29.5 -27.5q14 -16 29.5 -31.5t19.5 -37.5q10 -29 -6 -53.5t-47 -24.5q-33 0 -48.5 21.5t-19.5 49.5zM2916 172v188h11q37 0 54 -29.5t18 -64.5t-15 -64.5t-49 -29.5h-19zM3054 -225q23 0 53.5 1t52.5 -18 q23 -18 20.5 -50t-2.5 -56q0 -25 1.5 -58.5t-27.5 -50.5q-18 -16 -46.5 -14t-51.5 2v244zM3062 -530h30v-244h-30v244zM3086 -250v-199q23 0 38.5 4.5t19.5 30.5v129q-2 27 -18.5 31t-39.5 4zM3105 1466v482h65v-435h123v-47h-188zM3119 -90h88v526h-88v-526zM3129 -645 q0 23 1 45t8.5 38.5t22.5 26t44 7.5q27 -2 38 -14.5t15 -31t3 -40t-1 -39.5v-40t-5 -40.5t-18 -30.5t-40 -12q-29 0 -43 13t-19.5 32.5t-5.5 43v42.5zM3164 -692.5q0 -18.5 3.5 -32.5t13.5 -16q20 -12 30.5 -5t15.5 21t5 32.5v30.5q0 8 1 24.5t-1 32t-6 29t-13 17.5 q-25 16 -35 0t-10 -35v-37q0 -10 -2 -26.5t-2 -35zM3199 922v67h61v-67h-61zM3199 1399h61l-20 -375h-23zM3256 -90h88v227h43l47 -227h89l-60 246q37 23 49.5 64.5t12.5 80.5q0 72 -32 103.5t-63 31.5h-174v-526zM3301 -530h21l72 -162v162h26v-244h-22l-72 168v-168h-25 v244zM3344 215v145h50q20 0 30 -20.5t11.5 -47t-5 -49t-18.5 -28.5h-68zM3545 -90h88l21 125h57l16 -125h88l-92 526h-82zM3666 113l16 104l15 -104h-31zM3789 356h84v-446h88v446h86v80h-258v-80zM4082 -90h194v80h-106v166h84v80h-84v120h106v80h-194v-526z" />
<glyph unicode="7" horiz-adv-x="4378" d="M111 -90h82l2 215l41 -215h61l43 217l4 -217h76l-4 526h-90l-62 -330l-59 330h-86zM487 -90h82v258l93 -258h65v526h-82v-252l-90 252h-68v-526zM784 8v-98h88v98h-88zM909 94q0 -35 3 -65.5t18 -61.5q16 -37 52 -53t75 -8q41 8 64.5 38.5t27.5 65.5q12 98 -62 174 l-43 47q-14 14 -27 26.5t-20 35.5q-6 16 -1 44t32 25q14 -2 20.5 -14t9.5 -27.5t4 -32t1 -28.5l82 4q0 49 -10.5 98.5t-57.5 69.5q-29 12 -57.5 10t-52 -14t-39 -35.5t-17.5 -54.5q-4 -31 1.5 -63.5t23.5 -57.5q6 -16 19.5 -26.5t25.5 -24.5q25 -29 53.5 -60.5t28.5 -72.5 q0 -16 -3 -29.5t-18 -15.5q-12 -4 -20 2t-12 16q-12 23 -14.5 46.5t-4.5 47.5zM910 -658.5q1 29.5 1 52.5q0 33 17.5 57.5t58.5 20.5q37 -4 45 -30t8 -54h-32q0 10 1 21t-5 22q-4 16 -22.5 18t-27.5 -14q-12 -12 -9 -41t3 -47q0 -14 -3 -41t11 -43q6 -14 24.5 -11t23.5 19 q6 10 5 22.5t-1 22.5h32q0 -31 -10 -61.5t-53 -30.5q-31 0 -45 18.5t-18.5 44t-3.5 55zM1067 -645q0 23 1 45t8 38.5t22.5 26t44.5 7.5q25 -2 38 -14.5t18 -31t5 -40v-39.5v-40t-6 -40.5t-20 -30.5t-41 -12q-31 0 -45.5 13t-19.5 32.5t-5 43v42.5zM1073 1466v482h101 q37 0 68.5 -8.5t49.5 -45.5q10 -20 15.5 -45.5t3.5 -50t-12.5 -47t-28.5 -37.5q-27 -23 -64 -22.5t-67 0.5v-226h-66zM1077 1102v297h64v-320q0 -27 4 -61.5t35 -50.5q27 -8 44 0t26.5 24.5t13.5 38t4 41.5q2 41 1 77t-1 77v174h67v-219q0 -31 1 -70t-4 -76t-22.5 -67.5 t-54.5 -42.5q-43 -16 -94 -2t-69 65q-10 25 -12.5 52.5t-2.5 62.5zM1102 -692.5q0 -18.5 3 -32.5t13 -16q20 -12 30.5 -5t14.5 21t4 32.5v30.5q0 8 1 24.5t0 32t-4 29t-11 17.5q-27 16 -38 0t-11 -35q-2 -10 -1 -19.5t1 -17.5q0 -10 -1 -26.5t-1 -35zM1139 1741 q16 0 32.5 -1t36.5 3q25 6 32 25.5t7 41.5q2 27 -4 51.5t-35 32.5q-20 4 -36.5 3t-32.5 -1v-155zM1161 -225h94v-25h-57v-82h45v-24h-45v-113h-37v244zM1189 101.5q-1 -35.5 3 -72.5q4 -31 15.5 -63t39.5 -46q27 -18 66 -17t61 23l2 -16h70v274h-137v-78h53v-33.5t-4 -45 t-15.5 -34.5t-33.5 -5q-14 4 -20.5 18t-8.5 31.5t-1 35t1 27.5v125q0 25 -1 56.5t5 58.5q6 10 17.5 17.5t23.5 4.5q27 -8 29 -32q4 -18 3 -38t-1 -42h88q0 45 -6 96t-52 80q-25 16 -57.5 17t-60.5 -9q-35 -10 -52.5 -41t-23.5 -65q-4 -37 -3 -76t1 -78q0 -37 -1 -72.5z M1235 -774l4 244h37l43 -195l41 195h33l4 -244h-27l-2 180l-41 -180h-22l-39 180l-2 -180h-29zM1276 -338q0 20 1 42t8 38t21.5 26.5t43.5 8.5q25 -2 37 -14.5t18 -31t6 -40v-39.5t-1 -41t-7 -41.5t-19.5 -30.5t-40.5 -12q-29 0 -43 13.5t-19 33.5t-5 44v44zM1307 -392.5 q0 -17.5 4 -32.5t16 -19q20 -10 29.5 -2t13.5 23t4 33.5v31.5q0 8 1 24.5t1 32.5t-4 29.5t-12 19.5q-23 12 -37 -4t-14 -37v-39q0 -8 -1 -25.5t-1 -35zM1358 1466v482h184v-52h-119v-155h97v-49h-97v-179h121v-47h-186zM1389 1055l63 16q2 -23 5 -45t18 -39q16 -18 38.5 -20 t38.5 14q20 16 18.5 45t-16.5 47q-10 14 -23 28.5t-30 24.5q-23 23 -49.5 44.5t-42.5 48.5q-14 23 -18.5 50t3 54t24 47.5t44.5 28.5q27 6 59.5 4t57.5 -19q23 -16 31 -45.5t10 -58.5l-51 -18q-4 29 -13.5 56.5t-39.5 33.5q-23 4 -40.5 -7.5t-21.5 -35.5q-6 -18 0 -35 t18.5 -31t28 -25.5t27.5 -23.5q33 -29 60.5 -57.5t35.5 -73.5q14 -55 -17.5 -100t-90.5 -45q-61 0 -92 38.5t-35 98.5zM1434 -774l4 244h35l43 -195l43 195h34l2 -244h-22l-4 180l-43 -180h-23l-37 180l-4 -180h-28zM1444 -225q23 0 46 2t44 -8q14 -8 22.5 -25.5t9.5 -36 t-6.5 -34t-25.5 -21.5l37 -121h-35l-35 113h-24v-113h-33v244zM1464 -156h76l150 660h-84zM1468 557v248h62t53 -25q8 -23 6 -51.5t-18 -42.5q-16 -12 -33.5 -13t-36.5 -1v-115h-33zM1477 -250v-82q23 0 39 7.5t16 35.5q0 29 -16.5 34t-38.5 5zM1501 696h18.5t20.5 4 q12 6 14 18.5t2 26.5q-2 29 -17 33t-38 4v-86zM1595 1466v482q47 0 97.5 1t91.5 -22q25 -16 39 -48t14 -66.5t-14.5 -64.5t-42.5 -40l63 -242h-63l-64 228h-51v-228h-70zM1614 557v248h31v-223h63v-25h-94zM1620 92q0 -45 6 -96t51 -80q25 -16 47.5 -17t51.5 9q35 10 52 41 t23 65q4 37 3 76t-1 78v260h-90v-311q0 -25 1 -56.5t-5 -58.5q-16 -23 -30.5 -20.5t-18.5 30.5q-4 18 -3 38t1 42h-88zM1634 -530h97v-21h-62v-80h51v-26h-51v-93h62v-24h-97v244zM1651 -225h125v-25h-45v-219h-35v219h-45v25zM1665 1741h32.5t35.5 4q23 10 29.5 31.5 t2.5 48.5q0 23 -5 39t-27 26q-16 8 -35 7t-33 -1v-155zM1681 922v477h187v-51h-119v-156h96v-49h-96v-178h119v-43h-187zM1733 557v248h94v-23h-64v-84h54v-24h-54v-92h64v-25h-94zM1755 -530q25 0 49.5 2t44.5 -9q14 -8 21.5 -24.5t7.5 -34.5t-8 -33.5t-23 -21.5l35 -123 h-33l-28 117h-27v-117h-39v244zM1792 -225h31v-107h63v107h37v-244h-37v113h-63v-113h-31v244zM1794 -551v-80q23 0 37 5t14 34q0 25 -14 33t-37 8zM1843 557l53 248h33l53 -248h-36l-11 66h-51l-10 -66h-31zM1866 -90h88l20 125h58l16 -125h88l-92 526h-82zM1886 645h45 l-18 113zM1886 1599l62 17q4 -23 8 -46.5t18 -37.5q16 -16 39 -18.5t39 12.5q18 16 17 44.5t-15 51.5q-12 20 -53 51q-23 20 -48.5 42t-41.5 46q-16 25 -20.5 54.5t1.5 55t23.5 46t46.5 29.5q27 6 59.5 3t55.5 -20q25 -16 33 -45t10 -57l-52 -17q-4 25 -13 53.5t-40 37.5 q-23 2 -41 -9.5t-22 -31.5t2 -38t18.5 -32t27.5 -26.5t30 -22.5q31 -29 59.5 -58.5t38.5 -70.5q10 -59 -21 -104.5t-92 -45.5q-59 0 -93 40t-36 97zM1911 -658.5q2 29.5 2 52.5q0 33 15.5 57.5t56.5 20.5q39 -4 47 -30t8 -54h-37q0 10 2 21t-4 22q-4 16 -21.5 18t-27.5 -14 q-12 -12 -10 -41t2 -47q0 -14 -2.5 -41t12.5 -43q8 -14 25.5 -11t21.5 19q6 10 4 22.5t-2 22.5h37q0 -31 -10.5 -61.5t-55.5 -30.5q-33 0 -46 18.5t-16 44t-1 55zM1960 -225h94v-25h-59v-82h51v-24h-51v-93h59v-20h-94v244zM1987 113l16 104l14 -104h-30zM1997 627l33 10 q0 -12 4 -28.5t16 -24.5q16 -4 27.5 5t11.5 23q0 25 -21.5 44.5t-37.5 35.5q-23 18 -31 49t18 56q14 8 32.5 9t33.5 -3q18 -8 25.5 -25.5t9.5 -34.5l-29 -6q-2 10 -5 22.5t-13 22.5q-12 4 -23.5 0t-15.5 -20q-6 -16 8 -32.5t24 -29.5q16 -12 33 -27.5t21 -37.5 q10 -29 -6.5 -54.5t-49.5 -25.5q-29 0 -46 20.5t-19 51.5zM2048 1217.5q-2 54.5 8 101.5q12 43 43 62.5t72 19.5q43 2 78 -12.5t49 -55.5q18 -47 14 -103t-4 -104q0 -33 1 -58.5t-5 -53.5q-19 -96 -125 -96q-51 0 -84 25.5t-43 74.5q-4 25 -3 48.5t1 49.5q0 47 -2 101.5z M2073 -530h34v-244h-34v244zM2114 1231q2 -41 2 -76v-86q0 -25 2.5 -53.5t27.5 -42.5q14 -8 33 -8t29 8q18 10 25.5 27.5t11.5 35.5q2 10 1 24.5t-1 24.5v170q0 20 -2 42t-19 38q-27 27 -59 17q-33 -8 -47 -45q-6 -35 -4 -76zM2132 -774l51 244h35l51 -244h-31l-10 63h-53 l-10 -63h-33zM2145 91q-1 -40 3 -77q2 -41 20.5 -67.5t43 -38.5t54.5 -10t56 18q45 29 51.5 80t6.5 96h-88q0 -23 1 -42t-3 -38q-4 -18 -23.5 -26.5t-25.5 16.5q-6 27 -5.5 58.5t0.5 56.5v108q0 25 -1 56.5t6 58.5q8 23 26.5 21.5t22.5 -31.5q4 -18 3 -38t-1 -42h88 q2 41 -6.5 80t-26.5 66.5t-48 40t-75 -2.5q-35 -10 -52.5 -41t-23.5 -65q-4 -37 -3 -76t1 -78q0 -43 -1 -83zM2146 557v248h99v-23h-64v-84h51v-24h-51v-92h66v-25h-101zM2157 -225h92v-25h-66v-82h49v-24h-49v-113h-26v244zM2171 1764.5q-2 56.5 10 103.5q12 41 44 60.5 t71 21.5q41 2 76.5 -14.5t50.5 -57.5q16 -45 15 -101.5t-1 -105.5q0 -29 -1 -56.5t-7 -53.5q-23 -99 -125 -99q-109 0 -127 107q-4 23 -4 45v45q0 49 -2 105.5zM2179 -688h43l-20 113zM2241 1778.5q4 -41.5 4 -76.5v-88q0 -25 1.5 -53.5t30.5 -42.5q27 -10 60 0 q20 10 25 27.5t8 33.5v223q0 20 -2.5 42t-18.5 36q-10 16 -25.5 18.5t-31.5 -2.5q-35 -2 -45 -41q-10 -35 -6 -76.5zM2267 -383.5q2 14.5 2 27.5v131h31v-109q0 -10 -1 -29.5t1 -38t9 -33t24 -14.5q16 0 24 14.5t11.5 33t2.5 38t-1 29.5v109h28v-111q0 -16 1 -35.5t-1 -39 t-9.5 -36t-25.5 -22.5q-35 -10 -60.5 5t-33.5 50q-4 16 -2 30.5zM2296 -530h31v-220h65v-24h-96v244zM2327 805h36l35 -180l39 180h27l-51 -248h-31zM2376 922v477h45l135 -320v320h59v-477h-45l-139 325v-325h-55zM2415 -90h88v221h16l53 -221h88l-71 262l71 264h-88 l-53 -221h-16v221h-88v-526zM2437 -225h33v-224h61v-20h-94v244zM2472 -530h31l41 -179l32 179h35l-57 -244h-27zM2494 557v248h33v-248h-33zM2503 1466v482h45l133 -320v320h57v-482h-43l-139 326v-326h-53zM2554 -225h35v-224h61v-20h-96v244zM2560 627l33 10 q0 -12 5 -28.5t17 -24.5q16 -4 25.5 5t9.5 23q2 25 -19.5 44.5t-37.5 35.5q-23 18 -32 49t17 56q35 16 68 6q16 -8 23.5 -25.5t9.5 -34.5l-29 -6q-2 10 -5 22.5t-13 22.5q-10 4 -21.5 0t-13.5 -20q-12 -16 4 -32.5t29 -29.5q14 -12 29.5 -27.5t19.5 -37.5q10 -29 -5.5 -54.5 t-50.5 -25.5q-33 0 -47 20.5t-16 51.5zM2636 -530h98v-21h-63v-80h51v-26h-51v-93h63v-24h-98v244zM2650 119h131v94h-131v-94zM2689 922v477h66v-434h120v-43h-186zM2710 557v248h36v-248h-36zM2734 -469l47 244h37l51 -244h-33l-12 61h-49l-14 -61h-27zM2759 -530 q23 0 47 2t47 -9q12 -8 20.5 -24.5t8.5 -34.5t-7.5 -33.5t-21.5 -21.5l31 -123h-31l-31 117h-29v-117h-34v244zM2767 782v23h119v-23h-41v-225h-31v225h-47zM2779 -383h43l-22 111zM2787 1466l101 482h65l101 -482h-62l-24 119h-97l-22 -119h-62zM2793 -551v-80q23 0 39.5 5 t16.5 34q0 25 -16.5 33t-39.5 8zM2828 -90h88v184h31q70 0 105.5 53.5t35.5 118t-36.5 117.5t-112.5 53h-111v-526zM2879 1634h82l-41 219zM2894 -225h20l72 -162v162h27v-244h-21l-70 164v-164h-28v244zM2894 1399h61l72 -230l70 230h65q-16 -49 -32.5 -98.5t-32.5 -100.5 l-33 -98q-6 -16 -5 -32.5t1 -29.5v-118h-66v98q0 18 2 36.5t-2 35.5q-4 27 -13 48t-20 44zM2908 -705l33 9q0 -12 4 -27.5t16 -19.5q18 -10 28.5 -1t10.5 23q0 25 -21.5 44.5t-37.5 31.5q-23 23 -31 54.5t21 51.5q14 10 33.5 12.5t31.5 -5.5q16 -4 23.5 -21.5t9.5 -34.5 l-29 -10q-2 12 -4 24.5t-12 22.5q-33 8 -41 -18q-8 -18 7.5 -32.5t29.5 -27.5q14 -16 29.5 -31.5t19.5 -37.5q10 -29 -6 -53.5t-47 -24.5q-33 0 -48.5 21.5t-19.5 49.5zM2916 172v188h11q37 0 54 -29.5t18 -64.5t-15 -64.5t-49 -29.5h-19zM3054 -225q23 0 53.5 1t52.5 -18 q23 -18 20.5 -50t-2.5 -56q0 -25 1.5 -58.5t-27.5 -50.5q-18 -16 -46.5 -14t-51.5 2v244zM3062 -530h30v-244h-30v244zM3086 -250v-199q23 0 38.5 4.5t19.5 30.5v129q-2 27 -18.5 31t-39.5 4zM3105 1466v482h65v-435h123v-47h-188zM3119 -90h88v526h-88v-526zM3129 -645 q0 23 1 45t8.5 38.5t22.5 26t44 7.5q27 -2 38 -14.5t15 -31t3 -40t-1 -39.5v-40t-5 -40.5t-18 -30.5t-40 -12q-29 0 -43 13t-19.5 32.5t-5.5 43v42.5zM3164 -692.5q0 -18.5 3.5 -32.5t13.5 -16q20 -12 30.5 -5t15.5 21t5 32.5v30.5q0 8 1 24.5t-1 32t-6 29t-13 17.5 q-25 16 -35 0t-10 -35v-37q0 -10 -2 -26.5t-2 -35zM3199 922v67h61v-67h-61zM3199 1399h61l-20 -375h-23zM3256 -90h88v227h43l47 -227h89l-60 246q37 23 49.5 64.5t12.5 80.5q0 72 -32 103.5t-63 31.5h-174v-526zM3301 -530h21l72 -162v162h26v-244h-22l-72 168v-168h-25 v244zM3344 215v145h50q20 0 30 -20.5t11.5 -47t-5 -49t-18.5 -28.5h-68zM3545 -90h88l21 125h57l16 -125h88l-92 526h-82zM3666 113l16 104l15 -104h-31zM3789 356h84v-446h88v446h86v80h-258v-80zM4082 -90h194v80h-106v166h84v80h-84v120h106v80h-194v-526z" />
<glyph unicode="8" horiz-adv-x="4378" d="M111 -90h82l2 215l41 -215h61l43 217l4 -217h76l-4 526h-90l-62 -330l-59 330h-86zM487 -90h82v258l93 -258h65v526h-82v-252l-90 252h-68v-526zM784 8v-98h88v98h-88zM909 94q0 -35 3 -65.5t18 -61.5q16 -37 52 -53t75 -8q41 8 64.5 38.5t27.5 65.5q12 98 -62 174 l-43 47q-14 14 -27 26.5t-20 35.5q-6 16 -1 44t32 25q14 -2 20.5 -14t9.5 -27.5t4 -32t1 -28.5l82 4q0 49 -10.5 98.5t-57.5 69.5q-29 12 -57.5 10t-52 -14t-39 -35.5t-17.5 -54.5q-4 -31 1.5 -63.5t23.5 -57.5q6 -16 19.5 -26.5t25.5 -24.5q25 -29 53.5 -60.5t28.5 -72.5 q0 -16 -3 -29.5t-18 -15.5q-12 -4 -20 2t-12 16q-12 23 -14.5 46.5t-4.5 47.5zM910 -658.5q1 29.5 1 52.5q0 33 17.5 57.5t58.5 20.5q37 -4 45 -30t8 -54h-32q0 10 1 21t-5 22q-4 16 -22.5 18t-27.5 -14q-12 -12 -9 -41t3 -47q0 -14 -3 -41t11 -43q6 -14 24.5 -11t23.5 19 q6 10 5 22.5t-1 22.5h32q0 -31 -10 -61.5t-53 -30.5q-31 0 -45 18.5t-18.5 44t-3.5 55zM1067 -645q0 23 1 45t8 38.5t22.5 26t44.5 7.5q25 -2 38 -14.5t18 -31t5 -40v-39.5v-40t-6 -40.5t-20 -30.5t-41 -12q-31 0 -45.5 13t-19.5 32.5t-5 43v42.5zM1073 1466v482h101 q37 0 68.5 -8.5t49.5 -45.5q10 -20 15.5 -45.5t3.5 -50t-12.5 -47t-28.5 -37.5q-27 -23 -64 -22.5t-67 0.5v-226h-66zM1077 1102v297h64v-320q0 -27 4 -61.5t35 -50.5q27 -8 44 0t26.5 24.5t13.5 38t4 41.5q2 41 1 77t-1 77v174h67v-219q0 -31 1 -70t-4 -76t-22.5 -67.5 t-54.5 -42.5q-43 -16 -94 -2t-69 65q-10 25 -12.5 52.5t-2.5 62.5zM1102 -692.5q0 -18.5 3 -32.5t13 -16q20 -12 30.5 -5t14.5 21t4 32.5v30.5q0 8 1 24.5t0 32t-4 29t-11 17.5q-27 16 -38 0t-11 -35q-2 -10 -1 -19.5t1 -17.5q0 -10 -1 -26.5t-1 -35zM1139 1741 q16 0 32.5 -1t36.5 3q25 6 32 25.5t7 41.5q2 27 -4 51.5t-35 32.5q-20 4 -36.5 3t-32.5 -1v-155zM1161 -225h94v-25h-57v-82h45v-24h-45v-113h-37v244zM1189 101.5q-1 -35.5 3 -72.5q4 -31 15.5 -63t39.5 -46q27 -18 66 -17t61 23l2 -16h70v274h-137v-78h53v-33.5t-4 -45 t-15.5 -34.5t-33.5 -5q-14 4 -20.5 18t-8.5 31.5t-1 35t1 27.5v125q0 25 -1 56.5t5 58.5q6 10 17.5 17.5t23.5 4.5q27 -8 29 -32q4 -18 3 -38t-1 -42h88q0 45 -6 96t-52 80q-25 16 -57.5 17t-60.5 -9q-35 -10 -52.5 -41t-23.5 -65q-4 -37 -3 -76t1 -78q0 -37 -1 -72.5z M1235 -774l4 244h37l43 -195l41 195h33l4 -244h-27l-2 180l-41 -180h-22l-39 180l-2 -180h-29zM1276 -338q0 20 1 42t8 38t21.5 26.5t43.5 8.5q25 -2 37 -14.5t18 -31t6 -40v-39.5t-1 -41t-7 -41.5t-19.5 -30.5t-40.5 -12q-29 0 -43 13.5t-19 33.5t-5 44v44zM1307 -392.5 q0 -17.5 4 -32.5t16 -19q20 -10 29.5 -2t13.5 23t4 33.5v31.5q0 8 1 24.5t1 32.5t-4 29.5t-12 19.5q-23 12 -37 -4t-14 -37v-39q0 -8 -1 -25.5t-1 -35zM1358 1466v482h184v-52h-119v-155h97v-49h-97v-179h121v-47h-186zM1389 1055l63 16q2 -23 5 -45t18 -39q16 -18 38.5 -20 t38.5 14q20 16 18.5 45t-16.5 47q-10 14 -23 28.5t-30 24.5q-23 23 -49.5 44.5t-42.5 48.5q-14 23 -18.5 50t3 54t24 47.5t44.5 28.5q27 6 59.5 4t57.5 -19q23 -16 31 -45.5t10 -58.5l-51 -18q-4 29 -13.5 56.5t-39.5 33.5q-23 4 -40.5 -7.5t-21.5 -35.5q-6 -18 0 -35 t18.5 -31t28 -25.5t27.5 -23.5q33 -29 60.5 -57.5t35.5 -73.5q14 -55 -17.5 -100t-90.5 -45q-61 0 -92 38.5t-35 98.5zM1434 -774l4 244h35l43 -195l43 195h34l2 -244h-22l-4 180l-43 -180h-23l-37 180l-4 -180h-28zM1444 -225q23 0 46 2t44 -8q14 -8 22.5 -25.5t9.5 -36 t-6.5 -34t-25.5 -21.5l37 -121h-35l-35 113h-24v-113h-33v244zM1464 -156h76l150 660h-84zM1468 557v248h62t53 -25q8 -23 6 -51.5t-18 -42.5q-16 -12 -33.5 -13t-36.5 -1v-115h-33zM1477 -250v-82q23 0 39 7.5t16 35.5q0 29 -16.5 34t-38.5 5zM1501 696h18.5t20.5 4 q12 6 14 18.5t2 26.5q-2 29 -17 33t-38 4v-86zM1595 1466v482q47 0 97.5 1t91.5 -22q25 -16 39 -48t14 -66.5t-14.5 -64.5t-42.5 -40l63 -242h-63l-64 228h-51v-228h-70zM1614 557v248h31v-223h63v-25h-94zM1620 92q0 -45 6 -96t51 -80q25 -16 47.5 -17t51.5 9q35 10 52 41 t23 65q4 37 3 76t-1 78v260h-90v-311q0 -25 1 -56.5t-5 -58.5q-16 -23 -30.5 -20.5t-18.5 30.5q-4 18 -3 38t1 42h-88zM1634 -530h97v-21h-62v-80h51v-26h-51v-93h62v-24h-97v244zM1651 -225h125v-25h-45v-219h-35v219h-45v25zM1665 1741h32.5t35.5 4q23 10 29.5 31.5 t2.5 48.5q0 23 -5 39t-27 26q-16 8 -35 7t-33 -1v-155zM1681 922v477h187v-51h-119v-156h96v-49h-96v-178h119v-43h-187zM1733 557v248h94v-23h-64v-84h54v-24h-54v-92h64v-25h-94zM1755 -530q25 0 49.5 2t44.5 -9q14 -8 21.5 -24.5t7.5 -34.5t-8 -33.5t-23 -21.5l35 -123 h-33l-28 117h-27v-117h-39v244zM1792 -225h31v-107h63v107h37v-244h-37v113h-63v-113h-31v244zM1794 -551v-80q23 0 37 5t14 34q0 25 -14 33t-37 8zM1843 557l53 248h33l53 -248h-36l-11 66h-51l-10 -66h-31zM1866 -90h88l20 125h58l16 -125h88l-92 526h-82zM1886 645h45 l-18 113zM1886 1599l62 17q4 -23 8 -46.5t18 -37.5q16 -16 39 -18.5t39 12.5q18 16 17 44.5t-15 51.5q-12 20 -53 51q-23 20 -48.5 42t-41.5 46q-16 25 -20.5 54.5t1.5 55t23.5 46t46.5 29.5q27 6 59.5 3t55.5 -20q25 -16 33 -45t10 -57l-52 -17q-4 25 -13 53.5t-40 37.5 q-23 2 -41 -9.5t-22 -31.5t2 -38t18.5 -32t27.5 -26.5t30 -22.5q31 -29 59.5 -58.5t38.5 -70.5q10 -59 -21 -104.5t-92 -45.5q-59 0 -93 40t-36 97zM1911 -658.5q2 29.5 2 52.5q0 33 15.5 57.5t56.5 20.5q39 -4 47 -30t8 -54h-37q0 10 2 21t-4 22q-4 16 -21.5 18t-27.5 -14 q-12 -12 -10 -41t2 -47q0 -14 -2.5 -41t12.5 -43q8 -14 25.5 -11t21.5 19q6 10 4 22.5t-2 22.5h37q0 -31 -10.5 -61.5t-55.5 -30.5q-33 0 -46 18.5t-16 44t-1 55zM1960 -225h94v-25h-59v-82h51v-24h-51v-93h59v-20h-94v244zM1987 113l16 104l14 -104h-30zM1997 627l33 10 q0 -12 4 -28.5t16 -24.5q16 -4 27.5 5t11.5 23q0 25 -21.5 44.5t-37.5 35.5q-23 18 -31 49t18 56q14 8 32.5 9t33.5 -3q18 -8 25.5 -25.5t9.5 -34.5l-29 -6q-2 10 -5 22.5t-13 22.5q-12 4 -23.5 0t-15.5 -20q-6 -16 8 -32.5t24 -29.5q16 -12 33 -27.5t21 -37.5 q10 -29 -6.5 -54.5t-49.5 -25.5q-29 0 -46 20.5t-19 51.5zM2048 1217.5q-2 54.5 8 101.5q12 43 43 62.5t72 19.5q43 2 78 -12.5t49 -55.5q18 -47 14 -103t-4 -104q0 -33 1 -58.5t-5 -53.5q-19 -96 -125 -96q-51 0 -84 25.5t-43 74.5q-4 25 -3 48.5t1 49.5q0 47 -2 101.5z M2073 -530h34v-244h-34v244zM2114 1231q2 -41 2 -76v-86q0 -25 2.5 -53.5t27.5 -42.5q14 -8 33 -8t29 8q18 10 25.5 27.5t11.5 35.5q2 10 1 24.5t-1 24.5v170q0 20 -2 42t-19 38q-27 27 -59 17q-33 -8 -47 -45q-6 -35 -4 -76zM2132 -774l51 244h35l51 -244h-31l-10 63h-53 l-10 -63h-33zM2145 91q-1 -40 3 -77q2 -41 20.5 -67.5t43 -38.5t54.5 -10t56 18q45 29 51.5 80t6.5 96h-88q0 -23 1 -42t-3 -38q-4 -18 -23.5 -26.5t-25.5 16.5q-6 27 -5.5 58.5t0.5 56.5v108q0 25 -1 56.5t6 58.5q8 23 26.5 21.5t22.5 -31.5q4 -18 3 -38t-1 -42h88 q2 41 -6.5 80t-26.5 66.5t-48 40t-75 -2.5q-35 -10 -52.5 -41t-23.5 -65q-4 -37 -3 -76t1 -78q0 -43 -1 -83zM2146 557v248h99v-23h-64v-84h51v-24h-51v-92h66v-25h-101zM2157 -225h92v-25h-66v-82h49v-24h-49v-113h-26v244zM2171 1764.5q-2 56.5 10 103.5q12 41 44 60.5 t71 21.5q41 2 76.5 -14.5t50.5 -57.5q16 -45 15 -101.5t-1 -105.5q0 -29 -1 -56.5t-7 -53.5q-23 -99 -125 -99q-109 0 -127 107q-4 23 -4 45v45q0 49 -2 105.5zM2179 -688h43l-20 113zM2241 1778.5q4 -41.5 4 -76.5v-88q0 -25 1.5 -53.5t30.5 -42.5q27 -10 60 0 q20 10 25 27.5t8 33.5v223q0 20 -2.5 42t-18.5 36q-10 16 -25.5 18.5t-31.5 -2.5q-35 -2 -45 -41q-10 -35 -6 -76.5zM2267 -383.5q2 14.5 2 27.5v131h31v-109q0 -10 -1 -29.5t1 -38t9 -33t24 -14.5q16 0 24 14.5t11.5 33t2.5 38t-1 29.5v109h28v-111q0 -16 1 -35.5t-1 -39 t-9.5 -36t-25.5 -22.5q-35 -10 -60.5 5t-33.5 50q-4 16 -2 30.5zM2296 -530h31v-220h65v-24h-96v244zM2327 805h36l35 -180l39 180h27l-51 -248h-31zM2376 922v477h45l135 -320v320h59v-477h-45l-139 325v-325h-55zM2415 -90h88v221h16l53 -221h88l-71 262l71 264h-88 l-53 -221h-16v221h-88v-526zM2437 -225h33v-224h61v-20h-94v244zM2472 -530h31l41 -179l32 179h35l-57 -244h-27zM2494 557v248h33v-248h-33zM2503 1466v482h45l133 -320v320h57v-482h-43l-139 326v-326h-53zM2554 -225h35v-224h61v-20h-96v244zM2560 627l33 10 q0 -12 5 -28.5t17 -24.5q16 -4 25.5 5t9.5 23q2 25 -19.5 44.5t-37.5 35.5q-23 18 -32 49t17 56q35 16 68 6q16 -8 23.5 -25.5t9.5 -34.5l-29 -6q-2 10 -5 22.5t-13 22.5q-10 4 -21.5 0t-13.5 -20q-12 -16 4 -32.5t29 -29.5q14 -12 29.5 -27.5t19.5 -37.5q10 -29 -5.5 -54.5 t-50.5 -25.5q-33 0 -47 20.5t-16 51.5zM2636 -530h98v-21h-63v-80h51v-26h-51v-93h63v-24h-98v244zM2650 119h131v94h-131v-94zM2689 922v477h66v-434h120v-43h-186zM2710 557v248h36v-248h-36zM2734 -469l47 244h37l51 -244h-33l-12 61h-49l-14 -61h-27zM2759 -530 q23 0 47 2t47 -9q12 -8 20.5 -24.5t8.5 -34.5t-7.5 -33.5t-21.5 -21.5l31 -123h-31l-31 117h-29v-117h-34v244zM2767 782v23h119v-23h-41v-225h-31v225h-47zM2779 -383h43l-22 111zM2787 1466l101 482h65l101 -482h-62l-24 119h-97l-22 -119h-62zM2793 -551v-80q23 0 39.5 5 t16.5 34q0 25 -16.5 33t-39.5 8zM2828 -90h88v184h31q70 0 105.5 53.5t35.5 118t-36.5 117.5t-112.5 53h-111v-526zM2879 1634h82l-41 219zM2894 -225h20l72 -162v162h27v-244h-21l-70 164v-164h-28v244zM2894 1399h61l72 -230l70 230h65q-16 -49 -32.5 -98.5t-32.5 -100.5 l-33 -98q-6 -16 -5 -32.5t1 -29.5v-118h-66v98q0 18 2 36.5t-2 35.5q-4 27 -13 48t-20 44zM2908 -705l33 9q0 -12 4 -27.5t16 -19.5q18 -10 28.5 -1t10.5 23q0 25 -21.5 44.5t-37.5 31.5q-23 23 -31 54.5t21 51.5q14 10 33.5 12.5t31.5 -5.5q16 -4 23.5 -21.5t9.5 -34.5 l-29 -10q-2 12 -4 24.5t-12 22.5q-33 8 -41 -18q-8 -18 7.5 -32.5t29.5 -27.5q14 -16 29.5 -31.5t19.5 -37.5q10 -29 -6 -53.5t-47 -24.5q-33 0 -48.5 21.5t-19.5 49.5zM2916 172v188h11q37 0 54 -29.5t18 -64.5t-15 -64.5t-49 -29.5h-19zM3054 -225q23 0 53.5 1t52.5 -18 q23 -18 20.5 -50t-2.5 -56q0 -25 1.5 -58.5t-27.5 -50.5q-18 -16 -46.5 -14t-51.5 2v244zM3062 -530h30v-244h-30v244zM3086 -250v-199q23 0 38.5 4.5t19.5 30.5v129q-2 27 -18.5 31t-39.5 4zM3105 1466v482h65v-435h123v-47h-188zM3119 -90h88v526h-88v-526zM3129 -645 q0 23 1 45t8.5 38.5t22.5 26t44 7.5q27 -2 38 -14.5t15 -31t3 -40t-1 -39.5v-40t-5 -40.5t-18 -30.5t-40 -12q-29 0 -43 13t-19.5 32.5t-5.5 43v42.5zM3164 -692.5q0 -18.5 3.5 -32.5t13.5 -16q20 -12 30.5 -5t15.5 21t5 32.5v30.5q0 8 1 24.5t-1 32t-6 29t-13 17.5 q-25 16 -35 0t-10 -35v-37q0 -10 -2 -26.5t-2 -35zM3199 922v67h61v-67h-61zM3199 1399h61l-20 -375h-23zM3256 -90h88v227h43l47 -227h89l-60 246q37 23 49.5 64.5t12.5 80.5q0 72 -32 103.5t-63 31.5h-174v-526zM3301 -530h21l72 -162v162h26v-244h-22l-72 168v-168h-25 v244zM3344 215v145h50q20 0 30 -20.5t11.5 -47t-5 -49t-18.5 -28.5h-68zM3545 -90h88l21 125h57l16 -125h88l-92 526h-82zM3666 113l16 104l15 -104h-31zM3789 356h84v-446h88v446h86v80h-258v-80zM4082 -90h194v80h-106v166h84v80h-84v120h106v80h-194v-526z" />
<glyph unicode="9" horiz-adv-x="4378" d="M111 -90h82l2 215l41 -215h61l43 217l4 -217h76l-4 526h-90l-62 -330l-59 330h-86zM487 -90h82v258l93 -258h65v526h-82v-252l-90 252h-68v-526zM784 8v-98h88v98h-88zM909 94q0 -35 3 -65.5t18 -61.5q16 -37 52 -53t75 -8q41 8 64.5 38.5t27.5 65.5q12 98 -62 174 l-43 47q-14 14 -27 26.5t-20 35.5q-6 16 -1 44t32 25q14 -2 20.5 -14t9.5 -27.5t4 -32t1 -28.5l82 4q0 49 -10.5 98.5t-57.5 69.5q-29 12 -57.5 10t-52 -14t-39 -35.5t-17.5 -54.5q-4 -31 1.5 -63.5t23.5 -57.5q6 -16 19.5 -26.5t25.5 -24.5q25 -29 53.5 -60.5t28.5 -72.5 q0 -16 -3 -29.5t-18 -15.5q-12 -4 -20 2t-12 16q-12 23 -14.5 46.5t-4.5 47.5zM910 -658.5q1 29.5 1 52.5q0 33 17.5 57.5t58.5 20.5q37 -4 45 -30t8 -54h-32q0 10 1 21t-5 22q-4 16 -22.5 18t-27.5 -14q-12 -12 -9 -41t3 -47q0 -14 -3 -41t11 -43q6 -14 24.5 -11t23.5 19 q6 10 5 22.5t-1 22.5h32q0 -31 -10 -61.5t-53 -30.5q-31 0 -45 18.5t-18.5 44t-3.5 55zM1067 -645q0 23 1 45t8 38.5t22.5 26t44.5 7.5q25 -2 38 -14.5t18 -31t5 -40v-39.5v-40t-6 -40.5t-20 -30.5t-41 -12q-31 0 -45.5 13t-19.5 32.5t-5 43v42.5zM1073 1466v482h101 q37 0 68.5 -8.5t49.5 -45.5q10 -20 15.5 -45.5t3.5 -50t-12.5 -47t-28.5 -37.5q-27 -23 -64 -22.5t-67 0.5v-226h-66zM1077 1102v297h64v-320q0 -27 4 -61.5t35 -50.5q27 -8 44 0t26.5 24.5t13.5 38t4 41.5q2 41 1 77t-1 77v174h67v-219q0 -31 1 -70t-4 -76t-22.5 -67.5 t-54.5 -42.5q-43 -16 -94 -2t-69 65q-10 25 -12.5 52.5t-2.5 62.5zM1102 -692.5q0 -18.5 3 -32.5t13 -16q20 -12 30.5 -5t14.5 21t4 32.5v30.5q0 8 1 24.5t0 32t-4 29t-11 17.5q-27 16 -38 0t-11 -35q-2 -10 -1 -19.5t1 -17.5q0 -10 -1 -26.5t-1 -35zM1139 1741 q16 0 32.5 -1t36.5 3q25 6 32 25.5t7 41.5q2 27 -4 51.5t-35 32.5q-20 4 -36.5 3t-32.5 -1v-155zM1161 -225h94v-25h-57v-82h45v-24h-45v-113h-37v244zM1189 101.5q-1 -35.5 3 -72.5q4 -31 15.5 -63t39.5 -46q27 -18 66 -17t61 23l2 -16h70v274h-137v-78h53v-33.5t-4 -45 t-15.5 -34.5t-33.5 -5q-14 4 -20.5 18t-8.5 31.5t-1 35t1 27.5v125q0 25 -1 56.5t5 58.5q6 10 17.5 17.5t23.5 4.5q27 -8 29 -32q4 -18 3 -38t-1 -42h88q0 45 -6 96t-52 80q-25 16 -57.5 17t-60.5 -9q-35 -10 -52.5 -41t-23.5 -65q-4 -37 -3 -76t1 -78q0 -37 -1 -72.5z M1235 -774l4 244h37l43 -195l41 195h33l4 -244h-27l-2 180l-41 -180h-22l-39 180l-2 -180h-29zM1276 -338q0 20 1 42t8 38t21.5 26.5t43.5 8.5q25 -2 37 -14.5t18 -31t6 -40v-39.5t-1 -41t-7 -41.5t-19.5 -30.5t-40.5 -12q-29 0 -43 13.5t-19 33.5t-5 44v44zM1307 -392.5 q0 -17.5 4 -32.5t16 -19q20 -10 29.5 -2t13.5 23t4 33.5v31.5q0 8 1 24.5t1 32.5t-4 29.5t-12 19.5q-23 12 -37 -4t-14 -37v-39q0 -8 -1 -25.5t-1 -35zM1358 1466v482h184v-52h-119v-155h97v-49h-97v-179h121v-47h-186zM1389 1055l63 16q2 -23 5 -45t18 -39q16 -18 38.5 -20 t38.5 14q20 16 18.5 45t-16.5 47q-10 14 -23 28.5t-30 24.5q-23 23 -49.5 44.5t-42.5 48.5q-14 23 -18.5 50t3 54t24 47.5t44.5 28.5q27 6 59.5 4t57.5 -19q23 -16 31 -45.5t10 -58.5l-51 -18q-4 29 -13.5 56.5t-39.5 33.5q-23 4 -40.5 -7.5t-21.5 -35.5q-6 -18 0 -35 t18.5 -31t28 -25.5t27.5 -23.5q33 -29 60.5 -57.5t35.5 -73.5q14 -55 -17.5 -100t-90.5 -45q-61 0 -92 38.5t-35 98.5zM1434 -774l4 244h35l43 -195l43 195h34l2 -244h-22l-4 180l-43 -180h-23l-37 180l-4 -180h-28zM1444 -225q23 0 46 2t44 -8q14 -8 22.5 -25.5t9.5 -36 t-6.5 -34t-25.5 -21.5l37 -121h-35l-35 113h-24v-113h-33v244zM1464 -156h76l150 660h-84zM1468 557v248h62t53 -25q8 -23 6 -51.5t-18 -42.5q-16 -12 -33.5 -13t-36.5 -1v-115h-33zM1477 -250v-82q23 0 39 7.5t16 35.5q0 29 -16.5 34t-38.5 5zM1501 696h18.5t20.5 4 q12 6 14 18.5t2 26.5q-2 29 -17 33t-38 4v-86zM1595 1466v482q47 0 97.5 1t91.5 -22q25 -16 39 -48t14 -66.5t-14.5 -64.5t-42.5 -40l63 -242h-63l-64 228h-51v-228h-70zM1614 557v248h31v-223h63v-25h-94zM1620 92q0 -45 6 -96t51 -80q25 -16 47.5 -17t51.5 9q35 10 52 41 t23 65q4 37 3 76t-1 78v260h-90v-311q0 -25 1 -56.5t-5 -58.5q-16 -23 -30.5 -20.5t-18.5 30.5q-4 18 -3 38t1 42h-88zM1634 -530h97v-21h-62v-80h51v-26h-51v-93h62v-24h-97v244zM1651 -225h125v-25h-45v-219h-35v219h-45v25zM1665 1741h32.5t35.5 4q23 10 29.5 31.5 t2.5 48.5q0 23 -5 39t-27 26q-16 8 -35 7t-33 -1v-155zM1681 922v477h187v-51h-119v-156h96v-49h-96v-178h119v-43h-187zM1733 557v248h94v-23h-64v-84h54v-24h-54v-92h64v-25h-94zM1755 -530q25 0 49.5 2t44.5 -9q14 -8 21.5 -24.5t7.5 -34.5t-8 -33.5t-23 -21.5l35 -123 h-33l-28 117h-27v-117h-39v244zM1792 -225h31v-107h63v107h37v-244h-37v113h-63v-113h-31v244zM1794 -551v-80q23 0 37 5t14 34q0 25 -14 33t-37 8zM1843 557l53 248h33l53 -248h-36l-11 66h-51l-10 -66h-31zM1866 -90h88l20 125h58l16 -125h88l-92 526h-82zM1886 645h45 l-18 113zM1886 1599l62 17q4 -23 8 -46.5t18 -37.5q16 -16 39 -18.5t39 12.5q18 16 17 44.5t-15 51.5q-12 20 -53 51q-23 20 -48.5 42t-41.5 46q-16 25 -20.5 54.5t1.5 55t23.5 46t46.5 29.5q27 6 59.5 3t55.5 -20q25 -16 33 -45t10 -57l-52 -17q-4 25 -13 53.5t-40 37.5 q-23 2 -41 -9.5t-22 -31.5t2 -38t18.5 -32t27.5 -26.5t30 -22.5q31 -29 59.5 -58.5t38.5 -70.5q10 -59 -21 -104.5t-92 -45.5q-59 0 -93 40t-36 97zM1911 -658.5q2 29.5 2 52.5q0 33 15.5 57.5t56.5 20.5q39 -4 47 -30t8 -54h-37q0 10 2 21t-4 22q-4 16 -21.5 18t-27.5 -14 q-12 -12 -10 -41t2 -47q0 -14 -2.5 -41t12.5 -43q8 -14 25.5 -11t21.5 19q6 10 4 22.5t-2 22.5h37q0 -31 -10.5 -61.5t-55.5 -30.5q-33 0 -46 18.5t-16 44t-1 55zM1960 -225h94v-25h-59v-82h51v-24h-51v-93h59v-20h-94v244zM1987 113l16 104l14 -104h-30zM1997 627l33 10 q0 -12 4 -28.5t16 -24.5q16 -4 27.5 5t11.5 23q0 25 -21.5 44.5t-37.5 35.5q-23 18 -31 49t18 56q14 8 32.5 9t33.5 -3q18 -8 25.5 -25.5t9.5 -34.5l-29 -6q-2 10 -5 22.5t-13 22.5q-12 4 -23.5 0t-15.5 -20q-6 -16 8 -32.5t24 -29.5q16 -12 33 -27.5t21 -37.5 q10 -29 -6.5 -54.5t-49.5 -25.5q-29 0 -46 20.5t-19 51.5zM2048 1217.5q-2 54.5 8 101.5q12 43 43 62.5t72 19.5q43 2 78 -12.5t49 -55.5q18 -47 14 -103t-4 -104q0 -33 1 -58.5t-5 -53.5q-19 -96 -125 -96q-51 0 -84 25.5t-43 74.5q-4 25 -3 48.5t1 49.5q0 47 -2 101.5z M2073 -530h34v-244h-34v244zM2114 1231q2 -41 2 -76v-86q0 -25 2.5 -53.5t27.5 -42.5q14 -8 33 -8t29 8q18 10 25.5 27.5t11.5 35.5q2 10 1 24.5t-1 24.5v170q0 20 -2 42t-19 38q-27 27 -59 17q-33 -8 -47 -45q-6 -35 -4 -76zM2132 -774l51 244h35l51 -244h-31l-10 63h-53 l-10 -63h-33zM2145 91q-1 -40 3 -77q2 -41 20.5 -67.5t43 -38.5t54.5 -10t56 18q45 29 51.5 80t6.5 96h-88q0 -23 1 -42t-3 -38q-4 -18 -23.5 -26.5t-25.5 16.5q-6 27 -5.5 58.5t0.5 56.5v108q0 25 -1 56.5t6 58.5q8 23 26.5 21.5t22.5 -31.5q4 -18 3 -38t-1 -42h88 q2 41 -6.5 80t-26.5 66.5t-48 40t-75 -2.5q-35 -10 -52.5 -41t-23.5 -65q-4 -37 -3 -76t1 -78q0 -43 -1 -83zM2146 557v248h99v-23h-64v-84h51v-24h-51v-92h66v-25h-101zM2157 -225h92v-25h-66v-82h49v-24h-49v-113h-26v244zM2171 1764.5q-2 56.5 10 103.5q12 41 44 60.5 t71 21.5q41 2 76.5 -14.5t50.5 -57.5q16 -45 15 -101.5t-1 -105.5q0 -29 -1 -56.5t-7 -53.5q-23 -99 -125 -99q-109 0 -127 107q-4 23 -4 45v45q0 49 -2 105.5zM2179 -688h43l-20 113zM2241 1778.5q4 -41.5 4 -76.5v-88q0 -25 1.5 -53.5t30.5 -42.5q27 -10 60 0 q20 10 25 27.5t8 33.5v223q0 20 -2.5 42t-18.5 36q-10 16 -25.5 18.5t-31.5 -2.5q-35 -2 -45 -41q-10 -35 -6 -76.5zM2267 -383.5q2 14.5 2 27.5v131h31v-109q0 -10 -1 -29.5t1 -38t9 -33t24 -14.5q16 0 24 14.5t11.5 33t2.5 38t-1 29.5v109h28v-111q0 -16 1 -35.5t-1 -39 t-9.5 -36t-25.5 -22.5q-35 -10 -60.5 5t-33.5 50q-4 16 -2 30.5zM2296 -530h31v-220h65v-24h-96v244zM2327 805h36l35 -180l39 180h27l-51 -248h-31zM2376 922v477h45l135 -320v320h59v-477h-45l-139 325v-325h-55zM2415 -90h88v221h16l53 -221h88l-71 262l71 264h-88 l-53 -221h-16v221h-88v-526zM2437 -225h33v-224h61v-20h-94v244zM2472 -530h31l41 -179l32 179h35l-57 -244h-27zM2494 557v248h33v-248h-33zM2503 1466v482h45l133 -320v320h57v-482h-43l-139 326v-326h-53zM2554 -225h35v-224h61v-20h-96v244zM2560 627l33 10 q0 -12 5 -28.5t17 -24.5q16 -4 25.5 5t9.5 23q2 25 -19.5 44.5t-37.5 35.5q-23 18 -32 49t17 56q35 16 68 6q16 -8 23.5 -25.5t9.5 -34.5l-29 -6q-2 10 -5 22.5t-13 22.5q-10 4 -21.5 0t-13.5 -20q-12 -16 4 -32.5t29 -29.5q14 -12 29.5 -27.5t19.5 -37.5q10 -29 -5.5 -54.5 t-50.5 -25.5q-33 0 -47 20.5t-16 51.5zM2636 -530h98v-21h-63v-80h51v-26h-51v-93h63v-24h-98v244zM2650 119h131v94h-131v-94zM2689 922v477h66v-434h120v-43h-186zM2710 557v248h36v-248h-36zM2734 -469l47 244h37l51 -244h-33l-12 61h-49l-14 -61h-27zM2759 -530 q23 0 47 2t47 -9q12 -8 20.5 -24.5t8.5 -34.5t-7.5 -33.5t-21.5 -21.5l31 -123h-31l-31 117h-29v-117h-34v244zM2767 782v23h119v-23h-41v-225h-31v225h-47zM2779 -383h43l-22 111zM2787 1466l101 482h65l101 -482h-62l-24 119h-97l-22 -119h-62zM2793 -551v-80q23 0 39.5 5 t16.5 34q0 25 -16.5 33t-39.5 8zM2828 -90h88v184h31q70 0 105.5 53.5t35.5 118t-36.5 117.5t-112.5 53h-111v-526zM2879 1634h82l-41 219zM2894 -225h20l72 -162v162h27v-244h-21l-70 164v-164h-28v244zM2894 1399h61l72 -230l70 230h65q-16 -49 -32.5 -98.5t-32.5 -100.5 l-33 -98q-6 -16 -5 -32.5t1 -29.5v-118h-66v98q0 18 2 36.5t-2 35.5q-4 27 -13 48t-20 44zM2908 -705l33 9q0 -12 4 -27.5t16 -19.5q18 -10 28.5 -1t10.5 23q0 25 -21.5 44.5t-37.5 31.5q-23 23 -31 54.5t21 51.5q14 10 33.5 12.5t31.5 -5.5q16 -4 23.5 -21.5t9.5 -34.5 l-29 -10q-2 12 -4 24.5t-12 22.5q-33 8 -41 -18q-8 -18 7.5 -32.5t29.5 -27.5q14 -16 29.5 -31.5t19.5 -37.5q10 -29 -6 -53.5t-47 -24.5q-33 0 -48.5 21.5t-19.5 49.5zM2916 172v188h11q37 0 54 -29.5t18 -64.5t-15 -64.5t-49 -29.5h-19zM3054 -225q23 0 53.5 1t52.5 -18 q23 -18 20.5 -50t-2.5 -56q0 -25 1.5 -58.5t-27.5 -50.5q-18 -16 -46.5 -14t-51.5 2v244zM3062 -530h30v-244h-30v244zM3086 -250v-199q23 0 38.5 4.5t19.5 30.5v129q-2 27 -18.5 31t-39.5 4zM3105 1466v482h65v-435h123v-47h-188zM3119 -90h88v526h-88v-526zM3129 -645 q0 23 1 45t8.5 38.5t22.5 26t44 7.5q27 -2 38 -14.5t15 -31t3 -40t-1 -39.5v-40t-5 -40.5t-18 -30.5t-40 -12q-29 0 -43 13t-19.5 32.5t-5.5 43v42.5zM3164 -692.5q0 -18.5 3.5 -32.5t13.5 -16q20 -12 30.5 -5t15.5 21t5 32.5v30.5q0 8 1 24.5t-1 32t-6 29t-13 17.5 q-25 16 -35 0t-10 -35v-37q0 -10 -2 -26.5t-2 -35zM3199 922v67h61v-67h-61zM3199 1399h61l-20 -375h-23zM3256 -90h88v227h43l47 -227h89l-60 246q37 23 49.5 64.5t12.5 80.5q0 72 -32 103.5t-63 31.5h-174v-526zM3301 -530h21l72 -162v162h26v-244h-22l-72 168v-168h-25 v244zM3344 215v145h50q20 0 30 -20.5t11.5 -47t-5 -49t-18.5 -28.5h-68zM3545 -90h88l21 125h57l16 -125h88l-92 526h-82zM3666 113l16 104l15 -104h-31zM3789 356h84v-446h88v446h86v80h-258v-80zM4082 -90h194v80h-106v166h84v80h-84v120h106v80h-194v-526z" />
<glyph unicode=":" horiz-adv-x="391" d="M20 197q35 20 67 54t56 66q29 37 56 78q41 -16 72.5 -47t54.5 -61q25 -37 45 -78q-25 -51 -49 -94q-23 -37 -46.5 -71t-46.5 -46q-49 23 -87 55.5t-66 65.5q-33 37 -56 78zM20 817q35 23 67 55.5t56 65.5q29 37 56 80q41 -16 72.5 -47t54.5 -62q25 -37 45 -78 q-25 -51 -49 -94q-23 -37 -46.5 -71.5t-46.5 -47.5q-49 23 -87 57t-66 66q-33 37 -56 76z" />
<glyph unicode=";" horiz-adv-x="391" d="M20 817q35 23 67 55.5t56 65.5q29 37 56 80q41 -16 72.5 -47t54.5 -62q25 -37 45 -78q-25 -51 -49 -94q-23 -37 -46.5 -71.5t-46.5 -47.5q-49 23 -87 57t-66 66q-33 37 -56 76zM72 178l153 189q37 -35 68 -72q25 -31 46 -68t21 -65q-49 -41 -79.5 -98.5t-48 -119 t-23.5 -119.5t-6 -104l-68 39q25 51 30 110.5t-4 116t-33 106.5t-56 85z" />
<glyph unicode="&#x3c;" d="M111 508q90 80 169.5 169t139.5 163q70 86 131 170q23 -8 42 -21.5t36 -30.5q16 -18 30 -38q-39 -14 -91 -55.5t-101 -88.5q-57 -53 -119 -117q35 -59 94.5 -119.5t114.5 -109.5q66 -57 137 -113q-35 -12 -71.5 -33.5t-69.5 -48t-58.5 -56t-37.5 -56.5q-29 61 -80 124.5 t-103.5 118t-98.5 93.5t-64 49z" />
<glyph unicode="=" horiz-adv-x="997" d="M109 428q45 45 84.5 87t77.5 76t76 57.5t81 33.5q4 0 6 1t6 1q-115 63 -173 52t-97 -103l-61 61q45 45 84.5 87t77.5 76t76 57.5t81 33.5t88 -12.5t98.5 -46t119 -33.5t149.5 27v-90q-72 0 -121 -6.5t-87 -21.5t-71 -41t-72 -62q33 -14 70 -33t79 -30t92 -9t110 26v-90 q-76 0 -127 -7t-91 -24.5t-75 -47t-78 -72.5q-78 49 -132 73.5t-94 24.5t-66.5 -26.5t-49.5 -79.5z" />
<glyph unicode="&#x3e;" d="M111 856q35 12 71.5 33.5t69.5 48.5t58.5 56.5t37.5 56.5q29 -61 80 -125t103.5 -118t98.5 -93t64 -49q-90 -82 -170 -170t-139 -162q-70 -86 -131 -170q-23 6 -43.5 20.5t-34.5 30.5q-18 18 -31 39q37 12 90.5 54t102.5 89q57 53 119 117q-37 57 -95.5 118.5 t-113.5 110.5q-66 57 -137 113z" />
<glyph unicode="?" horiz-adv-x="690" d="M22.5 1129.5q8.5 48.5 45 101.5t89 109.5t114 114.5t120.5 118q63 -37 117.5 -76t93.5 -84t56.5 -100.5t7.5 -126.5q-6 -47 -34 -99.5t-64 -105.5t-76.5 -103.5t-75.5 -93.5t-59.5 -76.5t-26.5 -52.5q-4 -31 16.5 -52t51 -32.5t63.5 -9.5t51 21l14 -58q-20 -33 -41 -57 q-16 -23 -34.5 -43.5t-30.5 -28.5q-12 -6 -40 -6t-58.5 10.5t-57 30t-39.5 51.5q-20 53 10.5 124t77.5 145.5t94.5 145.5t59.5 122t0 99t-47 88t-88 66.5t-123 33.5q-72 -104 -75 -175t38 -143l-35 -24q-72 35 -97.5 76.5t-17 90zM137 123q35 16 65.5 43t57.5 53 q28 31 57 64q41 -14 73 -39t54 -49q25 -29 45 -62q-25 -39 -49 -74q-23 -29 -46 -56.5t-46 -37.5q-49 16 -88 44t-67 52q-33 29 -56 62z" />
<glyph unicode="@" horiz-adv-x="1503" d="M22.5 430q34.5 197 137 392.5t266.5 379t377 330.5q188 -16 318 -95t208 -196t104.5 -259t8 -286.5t-82 -278.5t-163.5 -235q-72 -70 -132 -125t-108 -55q-45 0 -92 47t-78 141q-47 -29 -94 -63.5t-88 -67.5q-47 -37 -90 -75q-76 49 -124 126.5t-69.5 170t-13.5 193.5 t44 195.5t101.5 175.5t159.5 136l156 106l166 -165q18 -23 47 -19l92 109l57 -43q-35 -12 -57 -30.5t-36.5 -48.5t-20.5 -72t-6 -101v-412q0 -43 13 -74.5t35.5 -45t52.5 -5.5t63 45q61 70 95 177.5t32.5 228.5t-39 244.5t-116.5 225t-201 168t-294 77.5 q-139 -113 -249.5 -254.5t-181 -291t-95.5 -301t11 -285.5t138.5 -243.5t282.5 -175.5q66 -27 128.5 -6t133.5 80l17 -51l-267 -277q-229 76 -360 212t-176 308t-10.5 369zM476 690q-7 -72 6.5 -147.5t44 -143t77 -121.5t105.5 -83q8 8 18 16t22.5 18.5t28.5 22.5v491 l-182 181q-53 -39 -83 -100.5t-37 -133.5z" />
<glyph unicode="A" horiz-adv-x="1286" d="M20 582v18l142 55l213 -47h35q20 96 21 188v10q1 86 -17 160q-18 78 -55 134.5t-93 81.5l330 258l293 -137l139 182l229 -115q-39 -37 -65.5 -72.5t-42.5 -86t-23.5 -122t-7.5 -182.5v-741q0 -31 12.5 -56.5t36 -34.5t58.5 4t82 60l30 -33q-53 -57 -106 -108 q-47 -43 -99.5 -86t-93.5 -66q-51 51 -112.5 94.5t-134.5 43.5q-55 0 -116 -16.5t-110 -37.5q-57 -23 -112 -53l-359 219q117 76 194 203t111 268h-55l-182 -43zM324 264q57 -39 112 -76q47 -31 97.5 -63.5t84.5 -48.5q35 -16 66 -28q30 -13 62 -16q12 -1 24 -1q20 0 42 3 q34 5 77 21v512h-320q-81 -139 -245 -303zM555 1317q47 -84 80 -167t42 -169q3 -27 3 -55q0 -60 -14 -124q-20 -93 -74 -194h297v482q0 37 -5 65.5t-18.5 51t-37 41t-60.5 38.5l-182 86z" />
<glyph unicode="B" horiz-adv-x="1443" d="M20 842q12 78 35 137t59 111.5t88 103.5t126 115l161 133l201 -137q35 55 83 112.5t104 100.5q39 0 84 -10.5t84.5 -32t70.5 -53t41 -74.5q-47 -72 -90 -177.5t-84 -242.5q23 4 45 4q56 0 110 -26q74 -36 126 -108q50 -72 72 -172q11 -51 12 -104q0 -52 -11 -106 l-510 -576q-57 8 -124.5 31t-134 53.5t-126 65.5t-100.5 69q59 45 90 135.5t31 211.5v643q0 25 -6 51t-24.5 48.5t-51.5 39t-84 22.5q-27 -29 -45.5 -63.5t-26.5 -73.5q-5 -22 -5 -45q0 -17 3 -33q6 -39 29 -75q31 -49 51.5 -105.5t25.5 -114.5q1 -17 1 -34q0 -42 -8 -80 q-12 -54 -50 -97q-22 -27 -52 -29h-2q-28 0 -48 44q84 56 102 124q7 28 8 52q0 38 -16 72q-28 56 -94 85q-36 16 -77 16q-35 0 -73 -11zM553 231q31 -23 78 -48t105 -45t120 -32q33 -6 66 -7q29 0 57 5q95 106 121 215q14 58 14 110q0 46 -12 87q-24 88 -86 143.5t-142 55.5 q-35 0 -62.5 -26.5t-37.5 -57.5l-37 26l193 236q25 82 25 152q1 73 -23 125q-22 52 -71 78q-45 26 -112 26h-10l-80 -121v-846z" />
<glyph unicode="C" horiz-adv-x="962" d="M34 576q-3 31 -4 62q0 149 80 292q96 172 289 305l211 213q80 -31 171 -63.5t167 -38.5q9 -1 18 -1q34 0 60 12q33 15 54.5 40.5t33.5 60.5t19 70l92 -37q-37 -45 -80 -95t-95.5 -101.5t-117 -100.5t-144.5 -92q-102 35 -186 65.5t-156 53.5q-53 -35 -107 -99.5 t-86 -150.5t-32 -187.5t52.5 -206t167 -207t313.5 -192.5q84 84 135 152.5t92 130.5q14 -16 25 -31q10 -12 18 -26.5t8 -26.5q-27 -16 -79 -65.5t-112.5 -115t-117.5 -140t-94 -142.5q-287 135 -431 307.5t-164 354.5z" />
<glyph unicode="D" horiz-adv-x="1439" d="M20 678q23 139 91.5 270t166 241.5t215 193.5t238.5 130q33 3 64 3q105 0 193 -32q114 -40 197 -119t132 -188.5t63 -238.5q5 -45 4 -92q0 -86 -16 -178q-25 -140 -90 -277q-23 -23 -54.5 -55.5t-68.5 -71.5t-77 -81t-79 -81q-90 -96 -192 -200q-193 92 -307 150 q-96 48 -137 48q-8 0 -13 -2q-35 -8 -69.5 -48t-53.5 -79l-53 66q166 100 249 205.5t83 195.5q0 37 -19.5 73t-38.5 73q-18 36 -25 76q-2 9 -2 19q0 32 19 66q27 49 64 99.5t78 101.5t83 106.5t78 114.5l60 -43q-76 -61 -115 -125.5t-45 -136.5q-1 -13 -1 -26q0 -61 22 -129 q28 -84 84 -185l-287 -305q117 -35 208 -56.5t161 -23.5h13q63 -1 111 17q52 20 93 67q74 86 109.5 192.5t37.5 218.5v15q0 105 -26 208q-28 110 -82 202t-127.5 158.5t-163.5 93.5q-56 16 -111 16q-30 -1 -59 -5q-84 -14 -158 -53.5t-131 -100t-88 -130t-33 -142.5v-7 q0 -69 37 -131q31 -49 51.5 -105.5t25.5 -114.5q1 -17 1 -34q0 -41 -8 -79q-12 -54 -50 -97q-22 -27 -52 -29h-3q-28 0 -47 43q84 56 102 124q7 28 8 52q0 38 -16 72q-28 56 -94 84q-36 16 -78 17q-34 0 -72 -11z" />
<glyph unicode="E" horiz-adv-x="1081" d="M54 597q-6 43 -6 85q0 137 68 268q89 172 283 305l207 209l4 4q35 -20 96.5 -38.5t131.5 -28.5q59 -8 120 -8h24q73 2 132 20l14 -49q-143 -61 -244.5 -122.5t-171 -122t-109.5 -119t-58 -113.5q51 -31 109.5 -45.5t112.5 -17.5q23 -1 45 -1q29 0 56 2q47 4 78 13l25 -74 q-113 0 -181.5 -17.5t-107.5 -44t-57.5 -56t-32.5 -56.5q-51 12 -92 28.5t-72 32.5q-37 18 -66 37q10 51 43 116.5t78 130t95.5 121t97.5 89.5q-16 4 -44 14t-60.5 23.5t-64.5 29t-56 31.5q-59 -41 -111 -109q-50 -69 -76 -156q-20 -68 -21 -145q0 -21 2 -43 q7 -100 64.5 -202.5t174 -201.5t311.5 -187q86 86 146 163.5t101 139.5q14 -16 25 -31q10 -12 18.5 -26.5t8.5 -26.5q-27 -16 -82.5 -68.5t-120 -122t-124.5 -147.5t-97 -146q-287 135 -437.5 308.5t-178.5 354.5z" />
<glyph unicode="F" horiz-adv-x="1148" d="M20 842q12 78 35 137t59 111.5t88 103.5t126 115l161 133l203 -139q35 29 68 60.5t59 55.5l55 56q34 -21 100 -31q60 -10 130 -9h13q77 1 154 11t136 29l14 -50q-221 -92 -352 -232t-170 -314q53 -33 111 -53q60 -19 114 -27q48 -7 90 -7h11q47 1 80 11l18 -53 q-113 -4 -183.5 -18.5t-114.5 -37t-68.5 -51.5t-45.5 -61q-39 12 -72.5 25.5t-60.5 23.5q-31 12 -55 22q2 59 26.5 137t62.5 155t85 141.5t94 97.5q-23 0 -55.5 9t-67 22.5t-66.5 29t-52 29.5q-90 -41 -91 -150v-817l-77 -55q23 -23 49 -38t53 -19.5t52.5 6t47.5 41.5 l31 -31q-23 -20 -51.5 -52t-59 -67t-60.5 -67.5t-52 -55.5q-33 8 -70 23.5t-71.5 36t-65.5 43t-51 43.5q47 35 78.5 81t50.5 83v770q0 25 -6 51t-24.5 48.5t-51.5 39t-84 22.5q-25 -29 -43 -63.5t-26 -73.5q-5 -23 -5 -46q0 -16 2 -32q6 -39 29 -75q29 -49 49.5 -105.5 t25.5 -114.5q1 -17 1 -34q0 -42 -8 -80q-12 -54 -50 -97q-22 -27 -52 -29h-2q-28 0 -48 44q84 56 102 124q7 28 8 52q0 38 -16 72q-28 56 -94 85q-36 16 -77 16q-35 0 -73 -11z" />
<glyph unicode="G" horiz-adv-x="1302" d="M23 -446q-2 15 -2 30q0 47 19 98q26 68 72 124.5t105 92t119 35.5q59 0 139 -25.5t160 -49t151 -32.5q16 -2 31 -2q51 0 86 25q49 35 73 92q22 52 22 105v13q-3 59 -35.5 112t-98.5 78q-35 -37 -71.5 -78t-70.5 -84t-64 -87t-50 -83q-139 86 -237.5 195.5t-155.5 231.5 t-73 250q-5 47 -5 94q0 80 17 158q26 124 94.5 236.5t179.5 204.5q37 31 81 73t83 79q45 43 88 88q80 -29 152.5 -56.5t143.5 -37.5q27 -3 54 -3q44 0 88 9q70 16 148 71l30 -88q-154 -31 -271.5 -88t-201.5 -127.5t-133 -149.5t-67 -153l92 45q55 -35 118.5 -58.5 t130.5 -31.5q29 -3 58 -3q39 0 80 6q69 11 135 46v-92q-53 -2 -97 -10t-83 -21v-354q129 -86 161 -186q16 -50 16 -98q0 -51 -17 -101l-539 -485q-145 49 -247.5 84t-170 55t-104.5 24.5t-50 -8.5q-22 -22 -22 -51q0 -9 2 -18q8 -39 37 -94h-100zM341 816q3 -109 44 -220 t125 -216.5t223 -195.5q41 41 73 77t58 71q15 51 15 89q0 21 -5 38q-12 49 -36 94q57 57 81.5 102t32.5 84q-47 -29 -84 -58.5t-71 -53.5q-70 18 -126.5 45.5t-86.5 48.5q-26 12 -46 12t-34 -11q-25 -19 -25 -67v-14l-57 23q10 51 46 136t87 173t115.5 161.5t134.5 102.5 q-37 0 -75 8t-73.5 21.5t-66 30t-55.5 30.5q-57 -49 -102.5 -128t-70.5 -176q-21 -86 -21 -183v-24z" />
<glyph unicode="H" horiz-adv-x="1435" d="M20 645v19l144 55l192 -43q-4 39 -24.5 69.5t-55 50t-80.5 22.5h-15q-40 0 -83 -13q25 180 128.5 342t312.5 285q86 -117 136 -218q49 -100 69 -192q14 -65 14 -127q0 -26 -2 -51q-8 -86 -37 -172h323v475l43 37l-143 78l160 227l239 -127l-73 -86v-989q0 -25 13 -44.5 t39 -23.5t61.5 10.5t78.5 57.5l17 -54q-35 -47 -76 -92q-35 -39 -82 -83t-98 -78q-41 12 -79 30.5t-70 38t-57.5 37.5t-37.5 31q25 29 38 50t19 45t7 53.5t1 76.5v289h-340q-20 -53 -45.5 -109.5t-58.5 -115.5q-19 -38 -19 -73q-1 -11 1 -21q8 -44 36 -68q21 -18 47 -17 q9 -1 18 1q38 8 75 61l28 -62l-245 -260l-220 201q102 117 163 229.5t77 233.5h-151q0 -90 -58 -168q-22 -31 -52 -34h-4q-27 0 -46 48q49 37 74.5 76t31.5 78h-12l-180 -41zM300 987q5 -47 30 -92q31 -55 51 -111.5t27 -111.5h157q2 24 2 48q0 107 -36 220 q-44 139 -146 301q-29 -31 -50.5 -73t-30.5 -88q-6 -30 -6 -60q0 -16 2 -33z" />
<glyph unicode="I" horiz-adv-x="905" d="M20 922q12 78 35 137t60 111.5t89 103.5t124 115l164 133l229 -158l-45 -72v-1005q0 -25 13 -44.5t39 -23.5t61.5 10.5t78.5 57.5l17 -54q-35 -47 -76 -92q-35 -39 -82 -83t-98 -78q-41 12 -79 30.5t-69.5 38t-57.5 37.5t-38 31q25 29 38 50t19.5 45t7.5 53.5t1 76.5v770 q0 27 -5.5 55.5t-20.5 53t-46 43t-82 24.5q-25 -29 -43 -63.5t-26 -72.5q-4 -23 -4 -46q0 -15 2 -31q5 -39 28 -76q31 -49 51.5 -105t25.5 -114q1 -17 1 -34q0 -42 -8 -80q-12 -54 -50 -97q-23 -29 -52 -29l-1 -1q-29 0 -51 43q84 56 102 124q7 28 8 53q0 37 -16 71 q-28 56 -94 87q-36 16 -77 16q-35 0 -73 -11z" />
<glyph unicode="J" horiz-adv-x="1210" d="M23 -418q-2 15 -2 30q0 47 19 99q26 68 72 124t105 92t119 36q59 0 139 -32.5t161 -68.5t156 -58q36 -10 67 -10t56 11q43 18 51 57q3 13 3 27q0 28 -11 59q-18 46 -58 91t-97 76q55 201 63 473t8 631q-35 -31 -73.5 -53.5t-75.5 -22.5q-23 0 -52.5 22.5t-58 46t-55.5 37 t-45 -5.5q-47 -45 -47 -129q0 -28 5 -61q22 -129 124 -342q37 -77 37 -146q0 -22 -3 -43q-16 -86 -65 -144.5t-117 -85.5q-44 -16 -83 -16q-22 0 -43 5q0 27 9 52t23 40q39 -15 75 -15q10 0 21 1q44 6 71.5 34.5t34.5 77.5q2 13 2 26q0 40 -15 87q-12 39 -39 58.5 t-57.5 22.5t-61.5 -9.5t-53 -34.5q2 16 2 31q0 32 -8 60q-13 42 -28 79.5t-28 74.5q-9 28 -9 57q0 10 1 19q4 39 34 99.5t83 133t131 149.5t178 149q31 -31 69 -52.5t86 -25.5q11 -1 23 -1q39 0 82 10q58 13 125 54l76 -43q-43 -29 -65.5 -55.5t-34 -62t-12.5 -84t-1 -119.5 v-807q68 -76 92 -154q20 -61 20 -115q0 -16 -2 -30q-7 -68 -38 -120t-72 -75l-385 -199q-135 47 -231 81t-161.5 54.5t-102.5 24.5t-50 -10q-22 -21 -22 -50q0 -9 2 -18q8 -41 37 -94h-100z" />
<glyph unicode="K" horiz-adv-x="1400" d="M20 852q12 78 35 137.5t60 111.5t89 103t124 115l164 133l229 -158l-62 -69v-721q33 29 84.5 79t110.5 115q76 84 92 144q9 33 8 62q0 24 -6 46q-12 49 -36.5 95.5t-26.5 103.5v10q0 53 38 109q42 60 107.5 115t143 96t147.5 59l12 -51q-72 0 -122 -35q-51 -35 -73 -91 q-16 -41 -15 -90q-1 -19 1 -38q8 -72 56 -148q-47 -41 -72 -87t-48.5 -95t-56 -103.5t-92.5 -111.5q25 -4 43.5 -13t36 -30.5t37 -56.5t49.5 -86q35 -57 81 -136t94 -152t92.5 -123t76.5 -50q63 0 92 50t29 114q23 0 42.5 -16.5t33.5 -28.5q-23 -43 -50.5 -97.5 t-63.5 -108.5t-79 -101.5t-92 -75.5q-49 31 -98 85t-93 118.5t-84 134t-73 130t-55.5 106.5t-34.5 67q-16 31 -31.5 59.5t-32 47t-36 20.5t-43.5 -23h-2l-91 -100v-105l-98 -69q39 -4 91.5 -21.5t107.5 -58.5q-18 -41 -59.5 -95.5t-110.5 -105.5q-39 23 -66.5 40.5 t-53.5 29.5t-54.5 18t-67.5 6q20 20 41 43t37 52.5t26.5 65.5t10.5 85v752q0 27 -6 52.5t-24.5 48t-51.5 38.5t-84 23q-25 -29 -43 -64t-26 -74q-5 -23 -5 -46q0 -15 2 -31q6 -38 29 -76q31 -49 51.5 -105.5t25.5 -114.5q1 -17 1 -34q0 -41 -8 -79q-12 -54 -50 -97 q-23 -27 -52 -29h-2q-28 0 -50 43q84 55 104 124q8 28 7 54q-1 38 -17 70q-28 55 -94 85q-36 16 -77 16q-35 0 -73 -11z" />
<glyph unicode="L" horiz-adv-x="1038" d="M20 -76q57 55 105.5 123t83.5 135.5t56.5 132t25.5 113.5q2 21 2 42q1 54 -11 102q-16 68 -42.5 135t-60.5 139t-62.5 158t-48 189t-19.5 237q12 12 29 20q12 8 29.5 15.5t35.5 7.5q-12 -27 -18 -63t-7 -74v-13q0 -31 4 -59q5 -34 15 -58q21 -54 57 -54q4 0 7 1 q41 6 82 47q20 20 53 56t69.5 82t76.5 100.5t75 111.5q115 -55 190.5 -124.5t121.5 -145.5q45 -76 65 -152q19 -72 19 -137v-7q-1 -69 -18 -125t-44 -91q-49 -62 -109 -78q-30 -8 -57 -8t-51 8q-49 16 -79 52q-23 27 -23 57q0 10 3 20q6 33 24.5 50.5t40.5 23.5t44.5 2 t36.5 -12q-18 -32 -18 -60q-1 -8 1 -15q6 -34 28 -50.5t54.5 -9t61.5 50.5q26 36 26 88q0 15 -2 31q-10 72 -64 141t-150.5 124.5t-237.5 71.5q-37 -63 -43 -127q-2 -22 -2 -44q0 -42 7 -82q11 -62 34.5 -120.5t47 -111.5t41 -100t17.5 -84q0 -57 -24.5 -121t-63.5 -125 t-89 -116.5t-99 -98.5q41 18 78 35q33 14 67.5 25.5t61.5 15.5q15 3 31 3q28 0 58 -10q46 -14 90 -32.5t85 -33.5q32 -12 60 -12q7 0 14 1q20 2 43.5 17.5t43 42t35 62t21.5 80.5l72 -90q-76 -76 -146 -143q-61 -59 -127.5 -119.5t-116.5 -99.5q-109 61 -178 96t-114 52.5 t-73 19.5t-52 -2q-49 -10 -74 -54.5t-35 -121.5z" />
<glyph unicode="M" horiz-adv-x="1894" d="M20 825q27 174 130.5 332t312.5 275q82 -111 129 -199l348 274l195 -186q31 25 68.5 55.5t74.5 61t69.5 58.5t51.5 46q248 -207 334 -510q61 -215 61 -477q0 -107 -10 -221q-86 -143 -172 -279q-74 -117 -161 -241.5t-161 -216.5q-16 8 -35 18q-16 10 -32.5 22.5 t-32.5 28.5q63 37 125.5 93.5t114 132t87 172t46.5 215.5q8 79 8 167q0 44 -2 89q-6 137 -43 277t-111 275.5t-198 245.5l-82 -114v-897l-80 -56q23 -25 50.5 -44t57 -26.5t58 2t53.5 42.5l31 -29q-23 -23 -51.5 -54.5t-59.5 -65.5t-60.5 -66.5t-52.5 -57.5 q-33 8 -69.5 23.5t-71.5 36t-64.5 43t-50.5 43.5q39 31 61.5 58.5t34 57t13.5 63.5t2 75v747l-191 170l-118 -123q43 -100 51 -190q3 -29 3 -58q1 -60 -11 -119q-16 -87 -55.5 -177.5t-92.5 -190.5q-4 -10 -12 -24.5t-16 -30.5l-19 -37q33 -49 68 -72q28 -23 64 -23l1 1 q36 0 72 49l45 -43l-262 -279l-184 166q-18 -20 -30.5 -42.5t-21.5 -43.5q-8 -23 -12 -49l-76 53l103 117q111 125 173 248q63 123 73 253q2 25 2 51q0 107 -36 220q-44 141 -147 305q-29 -31 -49 -70.5t-30 -83.5q-6 -29 -6 -59q0 -16 2 -32q5 -46 30 -89q31 -53 51.5 -107 t25.5 -108q1 -16 1 -31q0 -38 -8 -75q-12 -51 -50 -98q-23 -29 -52 -32h-3q-27 0 -49 46q84 60 104 128q8 27 7 53q-1 37 -17 67q-28 52 -94 74q-31 11 -65 11q-40 0 -85 -14z" />
<glyph unicode="N" horiz-adv-x="1400" d="M20 817q12 88 44 173t86.5 163t131 148.5t181.5 130.5q82 -111 131 -207q35 33 87 80t104.5 95t98.5 89t70 59q115 -113 194 -246t119 -290.5t40 -343t-41 -402.5q-88 -125 -179 -243q-78 -102 -169 -215t-173 -197l-32 20q-14 10 -30.5 23.5t-31.5 32.5q68 33 133.5 84 t123 122.5t100.5 165t63 209.5q21 116 21 251q0 131 -30 269q-30 140 -95.5 276t-175.5 253l-168 -150q43 -102 53 -192q4 -33 4 -65q0 -57 -12 -113q-18 -88 -56.5 -179.5t-91.5 -191.5q-4 -10 -11 -24.5t-15 -30.5l-19 -37q33 -49 68 -72q28 -23 63 -23l2 1q36 0 70 49 l47 -43l-262 -279l-184 166q-20 -20 -31.5 -42.5t-20.5 -43.5q-8 -23 -14 -49l-74 53l103 117q111 125 172 247q60 122 72 252q2 27 3 54q0 105 -35 217q-44 141 -147 305q-29 -31 -49 -72t-30 -85q-6 -29 -6 -59q0 -16 2 -32q5 -47 30 -90q29 -55 49.5 -110.5t25.5 -108.5 q1 -15 1 -30q0 -38 -8 -76q-12 -52 -50 -99q-22 -31 -52 -33h-3q-28 0 -47 48q84 62 102 130q7 28 8 52q0 38 -16 68q-28 52 -94 74q-31 11 -65 11q-40 0 -85 -14z" />
<glyph unicode="O" horiz-adv-x="1267" d="M28 696q24 186 115 381q43 49 98.5 103.5t118 107.5t130 101.5t137.5 87.5q223 -31 357 -142.5t188 -271.5q37 -111 37 -239q1 -56 -7 -114q-24 -194 -117 -386q-111 -111 -226.5 -218.5t-258.5 -197.5q-223 53 -356 170q-132 116 -186 274q-37 109 -38 233q1 54 8 111z M214 816q-1 -19 -1 -37q-1 -87 19 -175q24 -106 73 -195.5t121 -155.5t162 -95q72 -24 132 -24q85 0 146 48q72 86 108 192t40 216q1 16 1 32q-1 94 -21 187q-24 109 -72 199t-118.5 156.5t-156.5 92.5q-61 19 -121 19q-12 0 -26 -1q-74 -5 -140 -54q-72 -86 -106.5 -191.5 t-39.5 -213.5z" />
<glyph unicode="P" horiz-adv-x="1224" d="M20 891q12 74 35 130t60 105.5t89 97.5t124 109l164 133l204 -178l312 230q123 -111 180 -245q41 -97 42 -203q0 -40 -6 -82q-22 -150 -131.5 -315t-320.5 -339q-23 10 -50.5 21.5t-62.5 21.5v-256l-77 -55q23 -23 49 -38.5t53 -19.5t53.5 6.5t48.5 40.5l29 -28 q-23 -23 -51.5 -54.5t-59 -66.5t-60.5 -68t-52 -55q-33 8 -70 23.5t-70.5 36t-64.5 43t-51 42.5q47 35 77.5 82t49.5 84v340q-82 20 -148 29q-28 4 -49.5 4t-37.5 -4q-32 -8 -50 -29.5t-27.5 -57.5t-17.5 -81l-88 41q12 29 47 75t82 89t102.5 73.5t110.5 30.5q16 0 34.5 -2 t41.5 -6v477q0 27 -7 52.5t-25.5 48t-51.5 39t-84 22.5q-47 -53 -61 -128q-4 -18 -4 -36q0 -55 34 -106q57 -89 57 -181v-6q-2 -96 -88 -166q-29 -23 -55 -14.5t-49 50.5q89 27 117 78q17 31 17 60q0 19 -8 38q-19 46 -81 70q-29 11 -65 11q-40 0 -89 -14zM659 551 q45 -10 87 -19.5t78 -12.5t63.5 2t44.5 22q55 55 87 127.5t42 151.5q5 38 5 75q0 41 -6 83q-11 79 -44 144.5t-86 113.5t-127 65l-144 -125v-627z" />
<glyph unicode="Q" horiz-adv-x="1267" d="M34 442q-14 71 -14 146q0 78 14 160q29 163 109 329q43 49 97.5 103.5t117 107.5t131 101.5t138.5 87.5q223 -31 356 -142.5t187 -271.5q37 -111 37 -239q0 -55 -7 -114q-24 -194 -117 -386l-24 -25q-59 -55 -112.5 -108.5t-108 -102.5t-112.5 -94t-126 -86 q-84 20 -156 49q-45 -20 -90 -55q82 -6 165 -27.5t157 -44.5t136 -40t103 -17q51 0 84 9t52.5 27.5t29 47t15.5 69.5l90 -28q-14 -41 -47 -78t-77 -68t-94 -57.5t-102 -46.5q-119 -49 -262 -84q-74 55 -141 98q-59 37 -121 66q-57 28 -98 28h-6q-37 -4 -57.5 -38.5 t-30.5 -75.5q-12 -49 -17 -109l-94 51q45 102 134 205t206 199q-147 76 -232.5 193.5t-112.5 260.5zM214 816q-1 -18 -1 -37q0 -89 19 -175q24 -106 72 -195.5t120 -156t162 -94.5q72 -24 132 -24q86 0 148 48q70 86 106 192.5t41 215.5q1 19 1 38q0 90 -20 181 q-25 109 -73.5 199t-118 156.5t-157.5 92.5q-61 19 -121 19q-13 0 -26 -1q-72 -5 -138 -54q-72 -86 -106.5 -191.5t-39.5 -213.5z" />
<glyph unicode="R" horiz-adv-x="1339" d="M20 866q12 78 35 137.5t60 111.5t89 103.5t124 114.5l164 133l204 -178l312 230q51 -45 93 -101.5t67.5 -126t32.5 -152.5q2 -25 3 -52q0 -62 -12 -132q-35 -55 -82 -116q-41 -53 -99.5 -117t-129.5 -127q33 -8 67.5 -44t93.5 -108q39 -47 91.5 -114.5t113 -139t129 -137 t136.5 -107.5q70 -42 138 -52q14 -2 27 -3q54 0 105 33v-92q-70 0 -128 8q-51 7 -97 7h-11q-51 -1 -100 -19.5t-100 -69.5q-57 31 -117 97.5t-119 148.5t-114.5 167t-104.5 155.5t-89 115.5q-38 43 -67 43h-2q-18 -10 -36.5 -21t-37.5 -22v-176l-77 -55q23 -23 49 -38 t53 -19.5t53.5 6t48.5 41.5l29 -29q-20 -23 -49 -54.5t-59.5 -66.5t-61.5 -67.5t-53 -55.5q-33 8 -70 23.5t-70.5 36t-64.5 43t-51 43.5q47 35 77.5 82t49.5 84v835q0 27 -6 52.5t-24.5 48t-51.5 39t-84 22.5q-25 -29 -43 -63.5t-26 -73.5q-5 -23 -5 -46q0 -16 2 -32 q6 -39 29 -76q31 -49 51.5 -105.5t25.5 -114.5q1 -17 1 -33q0 -41 -8 -79q-12 -54 -50 -98q-23 -27 -52 -29h-2q-28 0 -50 43q84 55 104 124q8 28 7 54q-1 38 -17 70q-28 55 -94 85q-36 16 -77 16q-35 0 -73 -11zM659 530q59 16 102.5 43t69.5 52q82 81 120 187 q34 93 34 181q0 11 -1 23q-5 98 -51 177t-130 110l-144 -125v-648z" />
<glyph unicode="S" horiz-adv-x="1370" d="M20 86q43 61 121 135t191 139q88 -31 155.5 -73.5t119.5 -85.5t95 -82t84 -59q33 -16 67 -15q9 0 18 1q44 5 98 46q61 48 81 140q12 55 13 112q1 37 -5 75q-14 95 -54.5 174t-100.5 103q-30 13 -63 13q-26 1 -52 -7q-62 -18 -122 -59t-116 -99.5t-99 -119.5 q-113 123 -158 220t-47 174v11q0 69 24 121q26 56 58 92l401 359q81 -81 153 -111q57 -24 106 -24q12 0 24 2q58 8 99.5 50t57.5 107l84 -55q-16 -45 -47.5 -71.5t-72.5 -46t-88.5 -37t-93.5 -41t-89 -57.5t-76 -89q-23 8 -48 25.5t-50.5 41t-49.5 52.5t-38 59 q-66 -47 -110 -94t-54 -100q-2 -12 -1 -27q0 -22 3 -49q6 -45 25.5 -94t51.5 -97.5t79 -80.5q78 39 177 114.5t187 163.5q94 -25 168 -86t119 -151.5t57 -202.5q3 -30 3 -62q0 -85 -23 -176l-594 -432q-43 43 -101.5 87t-128 87t-146 81t-154.5 69q-31 -31 -51.5 -72 t-32.5 -86q-10 10 -21 25q-10 12 -19.5 28.5t-13.5 34.5z" />
<glyph unicode="T" horiz-adv-x="1171" d="M20 1051q35 68 90.5 138.5t125 129.5t150.5 104t167 62q41 8 80 8q43 1 83 -9q77 -18 149.5 -47.5t141 -57t138.5 -33.5q11 -1 21 -1q32 0 58 10q34 13 59.5 38.5t42.5 60.5t34 74l72 -72q-74 -92 -192 -179t-277 -173l-168 63q-47 -47 -90 -115.5t-68 -151.5t-27 -176 v-11q0 -89 31 -177q33 -94 104.5 -186t194.5 -172q84 84 135 152.5t92 130.5q14 -16 25 -31q10 -12 18.5 -26.5t8.5 -26.5q-27 -16 -79.5 -65.5t-112.5 -115t-117.5 -140t-94.5 -142.5q-209 129 -310.5 294t-105.5 338v15q0 165 85 325q89 167 261 302q-96 35 -166.5 58.5 t-125 35.5t-93 12t-69.5 -12q-37 -14 -71 -47t-58.5 -76t-38.5 -94t-14 -102z" />
<glyph unicode="U" horiz-adv-x="1458" d="M20 852q12 88 45 175t87.5 167t132 151.5t182.5 131.5q119 -158 168 -287q47 -124 47 -238v-9q-2 -118 -47 -234.5t-115 -247.5q-4 -10 -21.5 -41t-35.5 -64q-23 -39 -47 -84q47 25 84 34q22 5 43 5q13 0 27 -2q34 -6 71 -26.5t86 -53.5q47 -31 87 -46q30 -11 58 -11 q9 0 19 1q37 5 75 29.5t85 73.5v957q-29 25 -64 46t-82 38q6 14 20.5 38.5t39 54.5t56.5 60.5t71 55.5q41 -12 77.5 -34t65.5 -44q33 -25 59 -55l-24 -64l8 -1010q8 -23 26.5 -46t45 -33.5t57.5 -1t61 52.5l41 -29q-41 -53 -88 -104q-41 -43 -90 -91.5t-100 -82.5 q-66 47 -115 106.5t-74 102.5l-301 -259q-92 51 -154.5 85t-103.5 55.5t-69.5 31t-53.5 9.5q-29 0 -42 -9.5t-19 -19.5l-35 29l45 69q86 170 136.5 317.5t55.5 278.5v24q0 118 -44 226q-49 119 -162 234q-25 -33 -43.5 -72t-25.5 -82q-4 -25 -4 -50q0 -18 2 -36 q5 -43 28 -84q31 -55 51.5 -110.5t25.5 -108.5q1 -15 1 -30q0 -37 -8 -75q-12 -52 -50 -100q-22 -31 -52 -33h-3q-28 0 -47 47q84 61 102 130q7 28 8 53q0 37 -16 67q-28 51 -94 75q-31 11 -66 11q-40 0 -84 -14z" />
<glyph unicode="V" horiz-adv-x="1458" d="M20 825q12 92 33 164t56.5 134.5t88 122t128.5 124.5l163 133q41 -14 78 -37q33 -20 66 -54t55 -81q-16 -63 -20 -152q-2 -44 -2 -91.5t2 -97.5q4 -100 16 -204t28.5 -192t34 -153.5t33.5 -90.5q55 -90 124 -112q18 -6 36 -5q49 0 92 43q59 78 109.5 172.5t86.5 192.5 t57.5 195.5t24.5 180.5v26q0 67 -12 121q-16 64 -53 96q-49 45 -100 55q-18 4 -35 4q-32 -1 -64 -13q-48 -18 -86 -65t-63 -117l-63 76q39 51 93 108.5t114.5 105.5t123 80t121.5 32q43 0 89 -31t84 -79t62.5 -105.5t24.5 -108.5q0 -35 -18.5 -99.5t-52 -147.5t-79.5 -179 t-100.5 -191.5t-115 -185.5t-121.5 -161q-43 -53 -90 -105q-41 -43 -88 -90t-93 -82q-43 12 -83.5 30.5t-76.5 39t-63.5 39t-42.5 30.5q18 29 28.5 50.5t12.5 44t-2 52t-12 77.5q-31 182 -55 340q-10 68 -21.5 134t-22 124.5t-17.5 103.5t-11 70q-14 84 -35.5 121.5 t-79.5 52.5q-29 -33 -50 -76t-31 -89q-6 -30 -6 -62q0 -17 2 -33q5 -49 30 -95q31 -55 52 -123q20 -66 25 -134q1 -19 1 -39q0 -47 -8 -93q-12 -64 -50 -112q-22 -33 -52 -35h-3q-28 0 -49 49q55 43 82 95q26 53 30 103q1 8 0 15q0 42 -16 79q-20 44 -56 73.5t-84 39.5 q-17 4 -36 4q-33 0 -68 -12z" />
<glyph unicode="W" horiz-adv-x="1732" d="M20 852q12 88 46 175t89.5 169t134.5 154.5t183 132.5q119 -158 168 -294q48 -133 48 -257v-5q-1 -126 -46 -249t-115 -254q20 -23 52 -47q49 -43 145 -117q27 -20 49.5 -31.5t47 -9.5t53 20.5t67.5 59.5v934q-31 25 -64.5 46t-82.5 38q6 14 21 38.5t39 54.5t55.5 60.5 t70.5 55.5q41 -12 79 -34t66 -44q33 -25 60 -55l-27 -64l8 -1010q8 -23 27.5 -44t45.5 -30t57.5 1t62.5 53q51 80 96 179.5t79 204.5t57 209q22 106 27 196q1 26 1 49q0 61 -8 109q-12 68 -47 97q-43 39 -83 47q-17 3 -32 3q-22 -1 -43 -7q-35 -10 -64.5 -33.5t-54.5 -47.5 l-31 32l250 289q4 1 10 1q21 0 59 -11q48 -14 97 -42t88 -69t39 -92v-15q0 -116 -30 -262q-32 -154 -88 -312t-128.5 -305.5t-152.5 -256.5q-41 -53 -88 -104q-41 -43 -91.5 -91.5t-101.5 -82.5q-72 51 -123 116.5t-73 106.5q-29 -31 -59.5 -63.5t-61.5 -65.5t-60.5 -59.5 t-52.5 -45.5q-49 35 -91 76t-78 76t-63.5 59.5t-49.5 26.5q-10 0 -25 -10q-8 -6 -14 -13l-39 48q92 104 143 238t52 276v5q0 139 -50 274q-51 138 -162 255q-29 -31 -51 -72t-32 -87q-7 -31 -8 -63q0 -15 2 -30q5 -47 30 -92q29 -55 49.5 -110.5t25.5 -108.5q1 -15 1 -30 q0 -37 -8 -75q-12 -52 -50 -100q-22 -31 -52 -33h-3q-28 0 -47 47q84 61 102 130q7 28 8 53q0 37 -16 67q-28 51 -94 75q-31 11 -66 11q-40 0 -84 -14z" />
<glyph unicode="X" horiz-adv-x="1312" d="M20 647q76 8 112 52t36 93.5t-31 91.5t-84 48q25 68 77 142.5t123 149t151.5 144.5t162.5 129q47 -14 90 -37q37 -20 78 -51t70 -78q31 37 77 89.5t101 117.5q35 -20 71 -45t78 -38q36 -11 80 -11h13q51 2 118 33l19 -43l-186 -187q-29 -27 -61 -73t-64.5 -103 t-63.5 -123.5t-53 -134.5q31 -5 57 -5q63 0 105 28q58 38 106 114l45 -63q-72 -63 -114.5 -109.5t-73.5 -77t-57.5 -48t-63.5 -23.5q35 -102 66.5 -179t54.5 -106q73 -90 143 -112q19 -6 36 -5q48 0 85 43l33 -39q-37 -53 -74 -104q-33 -43 -73 -90t-79 -82 q-66 43 -112.5 68.5t-80.5 29.5t-56.5 -14.5t-38.5 -63.5l-47 27q35 60 50 116q10 37 10 77q0 22 -3 45q-37 -39 -75 -86.5t-71.5 -88t-65.5 -69.5t-56 -31q-29 -2 -54.5 13.5t-47 38t-41 47t-38.5 40.5q-22 22 -44 22q-13 0 -27 -8q-36 -22 -43 -87l-66 32q27 66 61.5 141 t84 153.5t118 156.5t160.5 150q-10 4 -20.5 7t-20.5 7q-46 16 -80 16h-8q-37 -2 -61.5 -15t-36.5 -34.5t-12 -42.5l-54 47q53 59 92 104.5t71 76t62.5 46t67.5 15.5l-65 199q-29 86 -82.5 124.5t-120.5 49.5q-39 -23 -65.5 -83.5t-43.5 -172.5q-10 -72 -17 -134.5 t-21.5 -114.5t-42 -93t-78.5 -72q-22 -13 -42 -13q-10 0 -19 3q-28 10 -30 63zM393 236q53 51 109 53h5q55 0 134 -47q18 -10 39.5 -19.5t46.5 -6.5t52.5 22.5t58.5 66.5l-4 12q-14 43 -31 97q-14 45 -33.5 103t-40.5 124l-22 4q-49 -41 -99.5 -92t-93.5 -105.5 t-74.5 -108.5t-46.5 -103zM807 1282v-16q-1 -80 17 -182q20 -114 50 -232q47 111 111 205t121 168q-19 -3 -36 -3q-30 0 -56 9q-41 14 -76 31q-34 16 -66 26q-12 4 -25 4q-20 0 -40 -10z" />
<glyph unicode="Y" horiz-adv-x="1423" d="M20 852q12 88 45 175t87.5 167t132 151.5t182.5 131.5q104 -139 148 -257q43 -115 43 -218q0 -106 -40 -204q-38 -96 -96 -190l-41 -63q35 -4 82 -30t101 -56q47 -27 88 -31q8 -1 17 -1q32 0 63 13q38 15 78 46.5t87 76.5v565l50 50q-31 12 -58.5 31.5t-50.5 37.5 q-25 23 -49 47q20 39 43 78q20 35 47 72t61 72q37 -35 74 -68q33 -29 71 -58.5t77 -48.5l-66 -96v-686q53 -23 95 -71t61 -110q17 -52 17 -111q0 -12 -1 -25q-4 -72 -43 -142l-477 -374q-270 96 -429 143q-101 30 -150 30q-27 0 -38 -10q-21 -23 -21 -52q0 -8 2 -17 q7 -39 36 -94h-101q-1 14 -1 29q0 48 14 99q20 68 59 124.5t92.5 92t112.5 35.5t133 -35.5t156 -73.5t166 -59q33 -8 66 -8q49 0 97 19q61 25 94 81q27 46 27 102q0 11 -1 24q-7 69 -58 142t-158 132l-258 -242q-86 37 -148.5 61.5t-107.5 37t-76.5 12.5t-56.5 -12l-33 24 l45 60q76 129 121 250.5t50 236.5q1 13 1 26q0 101 -35 196q-40 108 -133 206q-31 -31 -53 -73t-32 -88q-8 -31 -8 -63q0 -15 2 -30q5 -47 30 -92q31 -55 51.5 -110.5t25.5 -108.5q1 -15 1 -30q0 -38 -8 -75q-13 -53 -50 -100q-23 -31 -52 -33h-2q-28 0 -50 47 q84 61 102 130q8 28 8 53q0 37 -16 67q-28 51 -94 75q-31 11 -66 11q-40 0 -84 -14z" />
<glyph unicode="Z" horiz-adv-x="1273" d="M20 618q76 8 111 52.5t35 94.5t-31 92t-84 48q25 68 78 141.5t124 148.5t151.5 144.5t162.5 128.5q98 -41 200.5 -78.5t194.5 -51.5q37 -6 71 -5q49 -1 89 11q70 20 105 92q10 -10 16 -25.5t10 -32.5q6 -18 9 -39l-140 -71q-94 -88 -188 -207t-182 -250l30 -12 q78 -35 134 -41q17 -2 33 -2q36 0 65 10q41 14 70.5 48t56.5 81l41 -64q-129 -129 -237.5 -199.5t-176.5 -80.5q-14 -1 -28 -1q-30 0 -53 6q-34 9 -75 28q-98 -176 -159 -326q18 14 41 29q18 12 42.5 27.5t53.5 29.5q74 -20 141.5 -49t125.5 -55.5t109.5 -45t94.5 -18.5 q51 0 85 9.5t58.5 30t42 49t37.5 69.5l74 -35q-45 -78 -137.5 -139.5t-186.5 -104.5q-111 -51 -237 -90q-66 66 -129 115q-52 42 -112 74q-53 29 -93 28h-10q-53 -8 -82 -45t-39 -78q-13 -46 -13 -100v-8l-129 53q51 117 132 272.5t204 344.5l-12 4q-47 18 -77.5 19t-50 -8 t-28 -27.5t-8.5 -39.5l-47 47q55 68 100.5 115t88.5 73t86 34q18 3 39 4q27 0 57 -6q66 86 138.5 177t156.5 187q-82 -35 -144.5 -53.5t-93.5 -18.5q-29 0 -64.5 17.5t-72.5 39t-71 41t-56 25.5q-11 1 -21 1q-24 0 -46 -7q-30 -10 -56.5 -40.5t-44.5 -85t-31 -138.5 q-10 -74 -16 -136.5t-20.5 -114.5t-42 -93t-78.5 -72q-22 -12 -42 -12q-10 0 -20 3q-29 9 -29 62z" />
<glyph unicode="[" horiz-adv-x="708" d="M20 -256v1149q0 104 32 184t77 143.5t95 110.5t89 86q68 -43 119 -62.5t90 -21.5t70 9.5t61 29.5l35 -35l-264 -237l-174 145q-16 -23 -23.5 -59.5t-10.5 -77.5t-3 -80v-65v-1004q33 33 79 32t97 -2t105.5 18.5t105.5 92.5l53 -53q-45 -61 -90 -121q-39 -51 -82 -109.5 t-80 -107.5q-78 76 -131 104.5t-92 21.5t-67.5 -42t-55.5 -84z" />
<glyph unicode="\" horiz-adv-x="692" d="M-205 1489l27 18q47 -43 86 -70.5t94 -62.5q20 -53 80.5 -208.5t159 -380t232.5 -502t300 -576.5l-59 -35q-203 387 -349.5 662.5t-254 466t-181 307.5t-131.5 184q20 35 14 89.5t-18 107.5z" />
<glyph unicode="]" horiz-adv-x="708" d="M20 -188l265 237l174 -145q16 20 23 58t10.5 79t3.5 80v65v1004q-23 -23 -50.5 -28t-59.5 -4t-66.5 2t-70.5 -7t-72 -31.5t-68 -72.5l-54 53q43 59 88 119q39 51 83 110.5t81 108.5q76 -78 130.5 -105.5t93 -20.5t67.5 42t55 84l35 -35v-1149q0 -104 -31.5 -184 t-76.5 -143.5t-95.5 -110.5t-89.5 -86q-68 43 -119 62.5t-90 21.5t-69.5 -9.5t-61.5 -29.5z" />
<glyph unicode="^" horiz-adv-x="743" d="M20 905q57 68 125 144q57 63 130 143t151 162q10 -18 41 -63.5t76 -98.5t100 -103.5t115 -76.5q-27 -12 -54.5 -35t-54 -52.5t-47 -63.5t-31.5 -66q-41 72 -90 137q-41 55 -94 112.5t-108 92.5q-39 -68 -74 -131q-29 -53 -57.5 -108.5t-41.5 -90.5q-20 12 -36 29 q-14 14 -29 30t-21 39z" />
<glyph unicode="_" horiz-adv-x="1015" d="M20 -287q45 47 84 90t76 78t75 59.5t81 36.5q43 10 119.5 -8t169 -38.5t189.5 -25.5t181 32l-2 -64q-76 -2 -126 -14.5t-86 -33t-64.5 -49t-61.5 -65.5q-172 63 -275.5 88t-161.5 14.5t-86 -52.5t-48 -107z" />
<glyph unicode="`" horiz-adv-x="436" d="M20 1290l211 199l27 -25q-18 -39 -23.5 -83t11 -87t57.5 -83t113 -72l-33 -60q-43 31 -101.5 51.5t-113.5 41t-97 47t-51 71.5z" />
<glyph unicode="a" horiz-adv-x="888" d="M14 475q8 100 44 194.5t101.5 175.5t159.5 136l156 106l166 -165q18 -23 47 -19l113 150l57 -43q-68 -27 -104.5 -99.5t-36.5 -193.5v-412q0 -47 19.5 -81t48 -48t60.5 -4t56 51l33 -30q-37 -37 -75 -71t-72.5 -60.5t-66.5 -43t-56 -16.5q-45 0 -92.5 47t-77.5 141 q-47 -29 -94.5 -63.5t-88.5 -67.5q-47 -36 -90 -75q-76 49 -124 126q-47 78 -69 172q-15 67 -16 137q0 28 2 56zM183 690q-2 -25 -2 -50q1 -48 9 -98q14 -76 44 -143t76 -121.5t106 -82.5q8 8 18 16t22.5 18.5t28.5 22.5v491l-182 183q-53 -41 -83 -102.5t-37 -133.5z" />
<glyph unicode="b" horiz-adv-x="956" d="M-102 1397l215 153q59 -4 88.5 -30.5t58.5 -53.5l92 72l27 -27q-29 -25 -45.5 -56.5t-25.5 -82.5t-12 -124.5t-3 -184.5v-287q63 68 118.5 127.5t98.5 104.5q49 53 92 94q125 -113 184.5 -232.5t66.5 -233.5q1 -17 1 -34q0 -95 -33 -178q-39 -98 -106 -166 q-37 -39 -85 -81t-94.5 -82t-85 -73.5t-61.5 -56.5q-33 20 -83 48t-97 55q-55 31 -117 63q-10 -25 -25.5 -50.5t-29.5 -47.5q-16 -25 -35 -49l-37 36q33 33 52.5 58.5t29.5 55.5t13 69t3 94v833q0 115 -34.5 176.5t-130.5 90.5zM293 373q0 -33 21.5 -73t53.5 -72 q33 -32 72 -52q30 -15 57 -15q8 0 17 1q43 8 71.5 49t42.5 101q12 53 11 116v18q-2 74 -22.5 148t-59.5 142.5t-96 119.5q-41 -23 -85 -61.5t-83 -85.5v-336z" />
<glyph unicode="c" horiz-adv-x="661" d="M24 500q8 108 52.5 212.5t121 193.5t185.5 151q63 -61 125 -94q33 -18 63 -18q26 0 50 13l20 -28q-25 -33 -55 -66q-27 -29 -63 -57.5t-83 -48.5l-186 129q-52 -81 -64 -183q-4 -33 -3 -67q1 -67 17 -130q26 -95 89 -173t164 -111q12 16 32 37q16 16 40 36.5t53 39.5 l45 -49q-47 -16 -101.5 -66.5t-99.5 -103.5q-53 -63 -104 -137q-111 47 -179.5 128.5t-97.5 181.5q-22 78 -22 161q-1 24 1 49z" />
<glyph unicode="d" horiz-adv-x="829" d="M20 450v17q0 93 26 183q28 98 84 186t138 155q-215 159 -227 347q-1 12 -1 24q0 179 163 397l78 -41q-153 -89 -153 -192q0 -18 4 -36q32 -124 276 -265q150 -88 230 -183q80 -96 106 -195q14 -56 15 -113q-1 -42 -9 -86q-20 -100 -68 -199q-49 -100 -106.5 -185.5 t-106.5 -148.5q-58 -74 -115 -135q-113 43 -185.5 116.5t-109.5 163.5t-39 190zM173 568q15 -104 84 -198t192 -155q83 68 119 159q27 67 26 140q0 26 -3 52q-13 102 -82 203t-194 189q-85 -80 -121 -183q-25 -72 -26 -145q1 -31 5 -62z" />
<glyph unicode="e" horiz-adv-x="704" d="M9 524q11 110 58.5 214t128 192t189.5 145q78 -43 128 -82t79 -72.5t38 -64.5t7 -59q-4 -43 -36 -85t-85 -88t-123.5 -99.5t-152.5 -118.5q37 -59 94 -104.5t141 -72.5q18 18 41 39q18 16 44 37t58 39l48 -49q-51 -16 -108.5 -65.5t-104.5 -102.5q-56 -63 -111 -135 q-127 51 -204 135q-76 83 -108 185q-23 75 -24 156q0 27 3 56zM172 674q-1 -16 -1 -33q0 -102 46 -197q95 80 153 146q61 68 60 119q0 53 -54 93q-56 42 -136 89q-60 -98 -68 -217z" />
<glyph unicode="f" horiz-adv-x="522" d="M-12 922l127 116l-6 197q66 47 126 89t112 86t97 91t80 105q39 -39 95.5 -60.5t118.5 -29.5q35 -4 70 -4q26 0 52 2q60 6 103 20v-61q-309 -88 -488 -332q106 4 174 10t109 12q47 8 71 17l33 -41q-74 -23 -117 -47.5t-73.5 -49t-56 -47t-64.5 -43.5q-29 -16 -62 -16 q-13 0 -27 2q-48 10 -87 31q-144 -311 -144 -799q0 -273 45 -602l-108 -205l-51 1598q-20 -23 -38 -48.5t-28 -54.5zM354 1139h35l172 178h-207v-178z" />
<glyph unicode="g" horiz-adv-x="911" d="M-170 -393q31 55 66.5 104t78.5 98.5t96.5 99.5t118.5 105q-66 55 -105.5 134t-54.5 170q-9 53 -9 107q0 40 5 81q11 96 49 185t102.5 166t156.5 128l149 102l76 -75l55.5 -55.5t36.5 -34.5q18 -23 45 -19l113 150l57 -43q-66 -27 -103.5 -99.5t-37.5 -193.5v-432 l156 -217q-80 -104 -132.5 -182.5t-94.5 -132.5t-82 -87t-97 -47q-20 -4 -42 -4q-40 0 -83 13q-69 22 -137 50.5t-125 49.5q-37 14 -64 14q-15 0 -28 -4q-20 -8 -36.5 -38t-27.5 -62q-14 -37 -24 -84zM88 -143q40 8 80 8q33 0 66 -5q75 -12 150 -23q69 -10 135 -10h11 q72 1 140 40q0 27 -5.5 61.5t-22.5 74.5t-50 82t-86 83q-47 -25 -101.5 -58.5t-110.5 -73.5t-109.5 -86t-96.5 -93zM198 686q-1 -19 -1 -39q0 -55 10 -113q14 -77 46 -148t79 -127t106 -85l17 16q8 8 17 19.5t24 23.5v510l-185 183q-53 -41 -80.5 -103.5t-32.5 -136.5z" />
<glyph unicode="h" horiz-adv-x="919" d="M-102 1397l215 153q59 -4 88.5 -30.5t58.5 -53.5l92 72l27 -27q-29 -25 -45.5 -56.5t-25.5 -82.5t-12 -124.5t-3 -184.5v-305l260 301q115 -66 189 -199q75 -135 74 -330q0 -191 -86 -435q-87 -247 -294 -541q-29 4 -59.5 22t-46.5 35q37 14 67.5 29.5t55 35t43 47 t30.5 68.5q20 63 41 147.5t32 177.5t11 191.5t-19.5 189.5t-62.5 171t-116 139q-31 -31 -58.5 -70t-60.5 -121v-294q0 -31 11 -50.5t28.5 -29t36 -6t34.5 19.5l33 -31q-33 -47 -69 -90q-31 -37 -72 -74.5t-82 -58.5q-31 29 -65.5 61.5t-69.5 38.5q-27 -45 -49 -82 q-12 -20 -27 -36l-37 36q33 33 52.5 58.5t29.5 55.5t13 69t3 94v833q0 113 -34.5 175.5t-130.5 91.5z" />
<glyph unicode="i" horiz-adv-x="509" d="M0 842l174 209q43 -43 71.5 -69t52.5 -34t46.5 1t50.5 38l29 -45q-41 -43 -64.5 -72.5t-23.5 -76.5v-471l-49 -50q27 -16 50 -30.5t44.5 -22.5t41 -6t36.5 18l26 -26l-254 -252l-194 135q31 31 47 59.5t16 88.5v469q0 61 -24.5 88.5t-75.5 48.5zM27 1266l174 274 l174 -256q-37 -47 -62.5 -82t-45 -56.5t-35 -31.5t-33.5 -10q-20 0 -37 12t-35 33.5t-42 51.5t-58 65z" />
<glyph unicode="j" horiz-adv-x="499" d="M-262 -362q4 18 15 38.5t40 36.5q8 -25 40 -47t75 -28q11 -2 23 -2q32 0 68 14q48 18 87 76q33 59 42 120q6 43 6 87q0 19 -1 39q-4 63 -12 128.5t-8 135.5v469q0 61 -26 88.5t-75 48.5l172 209q43 -43 73 -69t53.5 -34t46 1t51.5 38l28 -45q-41 -43 -64.5 -72.5 t-23.5 -76.5v-596q-57 -207 -122.5 -338t-140.5 -200t-162 -82q-26 -4 -54 -4q-63 0 -131 21q-4 20 0 44zM43 1266l174 274l174 -256q-37 -47 -62.5 -82t-45 -56.5t-35 -31.5t-33.5 -10q-20 0 -36.5 12t-35 33.5t-42 51.5t-58.5 65z" />
<glyph unicode="k" horiz-adv-x="856" d="M-102 1397l217 153q57 -4 86.5 -30.5t58.5 -53.5l92 72l27 -27q-29 -25 -45.5 -56.5t-25.5 -82.5t-12 -124.5t-3 -184.5v-281l237 277q96 -33 131 -89q27 -43 27 -92q0 -16 -3 -32q-11 -66 -61.5 -137.5t-121.5 -135.5q33 2 66.5 5.5t58.5 7.5q33 -23 65.5 -66t54 -101.5 t26.5 -128.5q1 -12 1 -25q0 -59 -20 -122q-27 -82 -72 -139t-88 -113.5t-75 -121t-32 -158.5l-88 35q106 184 141 328q26 107 26 192q0 30 -3 56q-12 104 -59 171.5t-109 102.5q-25 -16 -50.5 -30.5t-51.5 -25.5v-118q0 -31 11 -50.5t28.5 -29t37 -6t36.5 19.5l30 -31 q-33 -47 -69 -90q-31 -37 -72 -74.5t-82 -58.5q-29 29 -64.5 61.5t-70.5 38.5q-27 -45 -49 -82q-12 -20 -27 -36l-37 36q33 33 52.5 58.5t29.5 55.5t13 69t3 94v833q0 113 -34.5 175.5t-130.5 91.5zM293 477q84 43 132 99q49 55 61 106q4 17 4 33q0 30 -16 53q-24 35 -85 39 q-25 -25 -48.5 -55.5t-47.5 -83.5v-191z" />
<glyph unicode="l" horiz-adv-x="495" d="M-16 20q31 33 50 58.5t29.5 55.5t13.5 69t3 94v621q0 86 -4 174t-11.5 165.5t-17.5 144t-24 109.5q27 27 75 27q-3 -23 -3 -58q0 -18 1 -38q2 -62 6 -127q2 -61 41 -74q33 63 87.5 133t140.5 164l26 -27q-29 -25 -45 -56.5t-25.5 -82.5t-12.5 -124.5t-3 -184.5v-741 q0 -31 11.5 -50.5t28 -29t36 -6t35.5 19.5l31 -31q-33 -47 -70 -90q-31 -37 -72 -74.5t-82 -58.5q-29 29 -63.5 61.5t-69.5 38.5q-27 -45 -49 -82q-12 -20 -27 -36z" />
<glyph unicode="m" horiz-adv-x="1185" d="M-35 20q31 33 50.5 58.5t29.5 55.5t13 69t3 94v489q-35 35 -90 54l179 225q23 -29 50 -57.5t54 -52t50.5 -42t35.5 -28.5l195 180q35 -47 81 -87t80 -65q18 16 41 37t45.5 42.5t41 40t30.5 32.5q86 -76 142 -169q58 -92 82 -196q19 -79 18 -161q0 -25 -2 -49 q-8 -106 -45 -209q-35 -88 -77 -155t-81 -132.5t-69.5 -140t-41.5 -179.5l-75 35q117 236 157 421q32 145 32 263q0 33 -2 63q-11 140 -63.5 239.5t-123.5 160.5l-27 -33v-501q0 -61 17.5 -81t45.5 -22l15 -22q-12 -31 -37 -61t-54.5 -55.5t-58 -46t-51.5 -32.5 q-29 29 -65.5 60.5t-77.5 50.5q18 31 26 78t8 106v489q-31 31 -67 56q-25 -14 -47.5 -31.5t-38.5 -34.5v-454q0 -61 17.5 -81t45.5 -22l17 -22q-27 -61 -76 -119t-96 -76q-29 29 -58.5 56.5t-64.5 43.5q-27 -45 -49 -82q-12 -20 -27 -36z" />
<glyph unicode="n" horiz-adv-x="835" d="M-25 20q33 33 52.5 58.5t30 55.5t13.5 69t3 94v489q-39 35 -92 54l180 225q39 -51 87 -94t77 -66q18 16 42.5 38t48 44.5t44 43t33.5 34.5q174 -151 227 -349q22 -81 22 -164q0 -118 -45 -239q-35 -88 -80 -158.5t-92 -142t-89 -154.5t-68 -198l-74 49q150 223 203 407 q44 154 44 280q0 24 -2 48q-10 144 -68 247.5t-130 164.5l-39 -49v-485q0 -61 18.5 -81t47.5 -22l14 -22q-27 -61 -75 -119t-95 -76q-29 29 -59.5 56.5t-65.5 43.5q-27 -45 -49 -82q-12 -20 -27 -36z" />
<glyph unicode="o" d="M-6 379q-5 35 -5 70q-1 97 37 197q52 136 181 245q29 31 59.5 62.5t52.5 56.5q27 28 54 55q96 -31 166.5 -90.5t113.5 -137t57 -166.5q7 -40 7 -81q1 -50 -9 -100q-18 -92 -68 -178.5t-134 -155.5q-31 -33 -61.5 -63t-53.5 -54q-27 -29 -51 -55q-152 49 -240 156.5 t-106 238.5zM156 670q-3 -26 -3 -51q0 -73 26 -145q36 -97 111 -174t173 -99q78 68 91 162q3 25 3 49q-1 69 -27 139q-36 94 -112 173t-176 114q-74 -68 -86 -168z" />
<glyph unicode="p" horiz-adv-x="862" d="M-178 27l196 274q27 2 56 0v485q-35 35 -90 54l180 225q23 -29 48.5 -59.5t50 -58t46 -50.5t33.5 -35q25 33 53.5 70t55 70.5t48 60.5t31.5 39q117 -74 181.5 -187.5t72.5 -244.5v-33q0 -115 -44 -233q-52 -134 -167 -248q-31 -29 -61.5 -55.5t-66 -45t-76.5 -27.5 q-26 -5 -55 -5q-17 0 -35 2v-158q0 -31 9 -44t22.5 -15.5t28.5 0t30 2.5l16 -23q-27 -61 -76 -118.5t-94 -76.5q-31 29 -60.5 56.5t-64.5 44.5q-27 -45 -49 -82q-12 -20 -27 -37l-37 37q33 33 51.5 58.5t29 55t13.5 68.5t3 94v201q-54 20 -91 20q-24 0 -41 -8 q-42 -22 -71 -116zM279 227q57 -27 112 -45q38 -12 76 -12q16 0 33 2q35 51 56 141q18 72 18 151q0 20 -2 40q-5 102 -40.5 199.5t-115.5 162.5l-137 -166v-473z" />
<glyph unicode="q" horiz-adv-x="823" d="M-1 475q7 100 43 194.5t101.5 175.5t159.5 136l156 106l166 -165q18 -23 47 -19l112 150l58 -43q-35 -12 -69 -55.5t-62.5 -100.5t-48 -122.5t-21.5 -125.5q-3 -55 -3 -106q0 -92 10 -172q14 -125 32 -217q23 -109 51 -195q-53 -23 -99 -68t-74 -102t-33 -122 q-1 -8 -1 -17q0 -56 27 -111l-82 -33v723q-47 -29 -92 -63.5t-84 -65.5q-45 -36 -86 -73q-76 49 -125 126.5t-70 171.5q-15 69 -15 143q0 25 2 50zM169 688q-2 -25 -2 -51q0 -48 8 -97q13 -77 44 -145.5t78 -124t106 -84.5q8 6 19 15q10 8 20.5 17t26.5 22v503l-182 183 q-53 -41 -82 -103.5t-36 -134.5z" />
<glyph unicode="r" horiz-adv-x="667" d="M-27 788l181 226q35 -47 82 -91t81 -73q45 55 97.5 105.5t101.5 76.5q20 -49 56 -80.5t76 -39.5q10 -2 21 -1l59 15q40 22 69 78l59 -58q-88 -59 -174 -130t-141 -134l-187 121l-39 -39v-442q0 -61 17.5 -81t46.5 -22l16 -22q-27 -61 -76 -119t-94 -76q-31 29 -60.5 56.5 t-64.5 43.5q-27 -45 -49 -82q-12 -20 -26 -36l-37 36q33 33 52 58.5t29.5 55.5t13.5 69t3 94v430q-25 23 -53.5 37t-59.5 24z" />
<glyph unicode="s" horiz-adv-x="856" d="M-158 63q35 55 80 115q37 51 89 115.5t116 132.5q-61 48 -97 118q-29 56 -29 116q0 15 2 31q9 77 71.5 154t193.5 140l127 107q95 -56 189 -66q10 -1 21 -2q84 0 171 68v-74q-49 -6 -89 -35t-73.5 -63.5t-61.5 -65.5t-54 -39q-27 -10 -52.5 1t-51 32.5t-50.5 50.5t-49 57 q-39 -27 -64.5 -72.5t-29.5 -97.5q-1 -8 -1 -17q0 -44 18 -87q22 -51 81 -90q35 23 73 50.5t68 49.5q37 27 70 53q109 -16 168 -61q60 -44 82 -110q18 -54 18 -119q0 -15 -1 -30q-5 -83 -25 -177q-61 -35 -129 -83t-123 -95q-66 -53 -127 -113q-121 109 -217.5 159 t-167.5 50q-16 -16 -27.5 -43t-19.5 -55q-8 -33 -17 -68zM80 307q29 9 59 9q39 0 81 -14q74 -26 134 -64q72 -47 140 -111q54 126 54 221q0 16 -2 30q-10 104 -59 152q-27 24 -63 24q-10 0 -22 -2q-50 -9 -107 -45t-113.5 -89t-101.5 -111z" />
<glyph unicode="t" horiz-adv-x="643" d="M-139 719q12 31 46 82t81 107.5t103 112.5t116 95q160 -72 263 -110q104 -37 166 -38h3q60 0 92 39q33 40 53 123l70 -40q-18 -37 -43 -83t-57.5 -88t-76.5 -77t-104 -49q-44 -11 -88 -11l-44 3q-66 8 -132 24q-41 -63 -65 -145q-23 -76 -23 -150v-12q2 -80 34 -149.5 t103 -108.5q41 -23 77 -23q9 0 17 1q42 7 71.5 36t48 71t24.5 85l76 -27q-37 -68 -86 -142.5t-92 -138.5q-53 -74 -105 -147q-121 8 -201 81q-79 72 -104 190q-10 47 -10 99q0 79 23 171q38 152 155 321q-52 11 -102 17q-15 2 -30 2q-33 0 -63 -8q-43 -12 -78.5 -47 t-62.5 -103z" />
<glyph unicode="u" horiz-adv-x="944" d="M-61 801l206 239q45 -20 95 -67q52 -47 82 -134q32 -90 31 -223q0 -130 -54 -317q29 -29 60.5 -40t62.5 -9t57.5 12t48.5 25v528l-73 107l178 163q18 -33 37 -57q16 -23 29.5 -43t23.5 -29q16 -16 41 -12l80 107l57 -43q-68 -27 -104.5 -99.5t-36.5 -193.5v-412 q0 -47 20.5 -81t49 -48t60.5 -4t56 51l31 -31q-37 -37 -74 -70.5t-72.5 -61t-66.5 -44t-55 -16.5q-47 0 -95.5 63.5t-78.5 165.5l-261 -245l-247 141q33 37 57.5 105.5t36.5 147.5t12 157.5t-17 138.5q-16 60 -50 88q-20 17 -48 16q-19 0 -41 -8z" />
<glyph unicode="v" horiz-adv-x="849" d="M-49 801l205 239q51 -47 93 -72.5t64 -35.5q35 25 82 56.5t93.5 65t85 64.5t57.5 53q82 -70 122 -141.5t50 -143.5q4 -28 3 -55q0 -43 -8 -87q-16 -70 -42.5 -135.5t-59 -127t-59.5 -112.5l-201 -387l-373 157q12 14 20.5 26.5t12.5 26t5 32t1 46.5v418q0 66 -32 94 q-13 11 -29 11q-23 0 -51 -25zM336 291q53 -42 102 -42q16 0 34 5q64 20 122 137q29 53 41 121q8 48 8 96q0 20 -1 40q-5 68 -29.5 129t-69.5 102t-92.5 41t-114.5 -54v-575z" />
<glyph unicode="w" horiz-adv-x="1206" d="M16 524q4 133 56.5 277.5t156 293t269.5 287.5q43 -8 83 -35.5t58 -62.5q-100 -16 -173 -63t-132 -111q-43 -45 -75 -114.5t-46 -152.5q-11 -65 -11 -133q0 -20 1 -40q4 -90 30.5 -176t79 -162t136.5 -131l40 39v548q-18 23 -36.5 31t-34.5 8q-18 0 -33 -8l-25 25 l183 215q43 -39 79.5 -66.5t61.5 -44.5q37 25 80 55.5t85 61.5t75.5 58.5t52.5 47.5q82 -70 122 -141.5t50 -143.5q4 -28 3 -55q0 -43 -8 -87q-16 -70 -42.5 -135.5t-59 -127t-59.5 -112.5l-201 -387l-317 151l-174 -170q-86 41 -150.5 123t-96.5 194q-28 99 -28 215v29z M723 291q38 -30 74 -30q21 -1 41 9q56 26 102 121q29 53 41 121q8 48 8 96q0 20 -1 40q-5 68 -28.5 129t-68.5 102q-39 35 -78 40q-5 1 -11 1q-35 0 -79 -27v-602z" />
<glyph unicode="x" horiz-adv-x="839" d="M-45 862l207 240q35 -35 68.5 -56.5t58.5 -35.5q29 -16 53 -25q8 -14 16 -37q8 -18 18.5 -43.5t24.5 -54.5l217 250q104 -34 137 -98q20 -38 20 -82q-1 -28 -9 -58q-22 -76 -86 -153.5t-152 -139.5q33 -72 58.5 -129t36.5 -80q14 -31 34.5 -43t42 -11t43 14.5t37.5 33.5 l25 -37l-160 -319q-41 0 -70.5 17.5t-55 51t-53.5 85t-65 118.5q-35 61 -66.5 128t-62.5 132q-41 -29 -80.5 -76.5t-72.5 -119.5q-23 -52 -23 -95q0 -23 6 -43q18 -58 60 -86q34 -23 73 -23q9 0 17 1q49 6 74 55q5 11 5 22q-1 21 -19 42q-19 21 -52 21q-17 0 -37 -5 q0 14 3 30.5t12.5 31t25 22.5t37.5 6q29 -4 51.5 -31.5t26.5 -67.5q1 -7 1 -14q0 -34 -16 -72q-18 -46 -73 -85q-53 -41 -85 -85t-48 -77q-29 10 -56 21q-23 10 -48.5 21.5t-43.5 23.5q-35 23 -47 83q-4 20 -4 43q-1 45 15 102q24 85 88.5 189.5t185.5 219.5 q-31 68 -56.5 125t-44.5 94q-29 59 -67 63h-7q-36 0 -79 -37zM428 793l80 -179q36 41 54 82q14 33 14 61v14q-4 34 -29 55.5t-70 23.5q-27 -27 -49 -57z" />
<glyph unicode="y" horiz-adv-x="843" d="M-74 801l207 239q49 -47 91 -71.5t67 -34.5q35 23 81 54.5t92 65t85 64.5t57 53q98 -84 142 -175q42 -88 42 -179v-6q-2 -94 -39.5 -191.5t-101 -193.5t-146.5 -190.5t-171 -182.5q-43 -51 -52 -95q-5 -19 -5 -36q0 -23 7 -42q13 -34 42.5 -55.5t63.5 -26.5q10 -1 19 -1 q24 0 47 9q33 12 54 47q10 16 9 35.5t-13 34t-37 21.5t-59 1q0 33 14 63q12 24 49 24q7 0 16 -1q33 -4 56.5 -33t27.5 -71q1 -6 1 -12q0 -37 -20 -79q-24 -49 -87 -90t-101 -87t-59 -81q-31 10 -61 23q-27 10 -54.5 22t-48.5 27q-45 33 -52 77q-2 11 -2 22q0 35 17 76 q21 54 68 118.5t111 136.5l-244 131q14 14 21.5 26.5t11.5 25.5t5 31.5t1 47.5v346q0 66 -33 94q-13 11 -29 11q-23 0 -51 -25zM313 362q16 -14 39 -27t45 -24l54 -26q16 14 30 32l25.5 34t23.5 40q29 53 47.5 121t20.5 136v14q0 61 -16 116q-17 60 -62 101t-92 41t-115 -54 v-504z" />
<glyph unicode="z" horiz-adv-x="735" d="M-78 12q39 92 82 180.5t99.5 180.5t134 190.5t186.5 208.5q-41 -18 -66 -18q-29 0 -55.5 16t-53 36.5t-52 40t-47.5 23.5q-20 2 -45 -2t-47.5 -18t-40 -41t-25.5 -70q-35 10 -50.5 26.5t-19.5 35.5q74 82 163 159.5t179 143.5q82 -45 152 -81q72 -37 130 -51q27 -7 50 -6 q29 0 55 10q47 18 84 81q10 -10 17.5 -21.5t13.5 -21.5q8 -12 12 -25q-35 -20 -67.5 -38.5t-61.5 -37.5q-74 -63 -138.5 -125.5t-123.5 -137.5t-116.5 -167t-120.5 -213q18 16 40 33q18 14 44 30.5t55 33.5q66 -20 111.5 -45t79.5 -46.5t60.5 -38t53.5 -18.5q7 -1 13 -1 q37 0 61 20q28 24 57 108l74 -35q-43 -78 -109.5 -135t-130.5 -98q-74 -47 -153 -80q-51 51 -101 90q-41 34 -89 60q-39 21 -69 21q-7 0 -14 -1q-55 -10 -88 -64q-29 -49 -29 -123v-18z" />
<glyph unicode="{" horiz-adv-x="638" d="M20 385q29 63 75 111.5t93 70.5q49 84 54.5 140.5t-10 97.5t-36 73.5t-20.5 71.5q0 41 14.5 85t52.5 100.5t106.5 129t178.5 173.5l47 -47q-154 -129 -175 -235.5t81 -178.5l-227 -389q39 2 71.5 -16.5t54 -62.5t30 -119t-3.5 -181q-12 -109 6 -175.5t49 -97t65.5 -25.5 t53.5 44l38 -53q-35 -98 -86 -151.5t-103 -66t-100 13.5t-80 87t-39 154.5t21 214.5q27 117 19 187.5t-38 95t-73 3t-82 -89.5z" />
<glyph unicode="|" horiz-adv-x="321" d="M20 1352l173 170q33 -18 57 -52q23 -29 38 -72.5t11 -107.5q-2 -33 -6 -124t-11.5 -218t-14.5 -278.5t-15 -304.5q-18 -360 -39 -799h-43q0 684 -23.5 1092.5t-40.5 523.5q-8 53 -22 87t-29 52q-16 23 -35 31z" />
<glyph unicode="}" horiz-adv-x="638" d="M20 1247q35 98 86.5 151.5t103.5 66t100 -13.5t80 -87t39 -154.5t-21 -214.5q-29 -117 -20 -187.5t39 -95t73 -3t82 89.5l36 -35q-29 -63 -74.5 -111.5t-92.5 -70.5q-49 -84 -54.5 -140.5t10 -97.5t36 -73.5t20.5 -71.5q0 -41 -14.5 -85t-52.5 -100.5t-106.5 -129 t-178.5 -173.5l-48 47q154 129 175.5 235.5t-80.5 178.5l227 389q-39 -4 -71.5 15.5t-54 63.5t-30 117.5t3.5 182.5q12 106 -6 174t-49 98.5t-65.5 25.5t-53.5 -44z" />
<glyph unicode="~" horiz-adv-x="1015" d="M0 453q51 68 113 131q53 53 120.5 108.5t143.5 87.5q82 -35 147.5 -84t118.5 -91t95 -64.5t73 0.5q47 31 46 77t-48 113q18 8 37 17q16 6 31.5 12t25.5 6q45 -74 26.5 -138.5t-75.5 -116.5t-143 -90t-179 -59q-193 193 -319 193q-31 0 -52.5 -18.5t-33.5 -46t-15 -62.5 t3 -66q-25 12 -47 27q-18 12 -38 28t-30 36z" />
<glyph unicode="&#xa1;" horiz-adv-x="516" d="M41 -92q86 145 128 397t54 576l53 -2q0 -55 7.5 -133t16.5 -165t19.5 -178.5t20.5 -174.5t16 -152.5t9 -114.5q-12 -16 -31 -43t-39.5 -54.5t-41 -53t-36.5 -39.5q-37 31 -70 57q-29 23 -58.5 45.5t-47.5 34.5zM80 1180q25 39 49 73q23 29 46.5 56.5t45.5 38.5 q47 -18 86 -45t68 -52q33 -29 55 -61q-35 -16 -66.5 -43t-56.5 -53q-28 -31 -55 -64q-41 12 -73 38t-54 50q-25 29 -45 62z" />
<glyph unicode="&#xa2;" horiz-adv-x="946" d="M22.5 525.5q-10.5 160.5 74.5 313t270 271.5l71 80l-41 182l56 139h18l55 -141l-34 -158q106 -59 212.5 -65t221.5 78v-86q-59 -6 -101.5 -35t-76 -62.5t-62.5 -64.5t-59 -41q-66 -23 -140.5 11t-140.5 93q-35 -37 -62.5 -94t-39 -129t-3 -153.5t47.5 -165.5t110.5 -167 t186.5 -157q86 86 137 154.5t92 128.5q14 -16 25 -31q10 -12 18 -26.5t8 -26.5q-25 -16 -74 -60.5t-105 -105t-111.5 -130t-94.5 -134.5l45 -201l-55 -141h-18l-56 139l43 184q-197 127 -302 284t-115.5 317.5z" />
<glyph unicode="&#xa3;" horiz-adv-x="1120" d="M20 528v29l189 49q-6 35 -6 69t10 66q20 70 71.5 133.5t119 125t145.5 126t151 138.5q82 -98 136.5 -139.5t91.5 -43.5t64.5 31t60.5 82l47 -84q-84 -66 -139.5 -112t-112.5 -62t-128 4.5t-183 87.5q-53 -82 -68.5 -182.5t2.5 -227.5l383 -55v-28l-354 -56 q10 -35 20 -69.5t23 -73.5l-156 -197q27 14 51 29q23 10 47.5 21.5t46.5 15.5q23 4 54.5 -6.5t67.5 -25.5t74 -34.5t73 -34.5q33 14 56.5 32t45 40.5t45 53t53.5 71.5l80 -59q-78 -66 -147 -125q-59 -51 -124 -103.5t-108 -85.5q-90 49 -166.5 67.5t-142 12.5t-121 -32.5 t-100.5 -65.5l-27 37q39 27 74 61q29 29 56.5 70t37.5 92q12 66 -15.5 144.5t-55.5 162.5z" />
<glyph unicode="&#xa4;" horiz-adv-x="1171" d="M109 1053l14 14l139 -63l141 -222q100 84 256 170q96 -35 156 -73l88 139l139 61l15 -14l-64 -139l-129 -84q98 -86 86 -194.5t-153 -231.5l211 -131l61 -140l-14 -14l-140 64l-133 208q-102 -88 -272 -180q-96 35 -162 76l-74 -119l-139 -61l-14 14l63 139l111 70 q-92 86 -70.5 196.5t168.5 235.5l-223 139zM376.5 569.5q16.5 -55.5 89.5 -103.5t214 -81q141 104 101.5 214t-289.5 196q-66 -53 -99 -111.5t-16.5 -114z" />
<glyph unicode="&#xa5;" horiz-adv-x="1110" d="M6 -244q-6 57 12.5 119t53 113t83 83.5t101.5 32.5t108.5 -32.5t116 -66.5t124 -53.5t134.5 9.5q45 16 73 53t36 84q-53 31 -92 44.5t-69 8t-50.5 -29t-38.5 -66.5l-55 56q66 66 117 119t104 85q-23 23 -49.5 43.5t-61.5 38.5l-233 -219q-78 33 -134.5 56.5t-96 35 t-68.5 11.5t-51 -13l-29 23l41 53q70 121 110.5 218t42 184.5t-40.5 170t-137 175.5q18 20 43 43q23 20 52.5 46.5t68.5 57.5q94 -127 134 -217t38 -164t-35.5 -143.5t-87.5 -155.5q-4 -4 -14 -20.5t-20 -36.5q31 -2 72.5 -24.5t88.5 -51.5q43 -25 80 -29t72 9.5t71.5 43 t77.5 70.5v328l43 43q-27 10 -51 29.5t-45 35.5q-23 20 -45 43q16 33 39 70q18 29 43 64.5t55 66.5q31 -33 66 -61q29 -27 63.5 -53.5t69.5 -45.5l-59 -86v-440q63 -27 107 -91.5t50 -148.5q41 -16 92.5 -18t114.5 27v-82q-82 0 -132 -10.5t-91 -34.5q-8 -25 -25 -58 l-428 -342q-121 43 -207 77t-143 54.5t-89 25.5t-44 -7q-25 -25 -16.5 -62t30.5 -88h-90z" />
<glyph unicode="&#xa6;" horiz-adv-x="677" d="M190 -70q47 0 65.5 32t18.5 77v334q0 47 -18 78.5t-66 31.5v68h281v-68q-47 0 -65.5 -31.5t-18.5 -78.5v-334q0 -45 18.5 -77t65.5 -32v-67h-281v67zM190 682v68q47 0 65.5 31.5t18.5 76.5v334q0 47 -18 79t-66 32v67h281v-67q-47 0 -65.5 -32t-18.5 -79v-334 q0 -45 18.5 -76.5t65.5 -31.5v-68h-281z" />
<glyph unicode="&#xa7;" horiz-adv-x="856" d="M-80 -137q33 51 74 106q35 47 83 107.5t107 126.5q-43 39 -69.5 88t-32.5 102t12.5 110.5t67.5 110.5q-47 51 -69.5 118t-5.5 136.5t78.5 138t180.5 126.5l127 106q96 -57 189.5 -66.5t191.5 66.5v-74q-49 -6 -89 -34.5t-74 -63.5t-61.5 -65.5t-54.5 -38.5q-27 -10 -52 1 t-51 32.5t-50.5 50t-48.5 57.5q-37 -25 -62.5 -69t-32 -93t11 -99t66.5 -89l193 164q123 -12 177 -94.5t40 -250.5q-23 -20 -38 -33.5t-32 -23.5q68 -29 104 -75t48 -107.5t6 -134t-25 -152.5q-61 -35 -128.5 -83t-122.5 -95q-66 -53 -127 -113q-121 109 -217.5 159 t-167.5 50q-16 -16 -27.5 -42.5t-20.5 -55.5q-8 -33 -16 -68zM158 106q66 20 139.5 -5t134.5 -64q72 -47 139 -111q63 147 53 252t-59 152q-35 31 -85 21.5t-107.5 -45.5t-113.5 -89t-101 -111zM279.5 561q-7.5 -47 6 -96t56.5 -88l25 20l10 -6q55 37 111.5 79t82.5 62 q2 98 -46 151.5t-152 31.5q-35 -25 -60.5 -66t-33 -88z" />
<glyph unicode="&#xa8;" horiz-adv-x="657" d="M20 1247q16 27 46 61.5t59 63.5q33 35 70 70q23 -27 45 -53q20 -23 42.5 -49.5t43.5 -47.5q23 27 49 56.5t49 52.5l53 53q31 -39 60 -74q25 -29 52 -57.5t48 -44.5q-43 -29 -81 -77t-85 -105q-27 25 -53 49q-23 23 -49.5 47.5t-46.5 46.5q-31 -31 -62 -71t-67 -85l-66 62 q-29 27 -58 54.5t-49 47.5z" />
<glyph unicode="&#xa9;" horiz-adv-x="1705" d="M120 392q32 204 135 409t270 394t380 337q188 -16 313 -100t194 -209t86.5 -277.5t-10.5 -305.5t-96.5 -292t-168.5 -239l-469 -576q-260 53 -408.5 181t-203 301t-22.5 377zM223 415q-8 -165 54.5 -300t198.5 -228.5t360 -117.5q125 102 226 243.5t163.5 297t76 316 t-37 302t-174 251.5t-336.5 167q-158 -119 -276 -276t-182.5 -323.5t-72.5 -331.5zM454.5 520.5q8.5 108.5 52.5 213t121 193.5t185 150q63 -61 124.5 -94t113.5 -4l20 -29q-25 -33 -55 -65q-27 -29 -62.5 -57.5t-83.5 -49.5l-186 129q-51 -82 -63.5 -183t13 -196.5 t89 -173.5t164.5 -110q12 16 33 37q16 16 39.5 36.5t52.5 38.5l45 -49q-47 -16 -101.5 -66.5t-99.5 -103.5q-53 -63 -104 -137q-111 47 -179.5 129t-97.5 182.5t-20.5 209z" />
<glyph unicode="&#xaa;" horiz-adv-x="888" d="M69.5 879.5q10.5 111.5 76 216t188.5 166.5l135 79l143 -124q14 -18 41 -15l99 113l49 -33q-59 -20 -91 -74.5t-32 -146.5v-309q0 -35 17.5 -60.5t42 -36t52 -3.5t48.5 38l28 -22q-63 -55 -127.5 -99.5t-105.5 -44.5t-81 35t-67 107q-41 -20 -82 -47t-75 -52 q-39 -28 -78 -57q-98 55 -144.5 156.5t-36 213zM221.5 931q16.5 -83 67.5 -156t129 -105q8 4 16 12q14 12 43 31v368l-158 138q-70 -45 -92 -125t-5.5 -163z" />
<glyph unicode="&#xab;" horiz-adv-x="1204" d="M111 508q90 80 169.5 169t139.5 163q70 86 131 170q23 -8 42 -21.5t36 -30.5q16 -18 30 -38q-39 -14 -91 -55.5t-101 -88.5q-57 -53 -119 -117q35 -59 94.5 -119.5t114.5 -109.5q66 -57 137 -113q-35 -12 -71.5 -33.5t-69.5 -48t-58.5 -56t-37.5 -56.5q-29 61 -80 124.5 t-103.5 118t-98.5 93.5t-64 49zM520 508q90 80 170 169t139 163q71 86 132 170q23 -8 42 -21.5t35 -30.5q16 -18 31 -38q-39 -14 -91 -55.5t-101 -88.5q-57 -53 -119 -117q35 -59 94 -119.5t115 -109.5q66 -57 137 -113q-35 -12 -72 -33.5t-69.5 -48t-58 -56t-38.5 -56.5 q-29 61 -80 124.5t-103 118t-98 93.5t-65 49z" />
<glyph unicode="&#xac;" horiz-adv-x="788" d="M16 612q47 41 86 75t76 58.5t74 37t80 12.5q37 0 69.5 -17.5t73.5 -36t97.5 -30t140.5 1.5l94 26q-51 -92 -90 -182q-35 -78 -61.5 -162t-26.5 -149q-31 20 -48.5 36.5t-29.5 29t-19.5 24.5t-15.5 29l135 278q-49 -6 -84 -17.5t-63.5 -26.5t-54 -36.5t-56.5 -50.5 q-78 49 -128 74.5t-86 31t-62.5 -11t-55.5 -49.5z" />
<glyph unicode="&#xad;" horiz-adv-x="675" d="M20 424v283h66q0 -47 33 -66.5t78 -19.5h282q45 0 78 19t33 67h65v-283h-65q0 47 -33 66.5t-78 19.5h-282q-45 0 -78 -19.5t-33 -66.5h-66z" />
<glyph unicode="&#xae;" horiz-adv-x="1705" d="M120 392q32 204 135 409t270 394t380 337q186 -16 310 -99t194 -206t88.5 -272.5t-7.5 -300t-91.5 -290t-163.5 -241.5q49 -55 102.5 -104.5t107.5 -81t107.5 -37.5t102.5 24v-74q-55 0 -111.5 3.5t-111 -1t-103.5 -21.5t-90 -58q-39 23 -80 63.5t-82 93.5l-323 -397 q-260 53 -408.5 181t-203 301t-22.5 377zM226.5 447.5q-9.5 -125.5 19 -240.5t102.5 -206t195 -152.5t293 -79.5q115 94 204 213q-47 63 -90 129.5t-82 121t-70.5 89t-54.5 34.5q-16 -10 -29.5 -18t-29.5 -16v-142l-63 -43q35 -35 82 -46t83 36l23 -23q-16 -18 -38.5 -43.5 t-48.5 -53t-50.5 -54.5t-42.5 -45q-53 12 -113.5 47t-95.5 70q18 14 34.5 31.5t28.5 33.5v723q0 20 1 43t-5 43.5t-23.5 37t-52.5 24.5q-76 -125 -121.5 -256.5t-55 -257zM543 1149l170 -145l252 186q86 -72 132 -181.5t17 -271.5q-29 -45 -65 -92q-33 -41 -77 -91 t-104 -101q41 -4 89.5 -27t97.5 -82q23 -29 53.5 -67.5t65.5 -81.5q84 166 116.5 343t-9.5 336.5t-168 285t-359 186.5q-113 -86 -211 -197zM684 393q41 10 65.5 23.5t45.5 32.5q68 68 98.5 152.5t25 163.5t-42 142.5t-104.5 87.5l-88 -77v-525z" />
<glyph unicode="&#xaf;" horiz-adv-x="788" d="M16 1251q47 41 86 75t76 58.5t74 37t80 12.5q39 0 72.5 -18.5t76.5 -37t103.5 -29t150.5 6.5v-66q-74 -6 -123 -15t-86 -25.5t-66.5 -40t-66.5 -58.5q-78 49 -128 74.5t-86 31t-62.5 -11t-55.5 -49.5z" />
<glyph unicode="&#xb0;" horiz-adv-x="845" d="M58.5 936q13.5 94 121 202.5t316.5 223.5q154 -55 228.5 -133t60 -172t-121 -202.5t-317.5 -221.5q-154 53 -227.5 131t-60 172zM213 979q16 -55 89 -103.5t214 -80.5q141 104 101.5 213.5t-289.5 195.5q-66 -53 -98.5 -111.5t-16.5 -113.5z" />
<glyph unicode="&#xb1;" horiz-adv-x="677" d="M20 -27v283h66q0 -47 33 -66.5t78 -19.5h282q45 0 78 19.5t33 66.5h65v-283h-65q0 47 -33 66.5t-78 19.5h-282q-45 0 -78 -19.5t-33 -66.5h-66zM20 547v282h68q0 -49 35 -67.5t76 -18.5h75v162q0 47 -18 79t-66 32v67h281v-67q-47 0 -65.5 -32t-18.5 -79v-162h94 q45 0 77 19.5t32 66.5h67v-282h-67q0 47 -32 66.5t-77 19.5h-94v-164q0 -45 18.5 -77t65.5 -32v-67h-281v67q47 0 65.5 32t18.5 77v164h-75q-41 0 -76 -18.5t-35 -67.5h-68z" />
<glyph unicode="&#xb2;" horiz-adv-x="872" d="M104 647q61 63 127 136t122.5 145.5t96 144.5t48.5 135q6 49 -6.5 88t-35 68t-54 51.5t-64.5 38.5q-66 -31 -98.5 -86t-39.5 -112.5t8 -102.5t50 -57l-35 -33q-49 31 -80.5 73t-38 90t18 98t92.5 97q96 68 144.5 116t78.5 93q59 -16 121 -57t98.5 -100.5t36.5 -133 t-63 -155.5q-104 -133 -187.5 -231.5t-117.5 -135.5q20 14 53 9t73 -16t85 -23.5t92 -12.5q35 0 64.5 9.5t68.5 31.5l8 -59q-72 -23 -122 -45.5t-85 -46t-58.5 -47t-41.5 -48.5q-66 49 -128.5 79t-94.5 30q-33 0 -53.5 -35t-30.5 -65q-16 10 -31.5 31.5t-20.5 37.5z" />
<glyph unicode="&#xb3;" horiz-adv-x="925" d="M104.5 682q-4.5 74 73.5 158l27 -4q-16 -66 3 -117t60 -76t98.5 -20.5t116.5 49.5q35 27 63.5 64.5t46 80.5t20.5 91t-11 96q-12 45 -45 69.5t-70.5 32.5t-75.5 -1t-63 -34l-26 45q37 57 79 117q37 51 86.5 111.5t104.5 117.5q-47 -27 -89 -57.5t-81 -61.5 q-27 14 -57.5 32t-73.5 28t-66.5 -19.5t-31.5 -89.5q-12 6 -23 15q-10 6 -17.5 14t-11.5 18q6 14 27.5 42t52.5 65t70 79t82 85q31 -41 62.5 -66.5t73.5 -31t98.5 13t133.5 65.5l82 -59q-45 -27 -100 -63.5t-112.5 -83t-111 -101.5t-91.5 -117q35 20 77.5 41t83.5 35 q61 6 112.5 -13.5t84.5 -62.5t43 -109.5t-10 -154.5q-57 -55 -113 -108q-47 -45 -99 -92t-87 -76q-98 -82 -189.5 -90.5t-146.5 30.5t-59.5 113z" />
<glyph unicode="&#xb4;" horiz-adv-x="428" d="M20 1118q51 27 82 58.5t47.5 67.5t19.5 78t-3 89l235 55q16 -88 -8 -140t-75.5 -90t-122 -74t-146.5 -91z" />
<glyph unicode="&#xb5;" horiz-adv-x="944" d="M-210 -102q-3 41 9 69q61 14 114.5 53t95.5 86.5t74 98.5t50 92l43 -66q-66 -57 -100 -137l-49 29q33 37 57.5 105.5t36.5 147.5t12 157.5t-16.5 138t-51 88t-88.5 8.5l-38 33l206 239q45 -20 95.5 -67t81 -134t31.5 -218.5t-54 -321.5q29 -29 60.5 -40t62.5 -9t57.5 12 t48.5 25v528l-73 107l178 163q18 -33 37 -57q16 -23 29.5 -43t23.5 -29q16 -16 41 -12l80 107l57 -43q-68 -27 -104.5 -99.5t-36.5 -193.5v-412q0 -47 20.5 -81t49 -48t60.5 -4t56 51l31 -31q-37 -37 -74 -70.5t-72.5 -61t-66.5 -44t-55 -16.5q-47 0 -95.5 63.5t-78.5 165.5 l-261 -245l-198 112q-31 -66 -37 -136.5t14 -129.5l-219 -104q-20 49 -31 94q-10 39 -13 80z" />
<glyph unicode="&#xb6;" horiz-adv-x="1243" d="M94 1210q35 23 93.5 73t115.5 103q68 61 141 136q14 -6 27 -19q12 -10 27.5 -28.5t27.5 -44.5l297 106q35 -23 62 -59q23 -31 41 -77t14 -110q-2 -33 -6 -124t-11.5 -218t-14.5 -278.5t-15 -304.5q-18 -360 -39 -799h-43q0 342 -8 616.5t-19.5 477t-21.5 333.5t-14 189 q-4 37 -21.5 64.5t-45.5 47t-62.5 33.5t-69.5 23q2 -14 3 -28.5t-1 -31.5q-2 -33 -6 -124t-11.5 -218t-14.5 -278.5t-15 -304.5q-18 -360 -39 -799h-43q0 524 -14.5 883.5t-30.5 554.5q-23 -33 -45 -46q-49 23 -92 66t-76 84q-37 49 -70 102z" />
<glyph unicode="&#xb7;" horiz-adv-x="391" d="M16 688q35 18 66 50t57 61q29 34 58 73q41 -16 71.5 -43.5t53.5 -56.5q25 -35 45 -72q-25 -47 -48 -86q-20 -35 -44.5 -67.5t-47.5 -42.5q-49 20 -88 52t-67 60q-33 35 -56 72z" />
<glyph unicode="&#xb8;" horiz-adv-x="518" d="M29.5 -352q15.5 35 79.5 80q-2 -33 15 -53.5t41.5 -26.5t52.5 3t50 34q37 43 34 82.5t-28.5 63.5t-64.5 24t-72 -39l-28 22l245 273l8 -80l-81 -82q70 20 123 9t76.5 -45t12 -88t-68.5 -118q-51 -57 -112.5 -90t-118 -45t-100.5 -6t-61.5 26.5t-2 55.5z" />
<glyph unicode="&#xb9;" horiz-adv-x="772" d="M104 1262q-6 47 14.5 93t60.5 92t94.5 94t119.5 101l139 -147q-29 -27 -37 -62.5t-8 -101.5v-493l-61 -74q53 -18 85 -24.5t53.5 -2.5t36.5 17.5t36 33.5l33 -36q-72 -100 -119 -152.5t-92 -52.5q-23 0 -51.5 13t-59.5 29.5t-60.5 30t-49.5 13.5q-27 0 -51.5 -26.5 t-30.5 -49.5l-39 59q47 20 81.5 43t58.5 54.5t36 74.5t12 105v379q0 72 -14.5 105.5t-48.5 39.5q-20 2 -37 -10t-24 -36.5t-6 -58.5t15 -71z" />
<glyph unicode="&#xba;" horiz-adv-x="909" d="M104.5 1020.5q4.5 148.5 99.5 305.5t290 290q156 -63 236.5 -185t75.5 -269.5t-99 -305.5t-289 -289q-158 61 -238 183t-75.5 270.5zM252.5 1057q19.5 -96 94.5 -177t218 -124q63 72 85 168t-3.5 191t-98.5 180.5t-198 134.5q-61 -78 -89 -177.5t-8.5 -195.5z" />
<glyph unicode="&#xbb;" horiz-adv-x="1161" d="M111 856q35 12 71.5 33.5t69.5 48.5t58.5 56.5t37.5 56.5q29 -61 80 -125t103.5 -118t98.5 -93t64 -49q-90 -82 -170 -170t-139 -162q-70 -86 -131 -170q-23 6 -43.5 20.5t-34.5 30.5q-18 18 -31 39q37 12 90.5 54t102.5 89q57 53 119 117q-37 57 -95.5 118.5 t-113.5 110.5q-66 57 -137 113zM520 856q35 12 72 33.5t69.5 48.5t58 56.5t38.5 56.5q29 -61 80 -125t103 -118t98 -93t65 -49q-90 -82 -170 -170t-139 -162q-70 -86 -131 -170q-23 6 -43.5 20.5t-34.5 30.5q-18 18 -31 39q37 12 90 54t103 89q57 53 118 117 q-37 57 -95 118.5t-114 110.5q-66 57 -137 113z" />
<glyph unicode="&#xbc;" horiz-adv-x="2283" d="M342 1098q-6 47 14.5 93t60.5 92t94 94t120 102l139 -148q-29 -27 -37 -62.5t-8 -101.5v-493l-61 -74q53 -18 84.5 -24.5t53 -2t37 17.5t35.5 34l33 -37q-72 -100 -119 -152.5t-92 -52.5q-23 0 -51.5 13.5t-59 29.5t-60 29.5t-50.5 13.5q-27 0 -51.5 -26.5t-30.5 -49.5 l-39 60q47 20 82 42.5t58.5 54.5t36 75t12.5 104v379q0 72 -14.5 105.5t-49.5 39.5q-20 2 -36.5 -10t-23.5 -36.5t-6 -58.5t15 -71zM508 -293q166 299 300 576.5t232.5 502t159 380t80.5 208.5q55 35 94 62.5t86 70.5l27 -18q-12 -53 -18.5 -107.5t14.5 -89.5 q-57 -68 -131 -184.5t-181.5 -307t-254 -466t-349.5 -662.5zM999 190q12 14 27 31q12 14 25.5 28.5t27.5 31.5q18 25 51 65.5t69 90.5t67.5 105.5t48 111t11.5 107.5t-42 95l170 170q61 -31 52 -106.5t-63 -177t-139 -216t-176 -225.5l129 80q25 -8 52 -16q23 -8 54.5 -19.5 t68.5 -23.5q-8 82 -16.5 131t-16.5 77q-8 33 -17 45l185 160l-33 -428q37 6 75 36t81 93l34 -22q-14 -29 -29.5 -57.5t-38 -58.5t-54 -61.5t-78.5 -66.5l-35 -453h-35q0 139 -3 249t-7 196q-100 35 -185 60.5t-124 25.5q-41 0 -59.5 -34t-24.5 -75z" />
<glyph unicode="&#xbd;" horiz-adv-x="2254" d="M315 1083q-6 47 14.5 93.5t60.5 92.5t94.5 94t119.5 101l139 -147q-29 -27 -37 -62.5t-8 -101.5v-494l-61 -73q53 -18 85 -24.5t53.5 -2.5t36.5 17.5t36 33.5l33 -37q-72 -100 -119 -152t-92 -52q-23 0 -51.5 13t-59.5 29.5t-60.5 30t-49.5 13.5q-27 0 -51.5 -27 t-30.5 -49l-39 59q47 20 81.5 43t58.5 54.5t36 74.5t12 105v379q0 72 -14.5 105.5t-48.5 39.5q-20 2 -37 -10t-24 -37t-6 -58.5t15 -70.5zM508 -293q166 299 300 576.5t232.5 502t159 380t80.5 208.5q55 35 94 62.5t86 70.5l27 -18q-12 -53 -18.5 -107.5t14.5 -89.5 q-57 -68 -131 -184.5t-181.5 -307t-254 -466t-349.5 -662.5zM1085 -123q61 63 127 136t122.5 145.5t96 144.5t48.5 135q6 49 -6.5 88t-35 68t-54 51.5t-64.5 38.5q-66 -31 -98.5 -86t-39.5 -112.5t8 -102.5t50 -57l-35 -33q-49 31 -80.5 73t-38 90t18 98t92.5 97 q96 68 144.5 116t78.5 93q59 -16 121 -57t98.5 -100.5t36.5 -133t-63 -155.5q-104 -133 -188.5 -231.5t-114.5 -133.5q20 12 52 7t72 -16t85 -23.5t92 -12.5q35 0 64.5 9.5t68.5 31.5l8 -59q-72 -23 -122 -45.5t-85 -46t-58.5 -47t-41.5 -48.5q-66 49 -128.5 79t-94.5 30 q-33 0 -53.5 -35t-30.5 -66q-16 10 -31.5 32t-20.5 38z" />
<glyph unicode="&#xbe;" horiz-adv-x="2510" d="M453 418q-4 74 73 157l27 -4q-16 -66 3 -117t60 -75.5t98.5 -20.5t116.5 50q35 27 64 64.5t46 80.5t20.5 91t-11.5 95q-12 45 -45 70t-70.5 33t-75.5 -1.5t-63 -33.5l-26 45q37 57 80 117q37 51 86 111.5t104 117.5q-47 -25 -89 -56.5t-81 -62.5q-27 14 -57.5 31.5 t-73.5 28.5q-43 10 -66.5 -19.5t-31.5 -89.5q-12 6 -23 14q-10 6 -17 14.5t-12 18.5q6 14 28 42t52.5 65t69.5 79t82 85q31 -41 62.5 -67t73.5 -31t98.5 13.5t134.5 65.5l81 -59q-45 -27 -100 -64t-112.5 -83t-111.5 -101t-93 -119q37 23 80 43.5t84 34.5q61 6 112 -13.5 t84 -62.5t43 -109.5t-10 -154.5q-57 -55 -113 -109q-47 -45 -99 -91.5t-87 -75.5q-98 -82 -189.5 -90.5t-146.5 30.5t-59 113zM735 -293q166 299 300 576.5t232.5 502t159 380t80.5 208.5q55 35 94 62.5t87 70.5l26 -18q-12 -53 -18 -107.5t14 -89.5q-57 -68 -131 -184.5 t-181.5 -307t-254 -466t-348.5 -662.5zM1266 231q12 14 26 31q12 14 25.5 28.5t28.5 31.5q18 25 51 65.5t68.5 90.5t67.5 105.5t48 111t11 107.5t-42 95l170 170q61 -31 52 -106.5t-63 -177t-139 -216t-175 -225.5l129 80q25 -8 51 -16q23 -8 54.5 -19.5t68.5 -24.5 q-8 82 -16.5 131.5t-16.5 77.5q-8 33 -16 45l184 160l-33 -428q37 6 75 36t81 93l35 -22q-14 -29 -29.5 -57.5t-38 -58.5t-54.5 -61.5t-79 -66.5l-35 -453h-35q0 139 -3 249t-7 196q-100 35 -185 60.5t-124 25.5q-41 0 -59.5 -34t-24.5 -75z" />
<glyph unicode="&#xbf;" horiz-adv-x="690" d="M23 127q6 47 33.5 99.5t63.5 105.5t77 103t75.5 93t59 76t26.5 53q4 31 -16 52.5t-51 33t-63.5 9.5t-51.5 -21l-14 57q20 31 41 58q16 23 33.5 43t31.5 29q12 6 40 6t58.5 -10.5t57.5 -30t39 -52.5q20 -53 -10.5 -123.5t-77.5 -145.5t-94.5 -145.5t-59.5 -121.5t0 -99.5 t47 -88t88.5 -66.5t122.5 -33q72 104 75 175t-38 143l35 24q72 -35 97.5 -77t17 -90t-45 -101t-89 -109.5t-114 -115t-120.5 -117.5q-63 37 -117.5 76t-93.5 84t-56.5 100t-6.5 127zM199 1180q25 39 49 73q23 29 46 56.5t46 38.5q49 -18 87 -45t67 -52q33 -29 57 -61 q-35 -16 -67.5 -43t-57.5 -53q-30 -31 -55 -64q-41 12 -73 38t-54 50q-25 29 -45 62z" />
<glyph unicode="&#xc0;" horiz-adv-x="1286" d="M20 582v18l142 55l213 -47h35q20 96 21 188.5t-17.5 170t-55 134t-92.5 81.5l330 258l293 -137l139 182l229 -115q-39 -37 -65.5 -72.5t-42.5 -86t-23.5 -122t-7.5 -182.5v-741q0 -31 12.5 -56.5t36 -34.5t58.5 4t82 60l30 -33q-53 -57 -106 -108q-47 -43 -99.5 -86 t-93.5 -66q-51 51 -112.5 94.5t-134.5 43.5q-55 0 -116 -16.5t-110 -37.5q-57 -23 -112 -53l-359 219q117 76 194 203t111 268h-55l-182 -43zM324 264q57 -39 112 -76q47 -31 97.5 -63.5t84.5 -48.5q35 -16 66 -28.5t62.5 -15.5t65.5 2t77 21v512h-320q-81 -139 -245 -303z M555 1317q47 -84 80 -167t42 -169t-10.5 -179t-74.5 -194h297v482q0 37 -5 65.5t-18.5 51t-37 41t-60.5 38.5l-182 86zM580 1647l211 198l26 -24q-18 -39 -23.5 -83t11 -87t57.5 -83t113 -73l-33 -59q-43 31 -101.5 51t-113.5 40.5t-97 47.5t-50 72z" />
<glyph unicode="&#xc1;" horiz-adv-x="1286" d="M20 582v18l142 55l213 -47h35q20 96 21 188.5t-17.5 170t-55 134t-92.5 81.5l330 258l293 -137l139 182l229 -115q-39 -37 -65.5 -72.5t-42.5 -86t-23.5 -122t-7.5 -182.5v-741q0 -31 12.5 -56.5t36 -34.5t58.5 4t82 60l30 -33q-53 -57 -106 -108q-47 -43 -99.5 -86 t-93.5 -66q-51 51 -112.5 94.5t-134.5 43.5q-55 0 -116 -16.5t-110 -37.5q-57 -23 -112 -53l-359 219q117 76 194 203t111 268h-55l-182 -43zM324 264q57 -39 112 -76q47 -31 97.5 -63.5t84.5 -48.5q35 -16 66 -28.5t62.5 -15.5t65.5 2t77 21v512h-320q-81 -139 -245 -303z M555 1317q47 -84 80 -167t42 -169t-10.5 -179t-74.5 -194h297v482q0 37 -5 65.5t-18.5 51t-37 41t-60.5 38.5l-182 86zM618 1507q51 27 82 58.5t47.5 67.5t19.5 78t-3 89l235 55q16 -88 -8 -140t-75.5 -90t-122 -73.5t-146.5 -91.5z" />
<glyph unicode="&#xc2;" horiz-adv-x="1286" d="M20 582v18l142 55l213 -47h35q20 96 21 188.5t-17.5 170t-55 134t-92.5 81.5l330 258l293 -137l139 182l229 -115q-39 -37 -65.5 -72.5t-42.5 -86t-23.5 -122t-7.5 -182.5v-741q0 -31 12.5 -56.5t36 -34.5t58.5 4t82 60l30 -33q-53 -57 -106 -108q-47 -43 -99.5 -86 t-93.5 -66q-51 51 -112.5 94.5t-134.5 43.5q-55 0 -116 -16.5t-110 -37.5q-57 -23 -112 -53l-359 219q117 76 194 203t111 268h-55l-182 -43zM324 264q57 -39 112 -76q47 -31 97.5 -63.5t84.5 -48.5q35 -16 66 -28.5t62.5 -15.5t65.5 2t77 21v512h-320q-81 -139 -245 -303z M477 1561q53 39 115 92q53 45 122.5 108.5t147.5 145.5q10 -18 35 -51t61.5 -70t86 -75t108.5 -64q-27 -12 -54.5 -35t-54 -52.5t-47 -63.5t-30.5 -66q-31 49 -70 96q-35 41 -81 85t-101 79q-35 -41 -64 -80q-25 -35 -50.5 -74t-37.5 -74q-20 12 -37 29q-14 14 -28.5 30.5 t-20.5 39.5zM555 1317q47 -84 80 -167t42 -169t-10.5 -179t-74.5 -194h297v482q0 37 -5 65.5t-18.5 51t-37 41t-60.5 38.5l-182 86z" />
<glyph unicode="&#xc3;" horiz-adv-x="1286" d="M20 582v18l142 55l213 -47h35q20 96 21 188.5t-17.5 170t-55 134t-92.5 81.5l330 258l293 -137l139 182l229 -115q-39 -37 -65.5 -72.5t-42.5 -86t-23.5 -122t-7.5 -182.5v-741q0 -31 12.5 -56.5t36 -34.5t58.5 4t82 60l30 -33q-53 -57 -106 -108q-47 -43 -99.5 -86 t-93.5 -66q-51 51 -112.5 94.5t-134.5 43.5q-55 0 -116 -16.5t-110 -37.5q-57 -23 -112 -53l-359 219q117 76 194 203t111 268h-55l-182 -43zM324 264q57 -39 112 -76q47 -31 97.5 -63.5t84.5 -48.5q35 -16 66 -28.5t62.5 -15.5t65.5 2t77 21v512h-320q-81 -139 -245 -303z M442 1573q37 61 84 117q39 47 92.5 96t114.5 78q68 -31 114 -72t80 -76t60.5 -51t50.5 2q39 27 37 69t-39 101q14 8 29 16q12 6 25.5 11.5t23.5 5.5q37 -68 24.5 -125t-57.5 -103.5t-112.5 -79t-141.5 -51.5q-39 43 -67.5 73t-52 48.5t-45 26.5t-46.5 8t-43 -16.5t-27 -42 t-12.5 -56t3.5 -59.5q-20 12 -39 25q-16 10 -31 24.5t-25 30.5zM555 1317q47 -84 80 -167t42 -169t-10.5 -179t-74.5 -194h297v482q0 37 -5 65.5t-18.5 51t-37 41t-60.5 38.5l-182 86z" />
<glyph unicode="&#xc4;" horiz-adv-x="1286" d="M20 582v18l142 55l213 -47h35q20 96 21 188.5t-17.5 170t-55 134t-92.5 81.5l330 258l293 -137l139 182l229 -115q-39 -37 -65.5 -72.5t-42.5 -86t-23.5 -122t-7.5 -182.5v-741q0 -31 12.5 -56.5t36 -34.5t58.5 4t82 60l30 -33q-53 -57 -106 -108q-47 -43 -99.5 -86 t-93.5 -66q-51 51 -112.5 94.5t-134.5 43.5q-55 0 -116 -16.5t-110 -37.5q-57 -23 -112 -53l-359 219q117 76 194 203t111 268h-55l-182 -43zM324 264q57 -39 112 -76q47 -31 97.5 -63.5t84.5 -48.5q35 -16 66 -28.5t62.5 -15.5t65.5 2t77 21v512h-320q-81 -139 -245 -303z M483 1636q16 27 46 62t59 63q33 35 69 70q23 -27 45 -53q20 -23 43 -49.5t43 -47.5q23 27 49.5 56.5t49.5 52.5l53 53q31 -39 59 -74q25 -29 52.5 -57.5t48.5 -44.5q-43 -29 -81 -77t-85 -105q-27 25 -53 49q-23 23 -49.5 47.5t-47.5 46.5q-31 -31 -61.5 -70.5t-67.5 -84.5 q-33 31 -65 61q-29 27 -58 54.5t-49 47.5zM555 1317q47 -84 80 -167t42 -169t-10.5 -179t-74.5 -194h297v482q0 37 -5 65.5t-18.5 51t-37 41t-60.5 38.5l-182 86z" />
<glyph unicode="&#xc5;" horiz-adv-x="1286" d="M20 582v18l142 55l213 -47h35q20 96 21 188.5t-17.5 170t-55 134t-92.5 81.5l330 258l293 -137l139 182l229 -115q-39 -37 -65.5 -72.5t-42.5 -86t-23.5 -122t-7.5 -182.5v-741q0 -31 12.5 -56.5t36 -34.5t58.5 4t82 60l30 -33q-53 -57 -106 -108q-47 -43 -99.5 -86 t-93.5 -66q-51 51 -112.5 94.5t-134.5 43.5q-55 0 -116 -16.5t-110 -37.5q-57 -23 -112 -53l-359 219q117 76 194 203t111 268h-55l-182 -43zM324 264q57 -39 112 -76q47 -31 97.5 -63.5t84.5 -48.5q35 -16 66 -28.5t62.5 -15.5t65.5 2t77 21v512h-320q-81 -139 -245 -303z M555 1317q47 -84 80 -167t42 -169t-10.5 -179t-74.5 -194h297v482q0 37 -5 65.5t-18.5 51t-37 41t-60.5 38.5l-182 86zM566.5 1507.5q-13.5 24.5 8 56t82.5 75t174 98.5q55 -12 106.5 -25.5t85.5 -32t47 -44t-8.5 -58.5t-82.5 -77t-174 -99q-55 14 -106.5 29.5t-85 34 t-47 43zM709.5 1595.5q3.5 -18.5 27 -36t62.5 -33t88 -25.5q37 43 6 77t-164 52q-23 -16 -19.5 -34.5z" />
<glyph unicode="&#xc6;" horiz-adv-x="1841" d="M14 582v18l142 55l213 -47h34q20 96 21.5 188.5t-17 170t-55.5 134t-92 81.5l330 258l577 -183l199 201l4 4q35 -20 96.5 -38.5t132 -29t143.5 -8t132 20.5l14 -49q-143 -61 -244.5 -122.5t-171 -122t-109.5 -119t-58 -113.5q51 -31 109.5 -45.5t112.5 -17.5t101 1t78 12 l25 -73q-113 0 -181.5 -17.5t-107.5 -44t-57.5 -56.5t-32.5 -56q-51 12 -92 28.5t-72 32.5q-37 18 -66 37q10 51 43 116.5t78 130t95.5 121t97.5 89.5q-16 4 -44 14t-61 23.5t-64.5 29t-56.5 31.5q-59 -41 -110 -110.5t-77 -156.5t-18.5 -186.5t64.5 -202t174 -202.5 t311 -186q86 86 146.5 163.5t101.5 139.5q14 -16 25 -31q10 -12 18 -26.5t8 -26.5q-27 -16 -82 -68.5t-119.5 -122t-124.5 -147.5t-97 -146q-276 129 -427 296t-184 343h-256q-82 -139 -246 -303q57 -39 113 -76q47 -31 97.5 -63.5t84.5 -48.5q59 -29 108.5 -41t113.5 4 l22 -68q-35 12 -72 13q-55 0 -115.5 -16.5t-109.5 -37.5q-57 -23 -113 -53l-358 219q117 76 193.5 203t111.5 268h-55l-182 -43zM549 1317q47 -84 80 -167t42 -169t-10.5 -179t-74.5 -194h225q-16 139 36 272.5t169 249.5q-100 80 -209 135.5t-227 106.5z" />
<glyph unicode="&#xc7;" horiz-adv-x="962" d="M32.5 595q-14.5 177 82 344t284.5 296l211 213q80 -31 171 -63.5t167 -38.5q45 -4 78 11t54.5 40.5t33.5 60.5t19 70l92 -37q-37 -45 -80 -95t-95.5 -101.5t-117 -100.5t-144.5 -92q-102 35 -186 65.5t-156 53.5q-53 -35 -107 -99.5t-86 -150.5t-32 -187.5t52.5 -206 t167 -207t313.5 -192.5q84 84 135 152.5t92 130.5q14 -16 25 -31q10 -12 18 -26.5t8 -26.5q-27 -16 -79 -65.5t-112.5 -115t-117.5 -140t-94 -142.5l-82 -82q70 20 123 9t76.5 -45t12.5 -88t-69 -118q-51 -57 -112.5 -89.5t-118 -45t-100.5 -6.5t-61 26.5t-2 55.5t79 80 q-2 -33 15.5 -53.5t42 -26.5t52 3t50.5 34q37 43 33.5 83t-29 63.5t-64.5 23.5t-72 -39l-28 22l198 222q-264 135 -395 305t-145.5 347z" />
<glyph unicode="&#xc8;" horiz-adv-x="1081" d="M54.5 597q-27.5 181 61.5 353t283 305l207 209l4 4q35 -20 96.5 -38.5t132 -28.5t143.5 -8t132 20l14 -49q-143 -61 -244.5 -122.5t-171 -122t-109.5 -119t-58 -113.5q51 -31 109.5 -45.5t112.5 -17.5t101 1t78 13l25 -74q-113 0 -181.5 -17.5t-107.5 -44t-57.5 -56 t-32.5 -56.5q-51 12 -92 28.5t-72 32.5q-37 18 -66 37q10 51 43 116.5t78 130t95.5 121t97.5 89.5q-16 4 -44 14t-60.5 23.5t-64.5 29t-56 31.5q-59 -41 -110.5 -109.5t-77 -155.5t-18.5 -187.5t64.5 -203t174 -201.5t311.5 -187q86 86 146 163.5t101 139.5q14 -16 25 -31 q10 -12 18.5 -26.5t8.5 -26.5q-27 -16 -82.5 -68.5t-120 -122t-124.5 -147.5t-97 -146q-287 135 -437.5 308.5t-178 354.5zM401 1640l211 199l27 -24q-18 -39 -23.5 -83t11 -87t57.5 -83t113 -73l-33 -59q-43 31 -101.5 51t-113.5 40.5t-97 47t-51 71.5z" />
<glyph unicode="&#xc9;" horiz-adv-x="1081" d="M54.5 597q-27.5 181 61.5 353t283 305l207 209l4 4q35 -20 96.5 -38.5t132 -28.5t143.5 -8t132 20l14 -49q-143 -61 -244.5 -122.5t-171 -122t-109.5 -119t-58 -113.5q51 -31 109.5 -45.5t112.5 -17.5t101 1t78 13l25 -74q-113 0 -181.5 -17.5t-107.5 -44t-57.5 -56 t-32.5 -56.5q-51 12 -92 28.5t-72 32.5q-37 18 -66 37q10 51 43 116.5t78 130t95.5 121t97.5 89.5q-16 4 -44 14t-60.5 23.5t-64.5 29t-56 31.5q-59 -41 -110.5 -109.5t-77 -155.5t-18.5 -187.5t64.5 -203t174 -201.5t311.5 -187q86 86 146 163.5t101 139.5q14 -16 25 -31 q10 -12 18.5 -26.5t8.5 -26.5q-27 -16 -82.5 -68.5t-120 -122t-124.5 -147.5t-97 -146q-287 135 -437.5 308.5t-178 354.5zM420 1419q51 27 81.5 58.5t47 67.5t19.5 78t-3 89l236 55q16 -88 -8.5 -140t-75.5 -90t-122 -74t-146 -91z" />
<glyph unicode="&#xca;" horiz-adv-x="1081" d="M54.5 597q-27.5 181 61.5 353t283 305l207 209l4 4q35 -20 96.5 -38.5t132 -28.5t143.5 -8t132 20l14 -49q-143 -61 -244.5 -122.5t-171 -122t-109.5 -119t-58 -113.5q51 -31 109.5 -45.5t112.5 -17.5t101 1t78 13l25 -74q-113 0 -181.5 -17.5t-107.5 -44t-57.5 -56 t-32.5 -56.5q-51 12 -92 28.5t-72 32.5q-37 18 -66 37q10 51 43 116.5t78 130t95.5 121t97.5 89.5q-16 4 -44 14t-60.5 23.5t-64.5 29t-56 31.5q-59 -41 -110.5 -109.5t-77 -155.5t-18.5 -187.5t64.5 -203t174 -201.5t311.5 -187q86 86 146 163.5t101 139.5q14 -16 25 -31 q10 -12 18.5 -26.5t8.5 -26.5q-27 -16 -82.5 -68.5t-120 -122t-124.5 -147.5t-97 -146q-287 135 -437.5 308.5t-178 354.5zM299 1554q53 39 115 93q53 45 122.5 108.5t147.5 145.5q10 -18 34.5 -51t61.5 -70t86 -75t109 -65q-27 -12 -54.5 -34.5t-54 -52t-47 -63.5 t-31.5 -67q-31 49 -69 97q-35 41 -81 85t-101 78q-35 -41 -64 -79q-25 -35 -50.5 -74t-37.5 -74q-20 12 -37 29q-14 14 -28.5 30t-20.5 39z" />
<glyph unicode="&#xcb;" horiz-adv-x="1081" d="M54.5 597q-27.5 181 61.5 353t283 305l207 209l4 4q35 -20 96.5 -38.5t132 -28.5t143.5 -8t132 20l14 -49q-143 -61 -244.5 -122.5t-171 -122t-109.5 -119t-58 -113.5q51 -31 109.5 -45.5t112.5 -17.5t101 1t78 13l25 -74q-113 0 -181.5 -17.5t-107.5 -44t-57.5 -56 t-32.5 -56.5q-51 12 -92 28.5t-72 32.5q-37 18 -66 37q10 51 43 116.5t78 130t95.5 121t97.5 89.5q-16 4 -44 14t-60.5 23.5t-64.5 29t-56 31.5q-59 -41 -110.5 -109.5t-77 -155.5t-18.5 -187.5t64.5 -203t174 -201.5t311.5 -187q86 86 146 163.5t101 139.5q14 -16 25 -31 q10 -12 18.5 -26.5t8.5 -26.5q-27 -16 -82.5 -68.5t-120 -122t-124.5 -147.5t-97 -146q-287 135 -437.5 308.5t-178 354.5zM305 1630q16 27 46 61.5t59 63.5q33 35 69 70q23 -27 45 -53q20 -23 43 -49.5t43 -47.5q23 27 49.5 56.5t49.5 52.5l53 53q31 -39 59 -74 q25 -29 52.5 -57.5t48.5 -44.5q-43 -29 -81 -77t-85 -105q-27 25 -54 49q-23 23 -49 47t-47 47q-31 -31 -61.5 -71t-67.5 -85q-33 31 -65 62q-29 27 -58 54.5t-49 47.5z" />
<glyph unicode="&#xcc;" horiz-adv-x="905" d="M20 922q12 78 35 137t60 111.5t89 103.5t124 115l164 133l229 -158l-45 -72v-1005q0 -25 13 -44.5t39 -23.5t61.5 10.5t78.5 57.5l17 -54q-35 -47 -76 -92q-35 -39 -82 -83t-98 -78q-41 12 -79 30.5t-69.5 38t-57.5 37.5t-38 31q25 29 38 50t19.5 45t7.5 53.5t1 76.5v770 q0 27 -5.5 55.5t-20.5 53t-46 43t-82 24.5q-25 -29 -43 -63.5t-25.5 -72.5t-2.5 -77t28 -76q31 -49 51.5 -105t25.5 -114.5t-7.5 -113t-49.5 -97.5q-23 -29 -52 -29.5t-52 42.5q84 55 102.5 123.5t-9 125t-93.5 86.5t-150 5zM360 1665l211 199l27 -25q-18 -39 -23.5 -83 t11 -87t57.5 -83t113 -73l-33 -59q-43 31 -101.5 51.5t-113.5 41t-97 47t-51 71.5z" />
<glyph unicode="&#xcd;" horiz-adv-x="905" d="M20 922q12 78 35 137t60 111.5t89 103.5t124 115l161 131q-16 -10 -30.5 -20.5t-30.5 -20.5l-29 47q51 27 82 58.5t47.5 67.5t19.5 78t-3 89l235 55q14 -80 -4 -129t-59 -85t-100.5 -66.5t-124.5 -71.5l229 -158l-45 -72v-1005q0 -25 13 -44.5t39 -23.5t61.5 10.5 t78.5 57.5l17 -54q-35 -47 -76 -92q-35 -39 -82 -83t-98 -78q-41 12 -79 30.5t-69.5 38t-57.5 37.5t-38 31q25 29 38 50t19.5 45t7.5 53.5t1 76.5v770q0 27 -5.5 55.5t-20.5 53t-46 43t-82 24.5q-25 -29 -43 -63.5t-25.5 -72.5t-2.5 -77t28 -76q31 -49 51.5 -105 t25.5 -114.5t-7.5 -113t-49.5 -97.5q-23 -29 -52 -29.5t-52 42.5q84 55 102.5 123.5t-9 125t-93.5 86t-150 5.5z" />
<glyph unicode="&#xce;" horiz-adv-x="905" d="M20 922q12 78 35 137t60 111.5t89 103.5t124 115l164 133l229 -158l-45 -72v-1005q0 -25 13 -44.5t39 -23.5t61.5 10.5t78.5 57.5l17 -54q-35 -47 -76 -92q-35 -39 -82 -83t-98 -78q-41 12 -79 30.5t-69.5 38t-57.5 37.5t-38 31q25 29 38 50t19.5 45t7.5 53.5t1 76.5v770 q0 27 -5.5 55.5t-20.5 53t-46 43t-82 24.5q-25 -29 -43 -63.5t-25.5 -72.5t-2.5 -77t28 -76q31 -49 51.5 -105t25.5 -114.5t-7.5 -113t-49.5 -97.5q-23 -29 -52 -29.5t-52 42.5q84 55 102.5 123.5t-9 125t-93.5 86.5t-150 5zM258 1579q53 39 115 92q53 45 122.5 108.5 t147.5 145.5q10 -18 34.5 -51t61.5 -70t86 -74.5t109 -64.5q-27 -12 -54.5 -34.5t-54 -52.5t-47 -63.5t-30.5 -66.5q-31 49 -70 96q-35 41 -81 85t-101 79q-35 -41 -64 -80q-25 -35 -50.5 -73.5t-37.5 -73.5q-20 12 -37 28q-14 14 -28.5 30.5t-20.5 39.5z" />
<glyph unicode="&#xcf;" horiz-adv-x="905" d="M20 922q12 78 35 137t60 111.5t89 103.5t124 115l164 133l229 -158l-45 -72v-1005q0 -25 13 -44.5t39 -23.5t61.5 10.5t78.5 57.5l17 -54q-35 -47 -76 -92q-35 -39 -82 -83t-98 -78q-41 12 -79 30.5t-69.5 38t-57.5 37.5t-38 31q25 29 38 50t19.5 45t7.5 53.5t1 76.5v770 q0 27 -5.5 55.5t-20.5 53t-46 43t-82 24.5q-25 -29 -43 -63.5t-25.5 -72.5t-2.5 -77t28 -76q31 -49 51.5 -105t25.5 -114.5t-7.5 -113t-49.5 -97.5q-23 -29 -52 -29.5t-52 42.5q84 55 102.5 123.5t-9 125t-93.5 86.5t-150 5zM264 1655q16 27 46 61.5t59 63.5q33 35 69 69 q23 -27 45 -53q20 -23 43 -49.5t43 -46.5q23 27 49.5 56.5t49.5 51.5l53 54q31 -39 59 -74q25 -29 52.5 -57.5t48.5 -44.5q-43 -29 -81 -77t-85 -106q-27 25 -53 49q-23 23 -49.5 47.5t-47.5 47.5q-31 -31 -61.5 -71t-67.5 -85q-33 31 -65 61q-29 27 -58 55t-49 48z" />
<glyph unicode="&#xd0;" horiz-adv-x="1439" d="M20 678q23 139 91.5 270t166 241.5t215 193.5t238.5 130q143 12 257 -28.5t197 -119.5t132 -188.5t62.5 -238.5t-11.5 -269.5t-90 -277.5q-23 -23 -54.5 -55.5t-68.5 -71.5t-77 -81t-79 -81q-90 -96 -192 -200q-193 92 -307.5 149.5t-149.5 46.5q-35 -8 -69.5 -48 t-53.5 -79l-53 66q166 100 249 205.5t83 195.5q0 29 -11.5 54.5t-25.5 52.5q-92 33 -145 26q12 -68 0.5 -132t-52.5 -113q-23 -27 -52.5 -29t-49.5 43q72 47 95.5 104.5t8.5 110.5q-37 -20 -65 -72l-72 52q61 45 107 81q-35 43 -93.5 62.5t-130.5 -0.5zM215 894.5 q-2 -72.5 37 -138.5q27 -47 49 -99q68 49 131 72l8 16q27 49 64 99.5t78 101.5t83 106.5t78 114.5l60 -43q-111 -92 -144.5 -187t0.5 -218q35 -12 74 -24.5t84 -18.5t96.5 -3t112.5 21v-76q-115 0 -182.5 -11t-120.5 -38q6 -12 11 -23t14 -24l-287 -305q117 -35 208 -56.5 t161.5 -23.5t123 17.5t93.5 66.5q74 86 109.5 192.5t37.5 219t-26.5 222.5t-82 202t-127 158.5t-163.5 93.5q-86 25 -170 11.5t-158 -53.5t-131 -100.5t-88 -130t-33 -142z" />
<glyph unicode="&#xd1;" horiz-adv-x="1400" d="M20 817q12 88 44 173t86.5 163t131 148.5t181.5 130.5q82 -111 131 -207q35 33 87 80t104.5 95t98.5 89t70 59q115 -113 194 -246t119 -290.5t40 -343t-41 -402.5q-88 -125 -179 -243q-78 -102 -169 -215t-173 -197l-32 20q-14 10 -30.5 23.5t-31.5 32.5q68 33 133.5 84 t123 122.5t100.5 165t63 209.5q20 113 20.5 247t-29.5 273.5t-95.5 275.5t-175.5 253l-168 -150q43 -102 53 -192t-7.5 -178t-56.5 -179.5t-92 -191.5q-4 -10 -11 -24.5t-15 -30.5l-19 -37q33 -49 68 -72q29 -23 64.5 -22.5t70.5 49.5l47 -43l-262 -279l-184 166 q-20 -20 -31.5 -42.5t-20.5 -43.5q-8 -23 -14 -49l-74 53l103 117q111 125 172 247t72.5 252t-32.5 271t-147 305q-29 -31 -49 -72t-29.5 -85t-4.5 -91t30 -90q29 -55 49.5 -110.5t25.5 -108.5t-7.5 -105.5t-49.5 -99.5q-23 -31 -52.5 -33t-49.5 48q84 61 102.5 129.5 t-9 120t-93.5 75t-150 -3.5zM416 1593q37 61 84 117q39 47 92 96t115 78q68 -31 113.5 -71.5t79.5 -75.5t60.5 -51.5t51.5 2.5q39 27 37 68.5t-39 101.5l28 16q12 6 25.5 11t23.5 5q37 -68 25 -125t-57 -103t-113 -79t-141 -51q-39 43 -67.5 72.5t-52.5 48t-45.5 27 t-45.5 8.5q-25 0 -43.5 -16.5t-27.5 -42t-12 -56.5t3 -60q-20 12 -39 25q-16 10 -30.5 24.5t-24.5 30.5z" />
<glyph unicode="&#xd2;" horiz-adv-x="1267" d="M27.5 696.5q23.5 186.5 115.5 380.5q43 49 98.5 103.5t118 107.5t130 101.5t137.5 87.5l18 -4q-37 12 -73.5 25t-66.5 30.5t-50.5 39t-26.5 50.5l211 199l27 -25q-18 -39 -23.5 -83t11 -87t57.5 -83t112 -73l-18 -32q164 -59 258 -176t127 -267.5t5 -322.5t-110 -344 q-111 -111 -226.5 -218.5t-258.5 -197.5q-223 53 -356 170t-186.5 274.5t-30 344zM214 816.5q-5 -107.5 18.5 -213t72.5 -195t121 -155.5t162 -95q174 -57 278 24q72 86 108 192.5t40 216t-19.5 218.5t-72 199t-119 156.5t-156.5 92.5q-74 23 -147.5 18t-139.5 -54 q-72 -86 -106.5 -191.5t-39.5 -213z" />
<glyph unicode="&#xd3;" horiz-adv-x="1267" d="M27.5 696.5q23.5 186.5 115.5 380.5q43 49 98.5 103.5t118 107.5t130 101.5t137.5 87.5q223 -31 357 -142.5t187.5 -271.5t30 -353.5t-116.5 -385.5q-111 -111 -226.5 -218.5t-258.5 -197.5q-223 53 -356 170t-186.5 274.5t-30 344zM214 816.5q-5 -107.5 18.5 -213 t72.5 -195t121 -155.5t162 -95q174 -57 278 24q72 86 108 192.5t40 216t-19.5 218.5t-72 199t-119 156.5t-156.5 92.5q-74 23 -147.5 18t-139.5 -54q-72 -86 -106.5 -191.5t-39.5 -213zM467 1479q51 27 82 58.5t47 67t19 77.5t-3 90l236 55q16 -88 -8.5 -140.5t-75.5 -90 t-122 -73.5t-146 -91z" />
<glyph unicode="&#xd4;" horiz-adv-x="1267" d="M27.5 696.5q23.5 186.5 115.5 380.5q43 49 98.5 103.5t118 107.5t130 101.5t137.5 87.5q90 -12 164 -39q-14 20 -37 49t-51.5 59.5t-63.5 60t-76 54.5q-35 -41 -63 -80q-25 -35 -50.5 -74t-37.5 -73q-20 12 -37 28q-14 14 -28.5 30.5t-20.5 39.5q53 39 114 92 q53 45 123 108.5t148 145.5q10 -18 34.5 -51t61.5 -70t86 -74.5t108 -64.5q-47 -23 -98 -78t-78 -115q156 -61 247 -178t120 -266.5t1 -319t-108 -337.5q-111 -111 -226.5 -218.5t-258.5 -197.5q-223 53 -356 170t-186.5 274.5t-30 344zM214 816.5q-5 -107.5 18.5 -213 t72.5 -195t121 -155.5t162 -95q174 -57 278 24q72 86 108 192.5t40 216t-19.5 218.5t-72 199t-119 156.5t-156.5 92.5q-74 23 -147.5 18t-139.5 -54q-72 -86 -106.5 -191.5t-39.5 -213z" />
<glyph unicode="&#xd5;" horiz-adv-x="1267" d="M27.5 696.5q23.5 186.5 115.5 380.5q43 49 98.5 103.5t118 107.5t130 101.5t137.5 87.5q223 -31 357 -142.5t187.5 -271.5t30 -353.5t-116.5 -385.5q-111 -111 -226.5 -218.5t-258.5 -197.5q-223 53 -356 170t-186.5 274.5t-30 344zM214 816.5q-5 -107.5 18.5 -213 t72.5 -195t121 -155.5t162 -95q174 -57 278 24q72 86 108 192.5t40 216t-19.5 218.5t-72 199t-119 156.5t-156.5 92.5q-74 23 -147.5 18t-139.5 -54q-72 -86 -106.5 -191.5t-39.5 -213zM291 1544q37 61 84 117q39 47 92 96t115 78q68 -31 113.5 -72t79.5 -75.5t60.5 -51 t51.5 1.5q39 27 37 69t-39 101q14 8 28 17q12 6 25.5 11t24.5 5q37 -68 24.5 -125t-57.5 -103t-112.5 -79t-141.5 -51q-39 43 -67.5 72.5t-52.5 48t-45.5 26.5t-45.5 8q-25 0 -43.5 -16t-27.5 -42t-12 -56.5t3 -59.5q-20 12 -39 25q-16 10 -30.5 24.5t-24.5 30.5z" />
<glyph unicode="&#xd6;" horiz-adv-x="1267" d="M27.5 696.5q23.5 186.5 115.5 380.5q43 49 98.5 103.5t118 107.5t130 101.5t137.5 87.5q223 -31 357 -142.5t187.5 -271.5t30 -353.5t-116.5 -385.5q-111 -111 -226.5 -218.5t-258.5 -197.5q-223 53 -356 170t-186.5 274.5t-30 344zM214 816.5q-5 -107.5 18.5 -213 t72.5 -195t121 -155.5t162 -95q174 -57 278 24q72 86 108 192.5t40 216t-19.5 218.5t-72 199t-119 156.5t-156.5 92.5q-74 23 -147.5 18t-139.5 -54q-72 -86 -106.5 -191.5t-39.5 -213zM332 1608q16 27 46 61.5t58 63.5q33 35 70 69q23 -27 45 -53q20 -23 42.5 -49.5 t43.5 -46.5q23 27 49.5 56.5t48.5 51.5l53 54q31 -39 60 -74q25 -29 52.5 -57.5t47.5 -45.5q-43 -29 -81 -77t-85 -105q-27 25 -53 49q-23 23 -49.5 47.5t-46.5 46.5q-31 -31 -61.5 -70.5t-67.5 -84.5q-33 31 -66 61q-29 27 -57.5 55t-48.5 48z" />
<glyph unicode="&#xd7;" horiz-adv-x="825" d="M20 303l91 207l206 131l-227 244l-51 202l27 9l217 -144l168 -180l127 209l206 88l21 -18l-90 -207l-207 -133l225 -242l53 -203l-26 -10l-217 143l-168 181l-129 -207l-207 -90z" />
<glyph unicode="&#xd8;" horiz-adv-x="1267" d="M26.5 495.5q-14.5 133.5 15.5 282t101 299.5q43 49 98.5 103.5t118 107.5t130 101.5t137.5 87.5q78 -10 142.5 -32t119.5 -50q10 25 18 44t13 34q55 35 94 62.5t86 70.5l26 -19q-12 -53 -18 -107.5t14 -88.5q-18 -23 -38.5 -49.5t-43.5 -59.5q80 -84 121 -194.5 t45 -235.5t-26.5 -260t-94.5 -268q-111 -111 -226.5 -218.5t-258.5 -197.5q-78 18 -144.5 45t-121.5 59l-127 -241l-60 34q35 61 68 123t64 121q-113 84 -175.5 198.5t-77 248zM215 729q8 -129 55 -246.5t127 -201.5q133 266 233.5 493t168.5 393q-70 63 -152 90 q-74 23 -147.5 18t-139.5 -54q-84 -104 -118.5 -233.5t-26.5 -258.5zM449 233q33 -25 66.5 -44t72.5 -31q174 -57 278 24q76 92 111 205t37 230.5t-29 230.5t-88 203q-82 -141 -191.5 -339t-256.5 -479z" />
<glyph unicode="&#xd9;" horiz-adv-x="1458" d="M20 852q12 88 45 175t87.5 167t132 151.5t182.5 131.5q119 -158 168 -287t47 -247t-47 -234.5t-115 -247.5q-4 -10 -21.5 -41t-35.5 -64q-23 -39 -47 -84q47 25 84 34t70.5 3t70.5 -26.5t86 -53.5q47 -31 87 -46t77 -10t75 29.5t85 73.5v957q-29 25 -64 46t-82 38 q6 14 20.5 38.5t39 54.5t56.5 60.5t71 55.5q41 -12 77.5 -34t65.5 -44q33 -25 59 -55l-24 -64l8 -1010q8 -23 26.5 -46t45 -33.5t57.5 -1t61 52.5l41 -29q-41 -53 -88 -104q-41 -43 -90 -91.5t-100 -82.5q-66 47 -115 106.5t-74 102.5l-301 -259q-92 51 -154.5 85 t-103.5 55.5t-69.5 31t-53.5 9.5q-29 0 -42 -9.5t-19 -19.5l-35 29l45 69q86 170 136.5 317.5t55.5 278.5t-44 250t-162 234q-25 -33 -43.5 -72t-25.5 -82t-2 -86t28 -84q31 -55 51.5 -110.5t25.5 -108.5t-7.5 -105.5t-49.5 -99.5q-23 -31 -52.5 -33t-49.5 47 q84 61 102.5 130t-9 120t-93.5 75t-150 -3zM565 1626l211 199l27 -25q-18 -39 -23.5 -83t11 -87t57.5 -83t113 -72l-33 -60q-43 31 -101.5 51.5t-114 41t-97.5 47t-50 71.5z" />
<glyph unicode="&#xda;" horiz-adv-x="1458" d="M20 852q12 88 45 175t87.5 167t132 151.5t182.5 131.5q119 -158 168 -287t47 -247t-47 -234.5t-115 -247.5q-4 -10 -21.5 -41t-35.5 -64q-23 -39 -47 -84q47 25 84 34t70.5 3t70.5 -26.5t86 -53.5q47 -31 87 -46t77 -10t75 29.5t85 73.5v957q-29 25 -64 46t-82 38 q6 14 20.5 38.5t39 54.5t56.5 60.5t71 55.5q41 -12 77.5 -34t65.5 -44q33 -25 59 -55l-24 -64l8 -1010q8 -23 26.5 -46t45 -33.5t57.5 -1t61 52.5l41 -29q-41 -53 -88 -104q-41 -43 -90 -91.5t-100 -82.5q-66 47 -115 106.5t-74 102.5l-301 -259q-92 51 -154.5 85 t-103.5 55.5t-69.5 31t-53.5 9.5q-29 0 -42 -9.5t-19 -19.5l-35 29l45 69q86 170 136.5 317.5t55.5 278.5t-44 250t-162 234q-25 -33 -43.5 -72t-25.5 -82t-2 -86t28 -84q31 -55 51.5 -110.5t25.5 -108.5t-7.5 -105.5t-49.5 -99.5q-23 -31 -52.5 -33t-49.5 47 q84 61 102.5 130t-9 120t-93.5 75t-150 -3zM604 1487q51 27 82 58.5t47.5 67.5t19.5 78t-3 89l235 55q16 -88 -8.5 -140.5t-75.5 -90t-121.5 -73.5t-146.5 -91z" />
<glyph unicode="&#xdb;" horiz-adv-x="1458" d="M20 852q12 88 45 175t87.5 167t132 151.5t182.5 131.5q119 -158 168 -287t47 -247t-47 -234.5t-115 -247.5q-4 -10 -21.5 -41t-35.5 -64q-23 -39 -47 -84q47 25 84 34t70.5 3t70.5 -26.5t86 -53.5q47 -31 87 -46t77 -10t75 29.5t85 73.5v957q-29 25 -64 46t-82 38 q6 14 20.5 38.5t39 54.5t56.5 60.5t71 55.5q41 -12 77.5 -34t65.5 -44q33 -25 59 -55l-24 -64l8 -1010q8 -23 26.5 -46t45 -33.5t57.5 -1t61 52.5l41 -29q-41 -53 -88 -104q-41 -43 -90 -91.5t-100 -82.5q-66 47 -115 106.5t-74 102.5l-301 -259q-92 51 -154.5 85 t-103.5 55.5t-69.5 31t-53.5 9.5q-29 0 -42 -9.5t-19 -19.5l-35 29l45 69q86 170 136.5 317.5t55.5 278.5t-44 250t-162 234q-25 -33 -43.5 -72t-25.5 -82t-2 -86t28 -84q31 -55 51.5 -110.5t25.5 -108.5t-7.5 -105.5t-49.5 -99.5q-23 -31 -52.5 -33t-49.5 47 q84 61 102.5 130t-9 120t-93.5 75t-150 -3zM463 1540q53 39 115 92q53 45 122.5 108.5t147.5 145.5q10 -18 34.5 -51t61.5 -69.5t86 -74.5t109 -65q-27 -12 -54.5 -34.5t-54 -52.5t-47 -63.5t-31.5 -66.5q-31 49 -69 96q-35 41 -81 85t-102 79q-35 -41 -63 -80 q-25 -35 -50.5 -73.5t-37.5 -73.5q-20 12 -37 28q-14 14 -28.5 30.5t-20.5 39.5z" />
<glyph unicode="&#xdc;" horiz-adv-x="1458" d="M20 852q12 88 45 175t87.5 167t132 151.5t182.5 131.5q119 -158 168 -287t47 -247t-47 -234.5t-115 -247.5q-4 -10 -21.5 -41t-35.5 -64q-23 -39 -47 -84q47 25 84 34t70.5 3t70.5 -26.5t86 -53.5q47 -31 87 -46t77 -10t75 29.5t85 73.5v957q-29 25 -64 46t-82 38 q6 14 20.5 38.5t39 54.5t56.5 60.5t71 55.5q41 -12 77.5 -34t65.5 -44q33 -25 59 -55l-24 -64l8 -1010q8 -23 26.5 -46t45 -33.5t57.5 -1t61 52.5l41 -29q-41 -53 -88 -104q-41 -43 -90 -91.5t-100 -82.5q-66 47 -115 106.5t-74 102.5l-301 -259q-92 51 -154.5 85 t-103.5 55.5t-69.5 31t-53.5 9.5q-29 0 -42 -9.5t-19 -19.5l-35 29l45 69q86 170 136.5 317.5t55.5 278.5t-44 250t-162 234q-25 -33 -43.5 -72t-25.5 -82t-2 -86t28 -84q31 -55 51.5 -110.5t25.5 -108.5t-7.5 -105.5t-49.5 -99.5q-23 -31 -52.5 -33t-49.5 47 q84 61 102.5 130t-9 120t-93.5 75t-150 -3zM469 1616q16 27 46 61.5t58 63.5q33 35 70 69q23 -27 45 -53q20 -23 43 -49.5t43 -46.5q23 27 49.5 56.5t48.5 51.5l54 54q31 -39 59 -74q25 -29 52.5 -57.5t47.5 -44.5q-43 -29 -80.5 -77t-84.5 -106q-27 25 -54 49 q-23 23 -49 47.5t-47 47.5q-31 -31 -61.5 -71t-67.5 -85q-33 31 -66 61q-29 27 -57.5 55t-48.5 48z" />
<glyph unicode="&#xdd;" horiz-adv-x="1423" d="M20 852q12 88 45 175t87.5 167t132 151.5t182.5 131.5q104 -139 148 -257t43 -222.5t-39.5 -200t-96.5 -189.5l-41 -63q35 -4 82 -30t101 -56q47 -27 88 -31t79.5 11.5t78.5 47t87 76.5v565l50 50q-31 12 -58.5 31.5t-50.5 37.5q-25 23 -49 47q20 39 43 78q20 35 47 72 t61 72q37 -35 74 -68q33 -29 71 -58.5t77 -48.5l-66 -96v-686q53 -23 95 -71t61.5 -110.5t15.5 -135t-43 -142.5l-477 -374q-270 96 -429 143t-188 20q-27 -29 -19.5 -68.5t36.5 -94.5h-101q-6 61 13.5 128.5t58.5 124t92.5 92t112.5 35.5t133 -35.5t156 -73.5t166 -58.5 t163 10.5q61 25 94 81t26 125.5t-58 142.5t-158 132l-258 -242q-86 37 -148.5 61.5t-107.5 37t-76.5 12.5t-56.5 -12l-33 24l45 60q76 129 121 250.5t50 236.5t-34.5 222.5t-132.5 205.5q-31 -31 -53 -73t-32.5 -88t-5.5 -93t30 -92q31 -55 51.5 -110.5t25.5 -108.5 t-7.5 -105.5t-49.5 -99.5q-23 -31 -52 -33t-52 47q84 61 102.5 130t-9 120t-93.5 75t-150 -3zM590 1475q51 27 81.5 58.5t47 67t19.5 77.5t-3 89l236 56q16 -88 -8.5 -140.5t-75.5 -90.5t-122 -73.5t-147 -91.5z" />
<glyph unicode="&#xde;" horiz-adv-x="1224" d="M20 940q12 86 35 148.5t60 114.5t89 101.5t124 110.5l164 133l229 -200l-62 -64v-227l349 256q123 -111 180 -245t35.5 -284.5t-131 -315.5t-320.5 -339q-23 10 -50.5 21.5t-62.5 21.5v-154l-77 -55q23 -23 49 -38t53 -19t53.5 6t48.5 41l29 -29q-23 -23 -51.5 -54.5 t-59 -66t-60.5 -67.5t-52 -55q-33 8 -70 23t-70.5 35.5t-64.5 43t-51 43.5q23 18 42 45t34.5 58.5t28 64.5t22.5 61v174q-82 20 -148 29q-55 8 -86.5 0t-50 -29.5t-28 -57.5t-17.5 -81l-88 41q12 29 47 75t82 89t102.5 73.5t110.5 30.5q16 0 34.5 -2t41.5 -6v682q0 27 -7 65 t-25.5 74.5t-51.5 66.5t-84 38q-41 -53 -53.5 -125t22.5 -145q31 -68 45.5 -137.5t12 -136t-24 -128t-64.5 -110.5q-29 -31 -55 -21t-49 72q59 27 91 70.5t40 92t-5 94.5t-45 76.5t-80.5 39t-109.5 -18.5zM659 346q45 -10 87 -19.5t78 -12.5t63.5 2.5t44.5 21.5 q55 55 87 128t42 151.5t-1 157.5t-44 144.5t-86 113.5t-127 65l-144 -125v-627z" />
<glyph unicode="&#xdf;" horiz-adv-x="919" d="M27 1147q66 43 118 78t97 70.5t87 75.5t87 93q100 -104 199.5 -167.5t185.5 -90.5l28 -59q-29 -39 -90 -101.5t-133 -127.5q84 -68 141.5 -135.5t83 -138.5t17.5 -147.5t-55 -166.5q-31 -57 -74 -98.5t-87 -84.5t-83 -99t-62 -144l-88 59q125 170 184.5 282.5t61.5 193.5 t-49 147.5t-150 144.5l-92 -108l-43 120q84 33 150.5 106t107.5 179l-299 213l-4 -1288q-33 -37 -48 -80t-19 -80q-8 -43 -4 -84l-109 -190z" />
<glyph unicode="&#xe0;" horiz-adv-x="888" d="M14.5 475q8.5 100 44 194.5t101 175.5t159.5 136l156 106l166 -165q18 -23 47 -19l113 150l57 -43q-68 -27 -104.5 -99.5t-36.5 -193.5v-412q0 -47 19.5 -81t48 -48t60.5 -4t56 51l33 -30q-37 -37 -75 -71t-72.5 -60.5t-66.5 -43t-56 -16.5q-45 0 -92.5 47t-77.5 141 q-47 -29 -94.5 -63.5t-88.5 -67.5q-47 -36 -90 -75q-76 49 -124 126.5t-69.5 171t-13 193.5zM183 690q-7 -72 6.5 -147.5t44 -143t76.5 -122t106 -82.5q8 8 18 16t22.5 18.5t28.5 22.5v491l-182 183q-53 -41 -83 -102.5t-37 -133.5zM264 1286l211 199l27 -25 q-18 -39 -23.5 -83t11 -87t57.5 -83t112 -72l-32 -60q-43 31 -101.5 51.5t-114 41t-97.5 47t-50 71.5z" />
<glyph unicode="&#xe1;" horiz-adv-x="888" d="M14.5 475q8.5 100 44 194.5t101 175.5t159.5 136l156 106l166 -165q18 -23 47 -19l113 150l57 -43q-68 -27 -104.5 -99.5t-36.5 -193.5v-412q0 -47 19.5 -81t48 -48t60.5 -4t56 51l33 -30q-37 -37 -75 -71t-72.5 -60.5t-66.5 -43t-56 -16.5q-45 0 -92.5 47t-77.5 141 q-47 -29 -94.5 -63.5t-88.5 -67.5q-47 -36 -90 -75q-76 49 -124 126.5t-69.5 171t-13 193.5zM183 690q-7 -72 6.5 -147.5t44 -143t76.5 -122t106 -82.5q8 8 18 16t22.5 18.5t28.5 22.5v491l-182 183q-53 -41 -83 -102.5t-37 -133.5zM303 1147q51 27 82 58.5t47.5 67.5 t19.5 78t-3 89l235 55q16 -88 -8.5 -140t-75.5 -90t-121.5 -74t-146.5 -91z" />
<glyph unicode="&#xe2;" horiz-adv-x="888" d="M14.5 475q8.5 100 44 194.5t101 175.5t159.5 136l156 106l166 -165q18 -23 47 -19l113 150l57 -43q-68 -27 -104.5 -99.5t-36.5 -193.5v-412q0 -47 19.5 -81t48 -48t60.5 -4t56 51l33 -30q-37 -37 -75 -71t-72.5 -60.5t-66.5 -43t-56 -16.5q-45 0 -92.5 47t-77.5 141 q-47 -29 -94.5 -63.5t-88.5 -67.5q-47 -36 -90 -75q-76 49 -124 126.5t-69.5 171t-13 193.5zM162 1200q53 39 114 92q53 45 123 108.5t148 145.5q10 -18 34.5 -51t61.5 -69.5t86 -74.5t109 -65q-27 -12 -54.5 -34.5t-54.5 -52.5t-47 -63.5t-31 -66.5q-31 49 -69 96 q-35 41 -81 85t-102 79q-35 -41 -63 -80q-25 -35 -50.5 -73.5t-37.5 -73.5q-20 12 -37 28q-14 14 -28.5 30.5t-20.5 39.5zM183 690q-7 -72 6.5 -147.5t44 -143t76.5 -122t106 -82.5q8 8 18 16t22.5 18.5t28.5 22.5v491l-182 183q-53 -41 -83 -102.5t-37 -133.5z" />
</font>
</defs>
</svg>
